G04 EAGLE Gerber RS-274X export*
G75*
%MOMM*%
%FSLAX34Y34*%
%LPD*%
%IN*%
%IPPOS*%
%AMOC8*
5,1,8,0,0,1.08239X$1,22.5*%
G01*
%ADD10C,0.254000*%


D10*
X0Y0D02*
X1000000Y0D01*
X1000000Y550000D01*
X0Y550000D01*
X0Y0D01*
X752500Y65734D02*
X752575Y66398D01*
X752724Y67050D01*
X752944Y67681D01*
X753234Y68283D01*
X753590Y68849D01*
X754006Y69371D01*
X754479Y69844D01*
X755001Y70260D01*
X755567Y70616D01*
X756169Y70906D01*
X756800Y71126D01*
X757452Y71275D01*
X758116Y71350D01*
X758784Y71350D01*
X759448Y71275D01*
X760100Y71126D01*
X760731Y70906D01*
X761333Y70616D01*
X761899Y70260D01*
X762421Y69844D01*
X762894Y69371D01*
X763310Y68849D01*
X763666Y68283D01*
X763956Y67681D01*
X764176Y67050D01*
X764325Y66398D01*
X764400Y65734D01*
X764400Y65066D01*
X764325Y64402D01*
X764176Y63750D01*
X763956Y63119D01*
X763666Y62517D01*
X763310Y61951D01*
X762894Y61429D01*
X762421Y60956D01*
X761899Y60540D01*
X761333Y60184D01*
X760731Y59894D01*
X760100Y59674D01*
X759448Y59525D01*
X758784Y59450D01*
X758116Y59450D01*
X757452Y59525D01*
X756800Y59674D01*
X756169Y59894D01*
X755567Y60184D01*
X755001Y60540D01*
X754479Y60956D01*
X754006Y61429D01*
X753590Y61951D01*
X753234Y62517D01*
X752944Y63119D01*
X752724Y63750D01*
X752575Y64402D01*
X752500Y65066D01*
X752500Y65734D01*
M02*
