G04 EAGLE Gerber RS-274X export*
G75*
%MOMM*%
%FSLAX34Y34*%
%LPD*%
%INSilkscreen Bottom*%
%IPPOS*%
%AMOC8*
5,1,8,0,0,1.08239X$1,22.5*%
G01*
%ADD10C,0.500000*%
%ADD11C,0.120000*%
%ADD12C,0.101600*%
%ADD13C,0.127000*%


D10*
X974300Y11328D03*
D11*
X983972Y25000D02*
X1030000Y25000D01*
X1030000Y525000D01*
X983972Y525000D01*
X736028Y25000D02*
X690000Y25000D01*
X690000Y525000D01*
X736028Y525000D01*
D12*
X1036858Y251573D02*
X1048542Y251573D01*
X1036858Y251573D02*
X1036858Y256766D01*
X1036858Y263638D02*
X1036858Y266235D01*
X1036858Y263638D02*
X1036860Y263539D01*
X1036866Y263439D01*
X1036875Y263340D01*
X1036888Y263242D01*
X1036905Y263144D01*
X1036926Y263046D01*
X1036951Y262950D01*
X1036979Y262855D01*
X1037011Y262761D01*
X1037046Y262668D01*
X1037085Y262576D01*
X1037128Y262486D01*
X1037173Y262398D01*
X1037223Y262311D01*
X1037275Y262227D01*
X1037331Y262144D01*
X1037389Y262064D01*
X1037451Y261986D01*
X1037516Y261911D01*
X1037584Y261838D01*
X1037654Y261768D01*
X1037727Y261700D01*
X1037802Y261635D01*
X1037880Y261573D01*
X1037960Y261515D01*
X1038043Y261459D01*
X1038127Y261407D01*
X1038214Y261357D01*
X1038302Y261312D01*
X1038392Y261269D01*
X1038484Y261230D01*
X1038577Y261195D01*
X1038671Y261163D01*
X1038766Y261135D01*
X1038862Y261110D01*
X1038960Y261089D01*
X1039058Y261072D01*
X1039156Y261059D01*
X1039255Y261050D01*
X1039355Y261044D01*
X1039454Y261042D01*
X1045946Y261042D01*
X1046045Y261044D01*
X1046145Y261050D01*
X1046244Y261059D01*
X1046342Y261072D01*
X1046440Y261089D01*
X1046538Y261110D01*
X1046634Y261135D01*
X1046729Y261163D01*
X1046823Y261195D01*
X1046916Y261230D01*
X1047008Y261269D01*
X1047098Y261312D01*
X1047186Y261357D01*
X1047273Y261407D01*
X1047357Y261459D01*
X1047440Y261515D01*
X1047520Y261573D01*
X1047598Y261635D01*
X1047673Y261700D01*
X1047746Y261768D01*
X1047816Y261838D01*
X1047884Y261911D01*
X1047949Y261986D01*
X1048011Y262064D01*
X1048069Y262144D01*
X1048125Y262227D01*
X1048177Y262311D01*
X1048227Y262398D01*
X1048272Y262486D01*
X1048315Y262576D01*
X1048354Y262668D01*
X1048389Y262760D01*
X1048421Y262855D01*
X1048449Y262950D01*
X1048474Y263046D01*
X1048495Y263144D01*
X1048512Y263242D01*
X1048525Y263340D01*
X1048534Y263439D01*
X1048540Y263539D01*
X1048542Y263638D01*
X1048542Y266235D01*
X1048542Y270981D02*
X1036858Y270981D01*
X1048542Y270981D02*
X1048542Y274227D01*
X1048540Y274340D01*
X1048534Y274453D01*
X1048524Y274566D01*
X1048510Y274679D01*
X1048493Y274791D01*
X1048471Y274902D01*
X1048446Y275012D01*
X1048416Y275122D01*
X1048383Y275230D01*
X1048346Y275337D01*
X1048306Y275443D01*
X1048261Y275547D01*
X1048213Y275650D01*
X1048162Y275751D01*
X1048107Y275850D01*
X1048049Y275947D01*
X1047987Y276042D01*
X1047922Y276135D01*
X1047854Y276225D01*
X1047783Y276313D01*
X1047708Y276399D01*
X1047631Y276482D01*
X1047551Y276562D01*
X1047468Y276639D01*
X1047382Y276714D01*
X1047294Y276785D01*
X1047204Y276853D01*
X1047111Y276918D01*
X1047016Y276980D01*
X1046919Y277038D01*
X1046820Y277093D01*
X1046719Y277144D01*
X1046616Y277192D01*
X1046512Y277237D01*
X1046406Y277277D01*
X1046299Y277314D01*
X1046191Y277347D01*
X1046081Y277377D01*
X1045971Y277402D01*
X1045860Y277424D01*
X1045748Y277441D01*
X1045635Y277455D01*
X1045522Y277465D01*
X1045409Y277471D01*
X1045296Y277473D01*
X1045296Y277472D02*
X1040104Y277472D01*
X1040104Y277473D02*
X1039991Y277471D01*
X1039878Y277465D01*
X1039765Y277455D01*
X1039652Y277441D01*
X1039540Y277424D01*
X1039429Y277402D01*
X1039319Y277377D01*
X1039209Y277347D01*
X1039101Y277314D01*
X1038994Y277277D01*
X1038888Y277237D01*
X1038784Y277192D01*
X1038681Y277144D01*
X1038580Y277093D01*
X1038481Y277038D01*
X1038384Y276980D01*
X1038289Y276918D01*
X1038196Y276853D01*
X1038106Y276785D01*
X1038018Y276714D01*
X1037932Y276639D01*
X1037849Y276562D01*
X1037769Y276482D01*
X1037692Y276399D01*
X1037617Y276313D01*
X1037546Y276225D01*
X1037478Y276135D01*
X1037413Y276042D01*
X1037351Y275947D01*
X1037293Y275850D01*
X1037238Y275751D01*
X1037187Y275650D01*
X1037139Y275547D01*
X1037094Y275443D01*
X1037054Y275337D01*
X1037017Y275230D01*
X1036984Y275122D01*
X1036954Y275012D01*
X1036929Y274902D01*
X1036907Y274791D01*
X1036890Y274679D01*
X1036876Y274566D01*
X1036866Y274453D01*
X1036860Y274340D01*
X1036858Y274227D01*
X1036858Y270981D01*
X1035560Y282298D02*
X1035560Y287491D01*
X1045946Y291936D02*
X1048542Y295182D01*
X1036858Y295182D01*
X1036858Y298427D02*
X1036858Y291936D01*
D10*
X614300Y11328D03*
D11*
X623972Y25000D02*
X670000Y25000D01*
X670000Y525000D01*
X623972Y525000D01*
X376028Y25000D02*
X330000Y25000D01*
X330000Y525000D01*
X376028Y525000D01*
D12*
X676858Y251573D02*
X688542Y251573D01*
X676858Y251573D02*
X676858Y256766D01*
X676858Y263638D02*
X676858Y266235D01*
X676858Y263638D02*
X676860Y263539D01*
X676866Y263439D01*
X676875Y263340D01*
X676888Y263242D01*
X676905Y263144D01*
X676926Y263046D01*
X676951Y262950D01*
X676979Y262855D01*
X677011Y262761D01*
X677046Y262668D01*
X677085Y262576D01*
X677128Y262486D01*
X677173Y262398D01*
X677223Y262311D01*
X677275Y262227D01*
X677331Y262144D01*
X677389Y262064D01*
X677451Y261986D01*
X677516Y261911D01*
X677584Y261838D01*
X677654Y261768D01*
X677727Y261700D01*
X677802Y261635D01*
X677880Y261573D01*
X677960Y261515D01*
X678043Y261459D01*
X678127Y261407D01*
X678214Y261357D01*
X678302Y261312D01*
X678392Y261269D01*
X678484Y261230D01*
X678577Y261195D01*
X678671Y261163D01*
X678766Y261135D01*
X678862Y261110D01*
X678960Y261089D01*
X679058Y261072D01*
X679156Y261059D01*
X679255Y261050D01*
X679355Y261044D01*
X679454Y261042D01*
X685946Y261042D01*
X686045Y261044D01*
X686145Y261050D01*
X686244Y261059D01*
X686342Y261072D01*
X686440Y261089D01*
X686538Y261110D01*
X686634Y261135D01*
X686729Y261163D01*
X686823Y261195D01*
X686916Y261230D01*
X687008Y261269D01*
X687098Y261312D01*
X687186Y261357D01*
X687273Y261407D01*
X687357Y261459D01*
X687440Y261515D01*
X687520Y261573D01*
X687598Y261635D01*
X687673Y261700D01*
X687746Y261768D01*
X687816Y261838D01*
X687884Y261911D01*
X687949Y261986D01*
X688011Y262064D01*
X688069Y262144D01*
X688125Y262227D01*
X688177Y262311D01*
X688227Y262398D01*
X688272Y262486D01*
X688315Y262576D01*
X688354Y262668D01*
X688389Y262760D01*
X688421Y262855D01*
X688449Y262950D01*
X688474Y263046D01*
X688495Y263144D01*
X688512Y263242D01*
X688525Y263340D01*
X688534Y263439D01*
X688540Y263539D01*
X688542Y263638D01*
X688542Y266235D01*
X688542Y270981D02*
X676858Y270981D01*
X688542Y270981D02*
X688542Y274227D01*
X688540Y274340D01*
X688534Y274453D01*
X688524Y274566D01*
X688510Y274679D01*
X688493Y274791D01*
X688471Y274902D01*
X688446Y275012D01*
X688416Y275122D01*
X688383Y275230D01*
X688346Y275337D01*
X688306Y275443D01*
X688261Y275547D01*
X688213Y275650D01*
X688162Y275751D01*
X688107Y275850D01*
X688049Y275947D01*
X687987Y276042D01*
X687922Y276135D01*
X687854Y276225D01*
X687783Y276313D01*
X687708Y276399D01*
X687631Y276482D01*
X687551Y276562D01*
X687468Y276639D01*
X687382Y276714D01*
X687294Y276785D01*
X687204Y276853D01*
X687111Y276918D01*
X687016Y276980D01*
X686919Y277038D01*
X686820Y277093D01*
X686719Y277144D01*
X686616Y277192D01*
X686512Y277237D01*
X686406Y277277D01*
X686299Y277314D01*
X686191Y277347D01*
X686081Y277377D01*
X685971Y277402D01*
X685860Y277424D01*
X685748Y277441D01*
X685635Y277455D01*
X685522Y277465D01*
X685409Y277471D01*
X685296Y277473D01*
X685296Y277472D02*
X680104Y277472D01*
X680104Y277473D02*
X679991Y277471D01*
X679878Y277465D01*
X679765Y277455D01*
X679652Y277441D01*
X679540Y277424D01*
X679429Y277402D01*
X679319Y277377D01*
X679209Y277347D01*
X679101Y277314D01*
X678994Y277277D01*
X678888Y277237D01*
X678784Y277192D01*
X678681Y277144D01*
X678580Y277093D01*
X678481Y277038D01*
X678384Y276980D01*
X678289Y276918D01*
X678196Y276853D01*
X678106Y276785D01*
X678018Y276714D01*
X677932Y276639D01*
X677849Y276562D01*
X677769Y276482D01*
X677692Y276399D01*
X677617Y276313D01*
X677546Y276225D01*
X677478Y276135D01*
X677413Y276042D01*
X677351Y275947D01*
X677293Y275850D01*
X677238Y275751D01*
X677187Y275650D01*
X677139Y275547D01*
X677094Y275443D01*
X677054Y275337D01*
X677017Y275230D01*
X676984Y275122D01*
X676954Y275012D01*
X676929Y274902D01*
X676907Y274791D01*
X676890Y274679D01*
X676876Y274566D01*
X676866Y274453D01*
X676860Y274340D01*
X676858Y274227D01*
X676858Y270981D01*
X675560Y282298D02*
X675560Y287491D01*
X685621Y298427D02*
X685728Y298425D01*
X685834Y298419D01*
X685940Y298409D01*
X686046Y298396D01*
X686152Y298378D01*
X686256Y298357D01*
X686360Y298332D01*
X686463Y298303D01*
X686564Y298271D01*
X686664Y298234D01*
X686763Y298194D01*
X686861Y298151D01*
X686957Y298104D01*
X687051Y298053D01*
X687143Y297999D01*
X687233Y297942D01*
X687321Y297882D01*
X687406Y297818D01*
X687489Y297751D01*
X687570Y297681D01*
X687648Y297609D01*
X687724Y297533D01*
X687796Y297455D01*
X687866Y297374D01*
X687933Y297291D01*
X687997Y297206D01*
X688057Y297118D01*
X688114Y297028D01*
X688168Y296936D01*
X688219Y296842D01*
X688266Y296746D01*
X688309Y296648D01*
X688349Y296549D01*
X688386Y296449D01*
X688418Y296348D01*
X688447Y296245D01*
X688472Y296141D01*
X688493Y296037D01*
X688511Y295931D01*
X688524Y295825D01*
X688534Y295719D01*
X688540Y295613D01*
X688542Y295506D01*
X688540Y295385D01*
X688534Y295264D01*
X688524Y295144D01*
X688511Y295023D01*
X688493Y294904D01*
X688472Y294784D01*
X688447Y294666D01*
X688418Y294549D01*
X688385Y294432D01*
X688349Y294317D01*
X688308Y294203D01*
X688265Y294090D01*
X688217Y293978D01*
X688166Y293869D01*
X688111Y293761D01*
X688053Y293654D01*
X687992Y293550D01*
X687927Y293448D01*
X687859Y293348D01*
X687788Y293250D01*
X687714Y293154D01*
X687637Y293061D01*
X687556Y292971D01*
X687473Y292883D01*
X687387Y292798D01*
X687298Y292715D01*
X687207Y292636D01*
X687113Y292559D01*
X687017Y292486D01*
X686919Y292416D01*
X686818Y292349D01*
X686715Y292285D01*
X686610Y292225D01*
X686503Y292168D01*
X686395Y292114D01*
X686285Y292064D01*
X686173Y292018D01*
X686060Y291975D01*
X685945Y291936D01*
X683349Y297454D02*
X683426Y297533D01*
X683507Y297609D01*
X683590Y297682D01*
X683675Y297752D01*
X683763Y297819D01*
X683853Y297883D01*
X683945Y297943D01*
X684040Y298000D01*
X684136Y298054D01*
X684234Y298105D01*
X684334Y298152D01*
X684436Y298196D01*
X684539Y298236D01*
X684643Y298272D01*
X684749Y298304D01*
X684855Y298333D01*
X684963Y298358D01*
X685071Y298380D01*
X685181Y298397D01*
X685290Y298411D01*
X685400Y298420D01*
X685511Y298426D01*
X685621Y298428D01*
X683349Y297454D02*
X676858Y291936D01*
X676858Y298427D01*
D10*
X254300Y11328D03*
D11*
X263972Y25000D02*
X310000Y25000D01*
X310000Y525000D01*
X263972Y525000D01*
X16028Y25000D02*
X-30000Y25000D01*
X-30000Y525000D01*
X16028Y525000D01*
D12*
X316858Y251573D02*
X328542Y251573D01*
X316858Y251573D02*
X316858Y256766D01*
X316858Y263638D02*
X316858Y266235D01*
X316858Y263638D02*
X316860Y263539D01*
X316866Y263439D01*
X316875Y263340D01*
X316888Y263242D01*
X316905Y263144D01*
X316926Y263046D01*
X316951Y262950D01*
X316979Y262855D01*
X317011Y262761D01*
X317046Y262668D01*
X317085Y262576D01*
X317128Y262486D01*
X317173Y262398D01*
X317223Y262311D01*
X317275Y262227D01*
X317331Y262144D01*
X317389Y262064D01*
X317451Y261986D01*
X317516Y261911D01*
X317584Y261838D01*
X317654Y261768D01*
X317727Y261700D01*
X317802Y261635D01*
X317880Y261573D01*
X317960Y261515D01*
X318043Y261459D01*
X318127Y261407D01*
X318214Y261357D01*
X318302Y261312D01*
X318392Y261269D01*
X318484Y261230D01*
X318577Y261195D01*
X318671Y261163D01*
X318766Y261135D01*
X318862Y261110D01*
X318960Y261089D01*
X319058Y261072D01*
X319156Y261059D01*
X319255Y261050D01*
X319355Y261044D01*
X319454Y261042D01*
X325946Y261042D01*
X326045Y261044D01*
X326145Y261050D01*
X326244Y261059D01*
X326342Y261072D01*
X326440Y261089D01*
X326538Y261110D01*
X326634Y261135D01*
X326729Y261163D01*
X326823Y261195D01*
X326916Y261230D01*
X327008Y261269D01*
X327098Y261312D01*
X327186Y261357D01*
X327273Y261407D01*
X327357Y261459D01*
X327440Y261515D01*
X327520Y261573D01*
X327598Y261635D01*
X327673Y261700D01*
X327746Y261768D01*
X327816Y261838D01*
X327884Y261911D01*
X327949Y261986D01*
X328011Y262064D01*
X328069Y262144D01*
X328125Y262227D01*
X328177Y262311D01*
X328227Y262398D01*
X328272Y262486D01*
X328315Y262576D01*
X328354Y262668D01*
X328389Y262760D01*
X328421Y262855D01*
X328449Y262950D01*
X328474Y263046D01*
X328495Y263144D01*
X328512Y263242D01*
X328525Y263340D01*
X328534Y263439D01*
X328540Y263539D01*
X328542Y263638D01*
X328542Y266235D01*
X328542Y270981D02*
X316858Y270981D01*
X328542Y270981D02*
X328542Y274227D01*
X328540Y274340D01*
X328534Y274453D01*
X328524Y274566D01*
X328510Y274679D01*
X328493Y274791D01*
X328471Y274902D01*
X328446Y275012D01*
X328416Y275122D01*
X328383Y275230D01*
X328346Y275337D01*
X328306Y275443D01*
X328261Y275547D01*
X328213Y275650D01*
X328162Y275751D01*
X328107Y275850D01*
X328049Y275947D01*
X327987Y276042D01*
X327922Y276135D01*
X327854Y276225D01*
X327783Y276313D01*
X327708Y276399D01*
X327631Y276482D01*
X327551Y276562D01*
X327468Y276639D01*
X327382Y276714D01*
X327294Y276785D01*
X327204Y276853D01*
X327111Y276918D01*
X327016Y276980D01*
X326919Y277038D01*
X326820Y277093D01*
X326719Y277144D01*
X326616Y277192D01*
X326512Y277237D01*
X326406Y277277D01*
X326299Y277314D01*
X326191Y277347D01*
X326081Y277377D01*
X325971Y277402D01*
X325860Y277424D01*
X325748Y277441D01*
X325635Y277455D01*
X325522Y277465D01*
X325409Y277471D01*
X325296Y277473D01*
X325296Y277472D02*
X320104Y277472D01*
X320104Y277473D02*
X319991Y277471D01*
X319878Y277465D01*
X319765Y277455D01*
X319652Y277441D01*
X319540Y277424D01*
X319429Y277402D01*
X319319Y277377D01*
X319209Y277347D01*
X319101Y277314D01*
X318994Y277277D01*
X318888Y277237D01*
X318784Y277192D01*
X318681Y277144D01*
X318580Y277093D01*
X318481Y277038D01*
X318384Y276980D01*
X318289Y276918D01*
X318196Y276853D01*
X318106Y276785D01*
X318018Y276714D01*
X317932Y276639D01*
X317849Y276562D01*
X317769Y276482D01*
X317692Y276399D01*
X317617Y276313D01*
X317546Y276225D01*
X317478Y276135D01*
X317413Y276042D01*
X317351Y275947D01*
X317293Y275850D01*
X317238Y275751D01*
X317187Y275650D01*
X317139Y275547D01*
X317094Y275443D01*
X317054Y275337D01*
X317017Y275230D01*
X316984Y275122D01*
X316954Y275012D01*
X316929Y274902D01*
X316907Y274791D01*
X316890Y274679D01*
X316876Y274566D01*
X316866Y274453D01*
X316860Y274340D01*
X316858Y274227D01*
X316858Y270981D01*
X315560Y282298D02*
X315560Y287491D01*
X316858Y291936D02*
X316858Y295182D01*
X316860Y295295D01*
X316866Y295408D01*
X316876Y295521D01*
X316890Y295634D01*
X316907Y295746D01*
X316929Y295857D01*
X316954Y295967D01*
X316984Y296077D01*
X317017Y296185D01*
X317054Y296292D01*
X317094Y296398D01*
X317139Y296502D01*
X317187Y296605D01*
X317238Y296706D01*
X317293Y296805D01*
X317351Y296902D01*
X317413Y296997D01*
X317478Y297090D01*
X317546Y297180D01*
X317617Y297268D01*
X317692Y297354D01*
X317769Y297437D01*
X317849Y297517D01*
X317932Y297594D01*
X318018Y297669D01*
X318106Y297740D01*
X318196Y297808D01*
X318289Y297873D01*
X318384Y297935D01*
X318481Y297993D01*
X318580Y298048D01*
X318681Y298099D01*
X318784Y298147D01*
X318888Y298192D01*
X318994Y298232D01*
X319101Y298269D01*
X319209Y298302D01*
X319319Y298332D01*
X319429Y298357D01*
X319540Y298379D01*
X319652Y298396D01*
X319765Y298410D01*
X319878Y298420D01*
X319991Y298426D01*
X320104Y298428D01*
X320217Y298426D01*
X320330Y298420D01*
X320443Y298410D01*
X320556Y298396D01*
X320668Y298379D01*
X320779Y298357D01*
X320889Y298332D01*
X320999Y298302D01*
X321107Y298269D01*
X321214Y298232D01*
X321320Y298192D01*
X321424Y298147D01*
X321527Y298099D01*
X321628Y298048D01*
X321727Y297993D01*
X321824Y297935D01*
X321919Y297873D01*
X322012Y297808D01*
X322102Y297740D01*
X322190Y297669D01*
X322276Y297594D01*
X322359Y297517D01*
X322439Y297437D01*
X322516Y297354D01*
X322591Y297268D01*
X322662Y297180D01*
X322730Y297090D01*
X322795Y296997D01*
X322857Y296902D01*
X322915Y296805D01*
X322970Y296706D01*
X323021Y296605D01*
X323069Y296502D01*
X323114Y296398D01*
X323154Y296292D01*
X323191Y296185D01*
X323224Y296077D01*
X323254Y295967D01*
X323279Y295857D01*
X323301Y295746D01*
X323318Y295634D01*
X323332Y295521D01*
X323342Y295408D01*
X323348Y295295D01*
X323350Y295182D01*
X328542Y295831D02*
X328542Y291936D01*
X328542Y295831D02*
X328540Y295932D01*
X328534Y296032D01*
X328524Y296132D01*
X328511Y296232D01*
X328493Y296331D01*
X328472Y296430D01*
X328447Y296527D01*
X328418Y296624D01*
X328385Y296719D01*
X328349Y296813D01*
X328309Y296905D01*
X328266Y296996D01*
X328219Y297085D01*
X328169Y297172D01*
X328115Y297258D01*
X328058Y297341D01*
X327998Y297421D01*
X327935Y297500D01*
X327868Y297576D01*
X327799Y297649D01*
X327727Y297719D01*
X327653Y297787D01*
X327576Y297852D01*
X327496Y297913D01*
X327414Y297972D01*
X327330Y298027D01*
X327244Y298079D01*
X327156Y298128D01*
X327066Y298173D01*
X326974Y298215D01*
X326881Y298253D01*
X326786Y298287D01*
X326691Y298318D01*
X326594Y298345D01*
X326496Y298368D01*
X326397Y298388D01*
X326297Y298403D01*
X326197Y298415D01*
X326097Y298423D01*
X325996Y298427D01*
X325896Y298427D01*
X325795Y298423D01*
X325695Y298415D01*
X325595Y298403D01*
X325495Y298388D01*
X325396Y298368D01*
X325298Y298345D01*
X325201Y298318D01*
X325106Y298287D01*
X325011Y298253D01*
X324918Y298215D01*
X324826Y298173D01*
X324736Y298128D01*
X324648Y298079D01*
X324562Y298027D01*
X324478Y297972D01*
X324396Y297913D01*
X324316Y297852D01*
X324239Y297787D01*
X324165Y297719D01*
X324093Y297649D01*
X324024Y297576D01*
X323957Y297500D01*
X323894Y297421D01*
X323834Y297341D01*
X323777Y297258D01*
X323723Y297172D01*
X323673Y297085D01*
X323626Y296996D01*
X323583Y296905D01*
X323543Y296813D01*
X323507Y296719D01*
X323474Y296624D01*
X323445Y296527D01*
X323420Y296430D01*
X323399Y296331D01*
X323381Y296232D01*
X323368Y296132D01*
X323358Y296032D01*
X323352Y295932D01*
X323350Y295831D01*
X323349Y295831D02*
X323349Y293234D01*
D13*
X894681Y34997D02*
X898435Y34997D01*
X894681Y34996D02*
X894616Y34994D01*
X894552Y34988D01*
X894488Y34978D01*
X894424Y34965D01*
X894362Y34947D01*
X894301Y34926D01*
X894241Y34902D01*
X894183Y34873D01*
X894126Y34841D01*
X894072Y34806D01*
X894020Y34768D01*
X893970Y34726D01*
X893923Y34682D01*
X893879Y34635D01*
X893837Y34585D01*
X893799Y34533D01*
X893764Y34479D01*
X893732Y34422D01*
X893703Y34364D01*
X893679Y34304D01*
X893658Y34243D01*
X893640Y34181D01*
X893627Y34117D01*
X893617Y34053D01*
X893611Y33989D01*
X893609Y33924D01*
X893609Y33388D01*
X893609Y38274D02*
X898435Y38274D01*
X898435Y39614D01*
X898433Y39685D01*
X898427Y39757D01*
X898418Y39827D01*
X898405Y39897D01*
X898388Y39967D01*
X898367Y40035D01*
X898343Y40102D01*
X898315Y40168D01*
X898284Y40232D01*
X898249Y40295D01*
X898211Y40355D01*
X898170Y40414D01*
X898126Y40470D01*
X898079Y40524D01*
X898030Y40575D01*
X897977Y40623D01*
X897922Y40669D01*
X897865Y40711D01*
X897805Y40751D01*
X897744Y40787D01*
X897680Y40820D01*
X897615Y40849D01*
X897549Y40875D01*
X897481Y40898D01*
X897412Y40917D01*
X897342Y40932D01*
X897272Y40943D01*
X897201Y40951D01*
X897130Y40955D01*
X897058Y40955D01*
X896987Y40951D01*
X896916Y40943D01*
X896846Y40932D01*
X896776Y40917D01*
X896707Y40898D01*
X896639Y40875D01*
X896573Y40849D01*
X896508Y40820D01*
X896444Y40787D01*
X896383Y40751D01*
X896323Y40711D01*
X896266Y40669D01*
X896211Y40623D01*
X896158Y40575D01*
X896109Y40524D01*
X896062Y40470D01*
X896018Y40414D01*
X895977Y40355D01*
X895939Y40295D01*
X895904Y40232D01*
X895873Y40168D01*
X895845Y40102D01*
X895821Y40035D01*
X895800Y39967D01*
X895783Y39897D01*
X895770Y39827D01*
X895761Y39757D01*
X895755Y39685D01*
X895753Y39614D01*
X895754Y39614D02*
X895754Y38274D01*
X898435Y44906D02*
X898433Y44974D01*
X898427Y45041D01*
X898418Y45108D01*
X898405Y45175D01*
X898388Y45240D01*
X898367Y45305D01*
X898343Y45368D01*
X898315Y45430D01*
X898284Y45490D01*
X898250Y45548D01*
X898212Y45604D01*
X898172Y45659D01*
X898128Y45710D01*
X898081Y45759D01*
X898032Y45806D01*
X897981Y45850D01*
X897926Y45890D01*
X897870Y45928D01*
X897812Y45962D01*
X897752Y45993D01*
X897690Y46021D01*
X897627Y46045D01*
X897562Y46066D01*
X897497Y46083D01*
X897430Y46096D01*
X897363Y46105D01*
X897296Y46111D01*
X897228Y46113D01*
X898435Y44906D02*
X898433Y44828D01*
X898427Y44750D01*
X898417Y44673D01*
X898404Y44596D01*
X898386Y44520D01*
X898365Y44445D01*
X898340Y44371D01*
X898311Y44299D01*
X898279Y44228D01*
X898243Y44159D01*
X898204Y44091D01*
X898161Y44026D01*
X898115Y43963D01*
X898066Y43902D01*
X898014Y43844D01*
X897959Y43789D01*
X897902Y43736D01*
X897842Y43687D01*
X897779Y43640D01*
X897714Y43597D01*
X897648Y43557D01*
X897579Y43520D01*
X897508Y43487D01*
X897436Y43457D01*
X897363Y43431D01*
X896290Y45710D02*
X896339Y45759D01*
X896391Y45806D01*
X896446Y45849D01*
X896503Y45890D01*
X896562Y45928D01*
X896623Y45962D01*
X896686Y45993D01*
X896750Y46021D01*
X896816Y46045D01*
X896882Y46065D01*
X896950Y46082D01*
X897019Y46095D01*
X897088Y46104D01*
X897158Y46110D01*
X897228Y46112D01*
X896290Y45710D02*
X893609Y43431D01*
X893609Y46112D01*
X847685Y34997D02*
X843931Y34997D01*
X843931Y34996D02*
X843866Y34994D01*
X843802Y34988D01*
X843738Y34978D01*
X843674Y34965D01*
X843612Y34947D01*
X843551Y34926D01*
X843491Y34902D01*
X843433Y34873D01*
X843376Y34841D01*
X843322Y34806D01*
X843270Y34768D01*
X843220Y34726D01*
X843173Y34682D01*
X843129Y34635D01*
X843087Y34585D01*
X843049Y34533D01*
X843014Y34479D01*
X842982Y34422D01*
X842953Y34364D01*
X842929Y34304D01*
X842908Y34243D01*
X842890Y34181D01*
X842877Y34117D01*
X842867Y34053D01*
X842861Y33989D01*
X842859Y33924D01*
X842859Y33388D01*
X842859Y38274D02*
X847685Y38274D01*
X847685Y39614D01*
X847683Y39685D01*
X847677Y39757D01*
X847668Y39827D01*
X847655Y39897D01*
X847638Y39967D01*
X847617Y40035D01*
X847593Y40102D01*
X847565Y40168D01*
X847534Y40232D01*
X847499Y40295D01*
X847461Y40355D01*
X847420Y40414D01*
X847376Y40470D01*
X847329Y40524D01*
X847280Y40575D01*
X847227Y40623D01*
X847172Y40669D01*
X847115Y40711D01*
X847055Y40751D01*
X846994Y40787D01*
X846930Y40820D01*
X846865Y40849D01*
X846799Y40875D01*
X846731Y40898D01*
X846662Y40917D01*
X846592Y40932D01*
X846522Y40943D01*
X846451Y40951D01*
X846380Y40955D01*
X846308Y40955D01*
X846237Y40951D01*
X846166Y40943D01*
X846096Y40932D01*
X846026Y40917D01*
X845957Y40898D01*
X845889Y40875D01*
X845823Y40849D01*
X845758Y40820D01*
X845694Y40787D01*
X845633Y40751D01*
X845573Y40711D01*
X845516Y40669D01*
X845461Y40623D01*
X845408Y40575D01*
X845359Y40524D01*
X845312Y40470D01*
X845268Y40414D01*
X845227Y40355D01*
X845189Y40295D01*
X845154Y40232D01*
X845123Y40168D01*
X845095Y40102D01*
X845071Y40035D01*
X845050Y39967D01*
X845033Y39897D01*
X845020Y39827D01*
X845011Y39757D01*
X845005Y39685D01*
X845003Y39614D01*
X845004Y39614D02*
X845004Y38274D01*
X842859Y43431D02*
X842859Y44771D01*
X842861Y44842D01*
X842867Y44914D01*
X842876Y44984D01*
X842889Y45054D01*
X842906Y45124D01*
X842927Y45192D01*
X842951Y45259D01*
X842979Y45325D01*
X843010Y45389D01*
X843045Y45452D01*
X843083Y45512D01*
X843124Y45571D01*
X843168Y45627D01*
X843215Y45681D01*
X843264Y45732D01*
X843317Y45780D01*
X843372Y45826D01*
X843429Y45868D01*
X843489Y45908D01*
X843550Y45944D01*
X843614Y45977D01*
X843679Y46006D01*
X843745Y46032D01*
X843813Y46055D01*
X843882Y46074D01*
X843952Y46089D01*
X844022Y46100D01*
X844093Y46108D01*
X844164Y46112D01*
X844236Y46112D01*
X844307Y46108D01*
X844378Y46100D01*
X844448Y46089D01*
X844518Y46074D01*
X844587Y46055D01*
X844655Y46032D01*
X844721Y46006D01*
X844786Y45977D01*
X844850Y45944D01*
X844911Y45908D01*
X844971Y45868D01*
X845028Y45826D01*
X845083Y45780D01*
X845136Y45732D01*
X845185Y45681D01*
X845232Y45627D01*
X845276Y45571D01*
X845317Y45512D01*
X845355Y45452D01*
X845390Y45389D01*
X845421Y45325D01*
X845449Y45259D01*
X845473Y45192D01*
X845494Y45124D01*
X845511Y45054D01*
X845524Y44984D01*
X845533Y44914D01*
X845539Y44842D01*
X845541Y44771D01*
X847685Y45040D02*
X847685Y43431D01*
X847685Y45040D02*
X847683Y45105D01*
X847677Y45169D01*
X847667Y45233D01*
X847654Y45297D01*
X847636Y45359D01*
X847615Y45420D01*
X847591Y45480D01*
X847562Y45538D01*
X847530Y45595D01*
X847495Y45649D01*
X847457Y45701D01*
X847415Y45751D01*
X847371Y45798D01*
X847324Y45842D01*
X847274Y45884D01*
X847222Y45922D01*
X847168Y45957D01*
X847111Y45989D01*
X847053Y46018D01*
X846993Y46042D01*
X846932Y46063D01*
X846870Y46081D01*
X846806Y46094D01*
X846742Y46104D01*
X846678Y46110D01*
X846613Y46112D01*
X846548Y46110D01*
X846484Y46104D01*
X846420Y46094D01*
X846356Y46081D01*
X846294Y46063D01*
X846233Y46042D01*
X846173Y46018D01*
X846115Y45989D01*
X846058Y45957D01*
X846004Y45922D01*
X845952Y45884D01*
X845902Y45842D01*
X845855Y45798D01*
X845811Y45751D01*
X845769Y45701D01*
X845731Y45649D01*
X845696Y45595D01*
X845664Y45538D01*
X845635Y45480D01*
X845611Y45420D01*
X845590Y45359D01*
X845572Y45297D01*
X845559Y45233D01*
X845549Y45169D01*
X845543Y45105D01*
X845541Y45040D01*
X845540Y45040D02*
X845540Y43967D01*
X796935Y34747D02*
X793181Y34747D01*
X793181Y34746D02*
X793116Y34744D01*
X793052Y34738D01*
X792988Y34728D01*
X792924Y34715D01*
X792862Y34697D01*
X792801Y34676D01*
X792741Y34652D01*
X792683Y34623D01*
X792626Y34591D01*
X792572Y34556D01*
X792520Y34518D01*
X792470Y34476D01*
X792423Y34432D01*
X792379Y34385D01*
X792337Y34335D01*
X792299Y34283D01*
X792264Y34229D01*
X792232Y34172D01*
X792203Y34114D01*
X792179Y34054D01*
X792158Y33993D01*
X792140Y33931D01*
X792127Y33867D01*
X792117Y33803D01*
X792111Y33739D01*
X792109Y33674D01*
X792109Y33138D01*
X792109Y38024D02*
X796935Y38024D01*
X796935Y39364D01*
X796933Y39435D01*
X796927Y39507D01*
X796918Y39577D01*
X796905Y39647D01*
X796888Y39717D01*
X796867Y39785D01*
X796843Y39852D01*
X796815Y39918D01*
X796784Y39982D01*
X796749Y40045D01*
X796711Y40105D01*
X796670Y40164D01*
X796626Y40220D01*
X796579Y40274D01*
X796530Y40325D01*
X796477Y40373D01*
X796422Y40419D01*
X796365Y40461D01*
X796305Y40501D01*
X796244Y40537D01*
X796180Y40570D01*
X796115Y40599D01*
X796049Y40625D01*
X795981Y40648D01*
X795912Y40667D01*
X795842Y40682D01*
X795772Y40693D01*
X795701Y40701D01*
X795630Y40705D01*
X795558Y40705D01*
X795487Y40701D01*
X795416Y40693D01*
X795346Y40682D01*
X795276Y40667D01*
X795207Y40648D01*
X795139Y40625D01*
X795073Y40599D01*
X795008Y40570D01*
X794944Y40537D01*
X794883Y40501D01*
X794823Y40461D01*
X794766Y40419D01*
X794711Y40373D01*
X794658Y40325D01*
X794609Y40274D01*
X794562Y40220D01*
X794518Y40164D01*
X794477Y40105D01*
X794439Y40045D01*
X794404Y39982D01*
X794373Y39918D01*
X794345Y39852D01*
X794321Y39785D01*
X794300Y39717D01*
X794283Y39647D01*
X794270Y39577D01*
X794261Y39507D01*
X794255Y39435D01*
X794253Y39364D01*
X794254Y39364D02*
X794254Y38024D01*
X793181Y43181D02*
X796935Y44253D01*
X793181Y43181D02*
X793181Y45862D01*
X794254Y45058D02*
X792109Y45058D01*
X746435Y34497D02*
X742681Y34497D01*
X742681Y34496D02*
X742616Y34494D01*
X742552Y34488D01*
X742488Y34478D01*
X742424Y34465D01*
X742362Y34447D01*
X742301Y34426D01*
X742241Y34402D01*
X742183Y34373D01*
X742126Y34341D01*
X742072Y34306D01*
X742020Y34268D01*
X741970Y34226D01*
X741923Y34182D01*
X741879Y34135D01*
X741837Y34085D01*
X741799Y34033D01*
X741764Y33979D01*
X741732Y33922D01*
X741703Y33864D01*
X741679Y33804D01*
X741658Y33743D01*
X741640Y33681D01*
X741627Y33617D01*
X741617Y33553D01*
X741611Y33489D01*
X741609Y33424D01*
X741609Y32888D01*
X741609Y37774D02*
X746435Y37774D01*
X746435Y39114D01*
X746433Y39185D01*
X746427Y39257D01*
X746418Y39327D01*
X746405Y39397D01*
X746388Y39467D01*
X746367Y39535D01*
X746343Y39602D01*
X746315Y39668D01*
X746284Y39732D01*
X746249Y39795D01*
X746211Y39855D01*
X746170Y39914D01*
X746126Y39970D01*
X746079Y40024D01*
X746030Y40075D01*
X745977Y40123D01*
X745922Y40169D01*
X745865Y40211D01*
X745805Y40251D01*
X745744Y40287D01*
X745680Y40320D01*
X745615Y40349D01*
X745549Y40375D01*
X745481Y40398D01*
X745412Y40417D01*
X745342Y40432D01*
X745272Y40443D01*
X745201Y40451D01*
X745130Y40455D01*
X745058Y40455D01*
X744987Y40451D01*
X744916Y40443D01*
X744846Y40432D01*
X744776Y40417D01*
X744707Y40398D01*
X744639Y40375D01*
X744573Y40349D01*
X744508Y40320D01*
X744444Y40287D01*
X744383Y40251D01*
X744323Y40211D01*
X744266Y40169D01*
X744211Y40123D01*
X744158Y40075D01*
X744109Y40024D01*
X744062Y39970D01*
X744018Y39914D01*
X743977Y39855D01*
X743939Y39795D01*
X743904Y39732D01*
X743873Y39668D01*
X743845Y39602D01*
X743821Y39535D01*
X743800Y39467D01*
X743783Y39397D01*
X743770Y39327D01*
X743761Y39257D01*
X743755Y39185D01*
X743753Y39114D01*
X743754Y39114D02*
X743754Y37774D01*
X741609Y42931D02*
X741609Y44540D01*
X741611Y44605D01*
X741617Y44669D01*
X741627Y44733D01*
X741640Y44797D01*
X741658Y44859D01*
X741679Y44920D01*
X741703Y44980D01*
X741732Y45038D01*
X741764Y45095D01*
X741799Y45149D01*
X741837Y45201D01*
X741879Y45251D01*
X741923Y45298D01*
X741970Y45342D01*
X742020Y45384D01*
X742072Y45422D01*
X742126Y45457D01*
X742183Y45489D01*
X742241Y45518D01*
X742301Y45542D01*
X742362Y45563D01*
X742424Y45581D01*
X742488Y45594D01*
X742552Y45604D01*
X742616Y45610D01*
X742681Y45612D01*
X743218Y45612D01*
X743283Y45610D01*
X743347Y45604D01*
X743411Y45594D01*
X743475Y45581D01*
X743537Y45563D01*
X743598Y45542D01*
X743658Y45518D01*
X743716Y45489D01*
X743773Y45457D01*
X743827Y45422D01*
X743879Y45384D01*
X743929Y45342D01*
X743976Y45298D01*
X744020Y45251D01*
X744062Y45201D01*
X744100Y45149D01*
X744135Y45095D01*
X744167Y45038D01*
X744196Y44980D01*
X744220Y44920D01*
X744241Y44859D01*
X744259Y44797D01*
X744272Y44733D01*
X744282Y44669D01*
X744288Y44605D01*
X744290Y44540D01*
X744290Y42931D01*
X746435Y42931D01*
X746435Y45612D01*
X771637Y505747D02*
X775391Y505747D01*
X771637Y505746D02*
X771572Y505744D01*
X771508Y505738D01*
X771444Y505728D01*
X771380Y505715D01*
X771318Y505697D01*
X771257Y505676D01*
X771197Y505652D01*
X771139Y505623D01*
X771082Y505591D01*
X771028Y505556D01*
X770976Y505518D01*
X770926Y505476D01*
X770879Y505432D01*
X770835Y505385D01*
X770793Y505335D01*
X770755Y505283D01*
X770720Y505229D01*
X770688Y505172D01*
X770659Y505114D01*
X770635Y505054D01*
X770614Y504993D01*
X770596Y504931D01*
X770583Y504867D01*
X770573Y504803D01*
X770567Y504739D01*
X770565Y504674D01*
X770565Y504138D01*
X770565Y509024D02*
X775391Y509024D01*
X775391Y510364D01*
X775389Y510435D01*
X775383Y510507D01*
X775374Y510577D01*
X775361Y510647D01*
X775344Y510717D01*
X775323Y510785D01*
X775299Y510852D01*
X775271Y510918D01*
X775240Y510982D01*
X775205Y511045D01*
X775167Y511105D01*
X775126Y511164D01*
X775082Y511220D01*
X775035Y511274D01*
X774986Y511325D01*
X774933Y511373D01*
X774878Y511419D01*
X774821Y511461D01*
X774761Y511501D01*
X774700Y511537D01*
X774636Y511570D01*
X774571Y511599D01*
X774505Y511625D01*
X774437Y511648D01*
X774368Y511667D01*
X774298Y511682D01*
X774228Y511693D01*
X774157Y511701D01*
X774086Y511705D01*
X774014Y511705D01*
X773943Y511701D01*
X773872Y511693D01*
X773802Y511682D01*
X773732Y511667D01*
X773663Y511648D01*
X773595Y511625D01*
X773529Y511599D01*
X773464Y511570D01*
X773400Y511537D01*
X773339Y511501D01*
X773279Y511461D01*
X773222Y511419D01*
X773167Y511373D01*
X773114Y511325D01*
X773065Y511274D01*
X773018Y511220D01*
X772974Y511164D01*
X772933Y511105D01*
X772895Y511045D01*
X772860Y510982D01*
X772829Y510918D01*
X772801Y510852D01*
X772777Y510785D01*
X772756Y510717D01*
X772739Y510647D01*
X772726Y510577D01*
X772717Y510507D01*
X772711Y510435D01*
X772709Y510364D01*
X772710Y510364D02*
X772710Y509024D01*
X773246Y514181D02*
X773246Y515790D01*
X773244Y515855D01*
X773238Y515919D01*
X773228Y515983D01*
X773215Y516047D01*
X773197Y516109D01*
X773176Y516170D01*
X773152Y516230D01*
X773123Y516288D01*
X773091Y516345D01*
X773056Y516399D01*
X773018Y516451D01*
X772976Y516501D01*
X772932Y516548D01*
X772885Y516592D01*
X772835Y516634D01*
X772783Y516672D01*
X772729Y516707D01*
X772672Y516739D01*
X772614Y516768D01*
X772554Y516792D01*
X772493Y516813D01*
X772431Y516831D01*
X772367Y516844D01*
X772303Y516854D01*
X772239Y516860D01*
X772174Y516862D01*
X771906Y516862D01*
X771835Y516860D01*
X771763Y516854D01*
X771693Y516845D01*
X771623Y516832D01*
X771553Y516815D01*
X771485Y516794D01*
X771418Y516770D01*
X771352Y516742D01*
X771288Y516711D01*
X771225Y516676D01*
X771165Y516638D01*
X771106Y516597D01*
X771050Y516553D01*
X770996Y516506D01*
X770945Y516457D01*
X770897Y516404D01*
X770851Y516349D01*
X770809Y516292D01*
X770769Y516232D01*
X770733Y516171D01*
X770700Y516107D01*
X770671Y516042D01*
X770645Y515976D01*
X770622Y515908D01*
X770603Y515839D01*
X770588Y515769D01*
X770577Y515699D01*
X770569Y515628D01*
X770565Y515557D01*
X770565Y515485D01*
X770569Y515414D01*
X770577Y515343D01*
X770588Y515273D01*
X770603Y515203D01*
X770622Y515134D01*
X770645Y515066D01*
X770671Y515000D01*
X770700Y514935D01*
X770733Y514871D01*
X770769Y514810D01*
X770809Y514750D01*
X770851Y514693D01*
X770897Y514638D01*
X770945Y514585D01*
X770996Y514536D01*
X771050Y514489D01*
X771106Y514445D01*
X771165Y514404D01*
X771225Y514366D01*
X771288Y514331D01*
X771352Y514300D01*
X771418Y514272D01*
X771485Y514248D01*
X771553Y514227D01*
X771623Y514210D01*
X771693Y514197D01*
X771763Y514188D01*
X771835Y514182D01*
X771906Y514180D01*
X771906Y514181D02*
X773246Y514181D01*
X773337Y514183D01*
X773428Y514189D01*
X773518Y514198D01*
X773609Y514212D01*
X773698Y514229D01*
X773786Y514250D01*
X773874Y514275D01*
X773961Y514304D01*
X774046Y514336D01*
X774130Y514371D01*
X774212Y514411D01*
X774292Y514453D01*
X774371Y514499D01*
X774447Y514549D01*
X774521Y514601D01*
X774594Y514657D01*
X774663Y514716D01*
X774730Y514777D01*
X774795Y514842D01*
X774856Y514909D01*
X774915Y514978D01*
X774971Y515050D01*
X775023Y515125D01*
X775073Y515201D01*
X775119Y515280D01*
X775161Y515360D01*
X775201Y515442D01*
X775236Y515526D01*
X775268Y515611D01*
X775297Y515698D01*
X775322Y515785D01*
X775343Y515874D01*
X775360Y515963D01*
X775374Y516054D01*
X775383Y516144D01*
X775389Y516235D01*
X775391Y516326D01*
X822387Y505497D02*
X826141Y505497D01*
X822387Y505496D02*
X822322Y505494D01*
X822258Y505488D01*
X822194Y505478D01*
X822130Y505465D01*
X822068Y505447D01*
X822007Y505426D01*
X821947Y505402D01*
X821889Y505373D01*
X821832Y505341D01*
X821778Y505306D01*
X821726Y505268D01*
X821676Y505226D01*
X821629Y505182D01*
X821585Y505135D01*
X821543Y505085D01*
X821505Y505033D01*
X821470Y504979D01*
X821438Y504922D01*
X821409Y504864D01*
X821385Y504804D01*
X821364Y504743D01*
X821346Y504681D01*
X821333Y504617D01*
X821323Y504553D01*
X821317Y504489D01*
X821315Y504424D01*
X821315Y503888D01*
X821315Y508774D02*
X826141Y508774D01*
X826141Y510114D01*
X826139Y510185D01*
X826133Y510257D01*
X826124Y510327D01*
X826111Y510397D01*
X826094Y510467D01*
X826073Y510535D01*
X826049Y510602D01*
X826021Y510668D01*
X825990Y510732D01*
X825955Y510795D01*
X825917Y510855D01*
X825876Y510914D01*
X825832Y510970D01*
X825785Y511024D01*
X825736Y511075D01*
X825683Y511123D01*
X825628Y511169D01*
X825571Y511211D01*
X825511Y511251D01*
X825450Y511287D01*
X825386Y511320D01*
X825321Y511349D01*
X825255Y511375D01*
X825187Y511398D01*
X825118Y511417D01*
X825048Y511432D01*
X824978Y511443D01*
X824907Y511451D01*
X824836Y511455D01*
X824764Y511455D01*
X824693Y511451D01*
X824622Y511443D01*
X824552Y511432D01*
X824482Y511417D01*
X824413Y511398D01*
X824345Y511375D01*
X824279Y511349D01*
X824214Y511320D01*
X824150Y511287D01*
X824089Y511251D01*
X824029Y511211D01*
X823972Y511169D01*
X823917Y511123D01*
X823864Y511075D01*
X823815Y511024D01*
X823768Y510970D01*
X823724Y510914D01*
X823683Y510855D01*
X823645Y510795D01*
X823610Y510732D01*
X823579Y510668D01*
X823551Y510602D01*
X823527Y510535D01*
X823506Y510467D01*
X823489Y510397D01*
X823476Y510327D01*
X823467Y510257D01*
X823461Y510185D01*
X823459Y510114D01*
X823460Y510114D02*
X823460Y508774D01*
X825605Y513931D02*
X826141Y513931D01*
X826141Y516612D01*
X821315Y515271D01*
X873137Y505497D02*
X876891Y505497D01*
X873137Y505496D02*
X873072Y505494D01*
X873008Y505488D01*
X872944Y505478D01*
X872880Y505465D01*
X872818Y505447D01*
X872757Y505426D01*
X872697Y505402D01*
X872639Y505373D01*
X872582Y505341D01*
X872528Y505306D01*
X872476Y505268D01*
X872426Y505226D01*
X872379Y505182D01*
X872335Y505135D01*
X872293Y505085D01*
X872255Y505033D01*
X872220Y504979D01*
X872188Y504922D01*
X872159Y504864D01*
X872135Y504804D01*
X872114Y504743D01*
X872096Y504681D01*
X872083Y504617D01*
X872073Y504553D01*
X872067Y504489D01*
X872065Y504424D01*
X872065Y503888D01*
X872065Y508774D02*
X876891Y508774D01*
X876891Y510114D01*
X876889Y510185D01*
X876883Y510257D01*
X876874Y510327D01*
X876861Y510397D01*
X876844Y510467D01*
X876823Y510535D01*
X876799Y510602D01*
X876771Y510668D01*
X876740Y510732D01*
X876705Y510795D01*
X876667Y510855D01*
X876626Y510914D01*
X876582Y510970D01*
X876535Y511024D01*
X876486Y511075D01*
X876433Y511123D01*
X876378Y511169D01*
X876321Y511211D01*
X876261Y511251D01*
X876200Y511287D01*
X876136Y511320D01*
X876071Y511349D01*
X876005Y511375D01*
X875937Y511398D01*
X875868Y511417D01*
X875798Y511432D01*
X875728Y511443D01*
X875657Y511451D01*
X875586Y511455D01*
X875514Y511455D01*
X875443Y511451D01*
X875372Y511443D01*
X875302Y511432D01*
X875232Y511417D01*
X875163Y511398D01*
X875095Y511375D01*
X875029Y511349D01*
X874964Y511320D01*
X874900Y511287D01*
X874839Y511251D01*
X874779Y511211D01*
X874722Y511169D01*
X874667Y511123D01*
X874614Y511075D01*
X874565Y511024D01*
X874518Y510970D01*
X874474Y510914D01*
X874433Y510855D01*
X874395Y510795D01*
X874360Y510732D01*
X874329Y510668D01*
X874301Y510602D01*
X874277Y510535D01*
X874256Y510467D01*
X874239Y510397D01*
X874226Y510327D01*
X874217Y510257D01*
X874211Y510185D01*
X874209Y510114D01*
X874210Y510114D02*
X874210Y508774D01*
X873406Y513930D02*
X873477Y513932D01*
X873549Y513938D01*
X873619Y513947D01*
X873689Y513960D01*
X873759Y513977D01*
X873827Y513998D01*
X873894Y514022D01*
X873960Y514050D01*
X874024Y514081D01*
X874087Y514116D01*
X874147Y514154D01*
X874206Y514195D01*
X874262Y514239D01*
X874316Y514286D01*
X874367Y514335D01*
X874415Y514388D01*
X874461Y514443D01*
X874503Y514500D01*
X874543Y514560D01*
X874579Y514621D01*
X874612Y514685D01*
X874641Y514750D01*
X874667Y514816D01*
X874690Y514884D01*
X874709Y514953D01*
X874724Y515023D01*
X874735Y515093D01*
X874743Y515164D01*
X874747Y515235D01*
X874747Y515307D01*
X874743Y515378D01*
X874735Y515449D01*
X874724Y515519D01*
X874709Y515589D01*
X874690Y515658D01*
X874667Y515726D01*
X874641Y515792D01*
X874612Y515857D01*
X874579Y515921D01*
X874543Y515982D01*
X874503Y516042D01*
X874461Y516099D01*
X874415Y516154D01*
X874367Y516207D01*
X874316Y516256D01*
X874262Y516303D01*
X874206Y516347D01*
X874147Y516388D01*
X874087Y516426D01*
X874024Y516461D01*
X873960Y516492D01*
X873894Y516520D01*
X873827Y516544D01*
X873759Y516565D01*
X873689Y516582D01*
X873619Y516595D01*
X873549Y516604D01*
X873477Y516610D01*
X873406Y516612D01*
X873335Y516610D01*
X873263Y516604D01*
X873193Y516595D01*
X873123Y516582D01*
X873053Y516565D01*
X872985Y516544D01*
X872918Y516520D01*
X872852Y516492D01*
X872788Y516461D01*
X872725Y516426D01*
X872665Y516388D01*
X872606Y516347D01*
X872550Y516303D01*
X872496Y516256D01*
X872445Y516207D01*
X872397Y516154D01*
X872351Y516099D01*
X872309Y516042D01*
X872269Y515982D01*
X872233Y515921D01*
X872200Y515857D01*
X872171Y515792D01*
X872145Y515726D01*
X872122Y515658D01*
X872103Y515589D01*
X872088Y515519D01*
X872077Y515449D01*
X872069Y515378D01*
X872065Y515307D01*
X872065Y515235D01*
X872069Y515164D01*
X872077Y515093D01*
X872088Y515023D01*
X872103Y514953D01*
X872122Y514884D01*
X872145Y514816D01*
X872171Y514750D01*
X872200Y514685D01*
X872233Y514621D01*
X872269Y514560D01*
X872309Y514500D01*
X872351Y514443D01*
X872397Y514388D01*
X872445Y514335D01*
X872496Y514286D01*
X872550Y514239D01*
X872606Y514195D01*
X872665Y514154D01*
X872725Y514116D01*
X872788Y514081D01*
X872852Y514050D01*
X872918Y514022D01*
X872985Y513998D01*
X873053Y513977D01*
X873123Y513960D01*
X873193Y513947D01*
X873263Y513938D01*
X873335Y513932D01*
X873406Y513930D01*
X875819Y514199D02*
X875884Y514201D01*
X875948Y514207D01*
X876012Y514217D01*
X876076Y514230D01*
X876138Y514248D01*
X876199Y514269D01*
X876259Y514293D01*
X876317Y514322D01*
X876374Y514354D01*
X876428Y514389D01*
X876480Y514427D01*
X876530Y514469D01*
X876577Y514513D01*
X876621Y514560D01*
X876663Y514610D01*
X876701Y514662D01*
X876736Y514716D01*
X876768Y514773D01*
X876797Y514831D01*
X876821Y514891D01*
X876842Y514952D01*
X876860Y515014D01*
X876873Y515078D01*
X876883Y515142D01*
X876889Y515206D01*
X876891Y515271D01*
X876889Y515336D01*
X876883Y515400D01*
X876873Y515464D01*
X876860Y515528D01*
X876842Y515590D01*
X876821Y515651D01*
X876797Y515711D01*
X876768Y515769D01*
X876736Y515826D01*
X876701Y515880D01*
X876663Y515932D01*
X876621Y515982D01*
X876577Y516029D01*
X876530Y516073D01*
X876480Y516115D01*
X876428Y516153D01*
X876374Y516188D01*
X876317Y516220D01*
X876259Y516249D01*
X876199Y516273D01*
X876138Y516294D01*
X876076Y516312D01*
X876012Y516325D01*
X875948Y516335D01*
X875884Y516341D01*
X875819Y516343D01*
X875754Y516341D01*
X875690Y516335D01*
X875626Y516325D01*
X875562Y516312D01*
X875500Y516294D01*
X875439Y516273D01*
X875379Y516249D01*
X875321Y516220D01*
X875264Y516188D01*
X875210Y516153D01*
X875158Y516115D01*
X875108Y516073D01*
X875061Y516029D01*
X875017Y515982D01*
X874975Y515932D01*
X874937Y515880D01*
X874902Y515826D01*
X874870Y515769D01*
X874841Y515711D01*
X874817Y515651D01*
X874796Y515590D01*
X874778Y515528D01*
X874765Y515464D01*
X874755Y515400D01*
X874749Y515336D01*
X874747Y515271D01*
X874749Y515206D01*
X874755Y515142D01*
X874765Y515078D01*
X874778Y515014D01*
X874796Y514952D01*
X874817Y514891D01*
X874841Y514831D01*
X874870Y514773D01*
X874902Y514716D01*
X874937Y514662D01*
X874975Y514610D01*
X875017Y514560D01*
X875061Y514513D01*
X875108Y514469D01*
X875158Y514427D01*
X875210Y514389D01*
X875264Y514354D01*
X875321Y514322D01*
X875379Y514293D01*
X875439Y514269D01*
X875500Y514248D01*
X875562Y514230D01*
X875626Y514217D01*
X875690Y514207D01*
X875754Y514201D01*
X875819Y514199D01*
X923887Y505497D02*
X927641Y505497D01*
X923887Y505496D02*
X923822Y505494D01*
X923758Y505488D01*
X923694Y505478D01*
X923630Y505465D01*
X923568Y505447D01*
X923507Y505426D01*
X923447Y505402D01*
X923389Y505373D01*
X923332Y505341D01*
X923278Y505306D01*
X923226Y505268D01*
X923176Y505226D01*
X923129Y505182D01*
X923085Y505135D01*
X923043Y505085D01*
X923005Y505033D01*
X922970Y504979D01*
X922938Y504922D01*
X922909Y504864D01*
X922885Y504804D01*
X922864Y504743D01*
X922846Y504681D01*
X922833Y504617D01*
X922823Y504553D01*
X922817Y504489D01*
X922815Y504424D01*
X922815Y503888D01*
X922815Y508774D02*
X927641Y508774D01*
X927641Y510114D01*
X927639Y510185D01*
X927633Y510257D01*
X927624Y510327D01*
X927611Y510397D01*
X927594Y510467D01*
X927573Y510535D01*
X927549Y510602D01*
X927521Y510668D01*
X927490Y510732D01*
X927455Y510795D01*
X927417Y510855D01*
X927376Y510914D01*
X927332Y510970D01*
X927285Y511024D01*
X927236Y511075D01*
X927183Y511123D01*
X927128Y511169D01*
X927071Y511211D01*
X927011Y511251D01*
X926950Y511287D01*
X926886Y511320D01*
X926821Y511349D01*
X926755Y511375D01*
X926687Y511398D01*
X926618Y511417D01*
X926548Y511432D01*
X926478Y511443D01*
X926407Y511451D01*
X926336Y511455D01*
X926264Y511455D01*
X926193Y511451D01*
X926122Y511443D01*
X926052Y511432D01*
X925982Y511417D01*
X925913Y511398D01*
X925845Y511375D01*
X925779Y511349D01*
X925714Y511320D01*
X925650Y511287D01*
X925589Y511251D01*
X925529Y511211D01*
X925472Y511169D01*
X925417Y511123D01*
X925364Y511075D01*
X925315Y511024D01*
X925268Y510970D01*
X925224Y510914D01*
X925183Y510855D01*
X925145Y510795D01*
X925110Y510732D01*
X925079Y510668D01*
X925051Y510602D01*
X925027Y510535D01*
X925006Y510467D01*
X924989Y510397D01*
X924976Y510327D01*
X924967Y510257D01*
X924961Y510185D01*
X924959Y510114D01*
X924960Y510114D02*
X924960Y508774D01*
X924960Y515003D02*
X924960Y516612D01*
X924960Y515003D02*
X924962Y514938D01*
X924968Y514874D01*
X924978Y514810D01*
X924991Y514746D01*
X925009Y514684D01*
X925030Y514623D01*
X925054Y514563D01*
X925083Y514505D01*
X925115Y514448D01*
X925150Y514394D01*
X925188Y514342D01*
X925230Y514292D01*
X925274Y514245D01*
X925321Y514201D01*
X925371Y514159D01*
X925423Y514121D01*
X925477Y514086D01*
X925534Y514054D01*
X925592Y514025D01*
X925652Y514001D01*
X925713Y513980D01*
X925775Y513962D01*
X925839Y513949D01*
X925903Y513939D01*
X925967Y513933D01*
X926032Y513931D01*
X926300Y513931D01*
X926300Y513930D02*
X926371Y513932D01*
X926443Y513938D01*
X926513Y513947D01*
X926583Y513960D01*
X926653Y513977D01*
X926721Y513998D01*
X926788Y514022D01*
X926854Y514050D01*
X926918Y514081D01*
X926981Y514116D01*
X927041Y514154D01*
X927100Y514195D01*
X927156Y514239D01*
X927210Y514286D01*
X927261Y514335D01*
X927309Y514388D01*
X927355Y514443D01*
X927397Y514500D01*
X927437Y514560D01*
X927473Y514621D01*
X927506Y514685D01*
X927535Y514750D01*
X927561Y514816D01*
X927584Y514884D01*
X927603Y514953D01*
X927618Y515023D01*
X927629Y515093D01*
X927637Y515164D01*
X927641Y515235D01*
X927641Y515307D01*
X927637Y515378D01*
X927629Y515449D01*
X927618Y515519D01*
X927603Y515589D01*
X927584Y515658D01*
X927561Y515726D01*
X927535Y515792D01*
X927506Y515857D01*
X927473Y515921D01*
X927437Y515982D01*
X927397Y516042D01*
X927355Y516099D01*
X927309Y516154D01*
X927261Y516207D01*
X927210Y516256D01*
X927156Y516303D01*
X927100Y516347D01*
X927041Y516388D01*
X926981Y516426D01*
X926918Y516461D01*
X926854Y516492D01*
X926788Y516520D01*
X926721Y516544D01*
X926653Y516565D01*
X926583Y516582D01*
X926513Y516595D01*
X926443Y516604D01*
X926371Y516610D01*
X926300Y516612D01*
X924960Y516612D01*
X924869Y516610D01*
X924778Y516604D01*
X924688Y516595D01*
X924597Y516581D01*
X924508Y516564D01*
X924420Y516543D01*
X924332Y516518D01*
X924245Y516489D01*
X924160Y516457D01*
X924076Y516422D01*
X923994Y516382D01*
X923914Y516340D01*
X923835Y516294D01*
X923759Y516244D01*
X923685Y516192D01*
X923612Y516136D01*
X923543Y516077D01*
X923476Y516016D01*
X923411Y515951D01*
X923350Y515884D01*
X923291Y515815D01*
X923235Y515742D01*
X923183Y515668D01*
X923133Y515592D01*
X923087Y515513D01*
X923045Y515433D01*
X923005Y515351D01*
X922970Y515267D01*
X922938Y515182D01*
X922909Y515095D01*
X922884Y515007D01*
X922863Y514919D01*
X922846Y514830D01*
X922832Y514739D01*
X922823Y514649D01*
X922817Y514558D01*
X922815Y514467D01*
X945681Y32003D02*
X949435Y32003D01*
X945681Y32003D02*
X945616Y32001D01*
X945552Y31995D01*
X945488Y31985D01*
X945424Y31972D01*
X945362Y31954D01*
X945301Y31933D01*
X945241Y31909D01*
X945183Y31880D01*
X945126Y31848D01*
X945072Y31813D01*
X945020Y31775D01*
X944970Y31733D01*
X944923Y31689D01*
X944879Y31642D01*
X944837Y31592D01*
X944799Y31540D01*
X944764Y31486D01*
X944732Y31429D01*
X944703Y31371D01*
X944679Y31311D01*
X944658Y31250D01*
X944640Y31188D01*
X944627Y31124D01*
X944617Y31060D01*
X944611Y30996D01*
X944609Y30931D01*
X944609Y30395D01*
X944609Y35281D02*
X949435Y35281D01*
X949435Y36621D01*
X949433Y36692D01*
X949427Y36764D01*
X949418Y36834D01*
X949405Y36904D01*
X949388Y36974D01*
X949367Y37042D01*
X949343Y37109D01*
X949315Y37175D01*
X949284Y37239D01*
X949249Y37302D01*
X949211Y37362D01*
X949170Y37421D01*
X949126Y37477D01*
X949079Y37531D01*
X949030Y37582D01*
X948977Y37630D01*
X948922Y37676D01*
X948865Y37718D01*
X948805Y37758D01*
X948744Y37794D01*
X948680Y37827D01*
X948615Y37856D01*
X948549Y37882D01*
X948481Y37905D01*
X948412Y37924D01*
X948342Y37939D01*
X948272Y37950D01*
X948201Y37958D01*
X948130Y37962D01*
X948058Y37962D01*
X947987Y37958D01*
X947916Y37950D01*
X947846Y37939D01*
X947776Y37924D01*
X947707Y37905D01*
X947639Y37882D01*
X947573Y37856D01*
X947508Y37827D01*
X947444Y37794D01*
X947383Y37758D01*
X947323Y37718D01*
X947266Y37676D01*
X947211Y37630D01*
X947158Y37582D01*
X947109Y37531D01*
X947062Y37477D01*
X947018Y37421D01*
X946977Y37362D01*
X946939Y37302D01*
X946904Y37239D01*
X946873Y37175D01*
X946845Y37109D01*
X946821Y37042D01*
X946800Y36974D01*
X946783Y36904D01*
X946770Y36834D01*
X946761Y36764D01*
X946755Y36692D01*
X946753Y36621D01*
X946754Y36621D02*
X946754Y35281D01*
X948363Y40438D02*
X949435Y41778D01*
X944609Y41778D01*
X944609Y40438D02*
X944609Y43119D01*
X947022Y45924D02*
X947142Y45926D01*
X947262Y45931D01*
X947382Y45940D01*
X947502Y45953D01*
X947621Y45969D01*
X947740Y45989D01*
X947858Y46013D01*
X947975Y46040D01*
X948091Y46070D01*
X948206Y46104D01*
X948321Y46142D01*
X948434Y46183D01*
X948545Y46227D01*
X948656Y46275D01*
X948765Y46326D01*
X948765Y46327D02*
X948822Y46348D01*
X948878Y46374D01*
X948933Y46402D01*
X948985Y46434D01*
X949036Y46470D01*
X949084Y46508D01*
X949130Y46549D01*
X949173Y46593D01*
X949213Y46639D01*
X949250Y46688D01*
X949284Y46740D01*
X949315Y46793D01*
X949343Y46848D01*
X949367Y46904D01*
X949388Y46962D01*
X949405Y47021D01*
X949418Y47081D01*
X949427Y47142D01*
X949433Y47204D01*
X949435Y47265D01*
X949433Y47326D01*
X949427Y47388D01*
X949418Y47449D01*
X949405Y47509D01*
X949388Y47568D01*
X949367Y47626D01*
X949343Y47682D01*
X949315Y47737D01*
X949284Y47790D01*
X949250Y47842D01*
X949213Y47891D01*
X949173Y47937D01*
X949130Y47981D01*
X949084Y48022D01*
X949036Y48060D01*
X948985Y48096D01*
X948933Y48128D01*
X948878Y48156D01*
X948822Y48182D01*
X948765Y48203D01*
X948656Y48254D01*
X948545Y48302D01*
X948434Y48346D01*
X948321Y48387D01*
X948206Y48425D01*
X948091Y48459D01*
X947975Y48489D01*
X947858Y48516D01*
X947740Y48540D01*
X947621Y48560D01*
X947502Y48576D01*
X947382Y48589D01*
X947262Y48598D01*
X947142Y48603D01*
X947022Y48605D01*
X947022Y45924D02*
X946902Y45926D01*
X946782Y45931D01*
X946662Y45940D01*
X946542Y45953D01*
X946423Y45969D01*
X946304Y45989D01*
X946186Y46013D01*
X946069Y46040D01*
X945953Y46070D01*
X945838Y46104D01*
X945723Y46142D01*
X945610Y46183D01*
X945499Y46227D01*
X945388Y46275D01*
X945279Y46326D01*
X945279Y46327D02*
X945222Y46348D01*
X945166Y46374D01*
X945111Y46402D01*
X945059Y46434D01*
X945008Y46470D01*
X944960Y46508D01*
X944914Y46549D01*
X944871Y46593D01*
X944831Y46639D01*
X944794Y46688D01*
X944760Y46740D01*
X944729Y46793D01*
X944701Y46848D01*
X944677Y46904D01*
X944656Y46962D01*
X944639Y47021D01*
X944626Y47081D01*
X944617Y47142D01*
X944611Y47204D01*
X944609Y47265D01*
X945279Y48203D02*
X945388Y48254D01*
X945499Y48302D01*
X945610Y48346D01*
X945723Y48387D01*
X945838Y48425D01*
X945953Y48459D01*
X946069Y48489D01*
X946186Y48516D01*
X946304Y48540D01*
X946423Y48560D01*
X946542Y48576D01*
X946662Y48589D01*
X946782Y48598D01*
X946902Y48603D01*
X947022Y48605D01*
X945279Y48203D02*
X945222Y48182D01*
X945166Y48156D01*
X945111Y48128D01*
X945059Y48096D01*
X945008Y48060D01*
X944960Y48022D01*
X944914Y47981D01*
X944871Y47937D01*
X944831Y47890D01*
X944794Y47842D01*
X944760Y47790D01*
X944729Y47737D01*
X944701Y47682D01*
X944677Y47626D01*
X944656Y47568D01*
X944639Y47509D01*
X944626Y47449D01*
X944617Y47388D01*
X944611Y47326D01*
X944609Y47265D01*
X945681Y46192D02*
X948363Y48337D01*
X537935Y32503D02*
X534181Y32503D01*
X534116Y32501D01*
X534052Y32495D01*
X533988Y32485D01*
X533924Y32472D01*
X533862Y32454D01*
X533801Y32433D01*
X533741Y32409D01*
X533683Y32380D01*
X533626Y32348D01*
X533572Y32313D01*
X533520Y32275D01*
X533470Y32233D01*
X533423Y32189D01*
X533379Y32142D01*
X533337Y32092D01*
X533299Y32040D01*
X533264Y31986D01*
X533232Y31929D01*
X533203Y31871D01*
X533179Y31811D01*
X533158Y31750D01*
X533140Y31688D01*
X533127Y31624D01*
X533117Y31560D01*
X533111Y31496D01*
X533109Y31431D01*
X533109Y30895D01*
X533109Y35781D02*
X537935Y35781D01*
X537935Y37121D01*
X537933Y37192D01*
X537927Y37264D01*
X537918Y37334D01*
X537905Y37404D01*
X537888Y37474D01*
X537867Y37542D01*
X537843Y37609D01*
X537815Y37675D01*
X537784Y37739D01*
X537749Y37802D01*
X537711Y37862D01*
X537670Y37921D01*
X537626Y37977D01*
X537579Y38031D01*
X537530Y38082D01*
X537477Y38130D01*
X537422Y38176D01*
X537365Y38218D01*
X537305Y38258D01*
X537244Y38294D01*
X537180Y38327D01*
X537115Y38356D01*
X537049Y38382D01*
X536981Y38405D01*
X536912Y38424D01*
X536842Y38439D01*
X536772Y38450D01*
X536701Y38458D01*
X536630Y38462D01*
X536558Y38462D01*
X536487Y38458D01*
X536416Y38450D01*
X536346Y38439D01*
X536276Y38424D01*
X536207Y38405D01*
X536139Y38382D01*
X536073Y38356D01*
X536008Y38327D01*
X535944Y38294D01*
X535883Y38258D01*
X535823Y38218D01*
X535766Y38176D01*
X535711Y38130D01*
X535658Y38082D01*
X535609Y38031D01*
X535562Y37977D01*
X535518Y37921D01*
X535477Y37862D01*
X535439Y37802D01*
X535404Y37739D01*
X535373Y37675D01*
X535345Y37609D01*
X535321Y37542D01*
X535300Y37474D01*
X535283Y37404D01*
X535270Y37334D01*
X535261Y37264D01*
X535255Y37192D01*
X535253Y37121D01*
X535254Y37121D02*
X535254Y35781D01*
X536863Y40938D02*
X537935Y42278D01*
X533109Y42278D01*
X533109Y40938D02*
X533109Y43619D01*
X536863Y46424D02*
X537935Y47765D01*
X533109Y47765D01*
X533109Y49105D02*
X533109Y46424D01*
X487685Y32503D02*
X483931Y32503D01*
X483866Y32501D01*
X483802Y32495D01*
X483738Y32485D01*
X483674Y32472D01*
X483612Y32454D01*
X483551Y32433D01*
X483491Y32409D01*
X483433Y32380D01*
X483376Y32348D01*
X483322Y32313D01*
X483270Y32275D01*
X483220Y32233D01*
X483173Y32189D01*
X483129Y32142D01*
X483087Y32092D01*
X483049Y32040D01*
X483014Y31986D01*
X482982Y31929D01*
X482953Y31871D01*
X482929Y31811D01*
X482908Y31750D01*
X482890Y31688D01*
X482877Y31624D01*
X482867Y31560D01*
X482861Y31496D01*
X482859Y31431D01*
X482859Y30895D01*
X482859Y35781D02*
X487685Y35781D01*
X487685Y37121D01*
X487683Y37192D01*
X487677Y37264D01*
X487668Y37334D01*
X487655Y37404D01*
X487638Y37474D01*
X487617Y37542D01*
X487593Y37609D01*
X487565Y37675D01*
X487534Y37739D01*
X487499Y37802D01*
X487461Y37862D01*
X487420Y37921D01*
X487376Y37977D01*
X487329Y38031D01*
X487280Y38082D01*
X487227Y38130D01*
X487172Y38176D01*
X487115Y38218D01*
X487055Y38258D01*
X486994Y38294D01*
X486930Y38327D01*
X486865Y38356D01*
X486799Y38382D01*
X486731Y38405D01*
X486662Y38424D01*
X486592Y38439D01*
X486522Y38450D01*
X486451Y38458D01*
X486380Y38462D01*
X486308Y38462D01*
X486237Y38458D01*
X486166Y38450D01*
X486096Y38439D01*
X486026Y38424D01*
X485957Y38405D01*
X485889Y38382D01*
X485823Y38356D01*
X485758Y38327D01*
X485694Y38294D01*
X485633Y38258D01*
X485573Y38218D01*
X485516Y38176D01*
X485461Y38130D01*
X485408Y38082D01*
X485359Y38031D01*
X485312Y37977D01*
X485268Y37921D01*
X485227Y37862D01*
X485189Y37802D01*
X485154Y37739D01*
X485123Y37675D01*
X485095Y37609D01*
X485071Y37542D01*
X485050Y37474D01*
X485033Y37404D01*
X485020Y37334D01*
X485011Y37264D01*
X485005Y37192D01*
X485003Y37121D01*
X485004Y37121D02*
X485004Y35781D01*
X486613Y40938D02*
X487685Y42278D01*
X482859Y42278D01*
X482859Y40938D02*
X482859Y43619D01*
X487685Y47899D02*
X487683Y47967D01*
X487677Y48034D01*
X487668Y48101D01*
X487655Y48168D01*
X487638Y48233D01*
X487617Y48298D01*
X487593Y48361D01*
X487565Y48423D01*
X487534Y48483D01*
X487500Y48541D01*
X487462Y48597D01*
X487422Y48652D01*
X487378Y48703D01*
X487331Y48752D01*
X487282Y48799D01*
X487231Y48843D01*
X487176Y48883D01*
X487120Y48921D01*
X487062Y48955D01*
X487002Y48986D01*
X486940Y49014D01*
X486877Y49038D01*
X486812Y49059D01*
X486747Y49076D01*
X486680Y49089D01*
X486613Y49098D01*
X486546Y49104D01*
X486478Y49106D01*
X487685Y47899D02*
X487683Y47821D01*
X487677Y47743D01*
X487667Y47666D01*
X487654Y47589D01*
X487636Y47513D01*
X487615Y47438D01*
X487590Y47364D01*
X487561Y47292D01*
X487529Y47221D01*
X487493Y47152D01*
X487454Y47084D01*
X487411Y47019D01*
X487365Y46956D01*
X487316Y46895D01*
X487264Y46837D01*
X487209Y46782D01*
X487152Y46729D01*
X487092Y46680D01*
X487029Y46633D01*
X486964Y46590D01*
X486898Y46550D01*
X486829Y46513D01*
X486758Y46480D01*
X486686Y46450D01*
X486613Y46424D01*
X485540Y48703D02*
X485589Y48752D01*
X485641Y48799D01*
X485696Y48842D01*
X485753Y48883D01*
X485812Y48921D01*
X485873Y48955D01*
X485936Y48986D01*
X486000Y49014D01*
X486066Y49038D01*
X486132Y49058D01*
X486200Y49075D01*
X486269Y49088D01*
X486338Y49097D01*
X486408Y49103D01*
X486478Y49105D01*
X485540Y48703D02*
X482859Y46424D01*
X482859Y49105D01*
X436935Y32253D02*
X433181Y32253D01*
X433116Y32251D01*
X433052Y32245D01*
X432988Y32235D01*
X432924Y32222D01*
X432862Y32204D01*
X432801Y32183D01*
X432741Y32159D01*
X432683Y32130D01*
X432626Y32098D01*
X432572Y32063D01*
X432520Y32025D01*
X432470Y31983D01*
X432423Y31939D01*
X432379Y31892D01*
X432337Y31842D01*
X432299Y31790D01*
X432264Y31736D01*
X432232Y31679D01*
X432203Y31621D01*
X432179Y31561D01*
X432158Y31500D01*
X432140Y31438D01*
X432127Y31374D01*
X432117Y31310D01*
X432111Y31246D01*
X432109Y31181D01*
X432109Y30645D01*
X432109Y35531D02*
X436935Y35531D01*
X436935Y36871D01*
X436933Y36942D01*
X436927Y37014D01*
X436918Y37084D01*
X436905Y37154D01*
X436888Y37224D01*
X436867Y37292D01*
X436843Y37359D01*
X436815Y37425D01*
X436784Y37489D01*
X436749Y37552D01*
X436711Y37612D01*
X436670Y37671D01*
X436626Y37727D01*
X436579Y37781D01*
X436530Y37832D01*
X436477Y37880D01*
X436422Y37926D01*
X436365Y37968D01*
X436305Y38008D01*
X436244Y38044D01*
X436180Y38077D01*
X436115Y38106D01*
X436049Y38132D01*
X435981Y38155D01*
X435912Y38174D01*
X435842Y38189D01*
X435772Y38200D01*
X435701Y38208D01*
X435630Y38212D01*
X435558Y38212D01*
X435487Y38208D01*
X435416Y38200D01*
X435346Y38189D01*
X435276Y38174D01*
X435207Y38155D01*
X435139Y38132D01*
X435073Y38106D01*
X435008Y38077D01*
X434944Y38044D01*
X434883Y38008D01*
X434823Y37968D01*
X434766Y37926D01*
X434711Y37880D01*
X434658Y37832D01*
X434609Y37781D01*
X434562Y37727D01*
X434518Y37671D01*
X434477Y37612D01*
X434439Y37552D01*
X434404Y37489D01*
X434373Y37425D01*
X434345Y37359D01*
X434321Y37292D01*
X434300Y37224D01*
X434283Y37154D01*
X434270Y37084D01*
X434261Y37014D01*
X434255Y36942D01*
X434253Y36871D01*
X434254Y36871D02*
X434254Y35531D01*
X435863Y40688D02*
X436935Y42028D01*
X432109Y42028D01*
X432109Y40688D02*
X432109Y43369D01*
X432109Y46174D02*
X432109Y47515D01*
X432111Y47586D01*
X432117Y47658D01*
X432126Y47728D01*
X432139Y47798D01*
X432156Y47868D01*
X432177Y47936D01*
X432201Y48003D01*
X432229Y48069D01*
X432260Y48133D01*
X432295Y48196D01*
X432333Y48256D01*
X432374Y48315D01*
X432418Y48371D01*
X432465Y48425D01*
X432514Y48476D01*
X432567Y48524D01*
X432622Y48570D01*
X432679Y48612D01*
X432739Y48652D01*
X432800Y48688D01*
X432864Y48721D01*
X432929Y48750D01*
X432995Y48776D01*
X433063Y48799D01*
X433132Y48818D01*
X433202Y48833D01*
X433272Y48844D01*
X433343Y48852D01*
X433414Y48856D01*
X433486Y48856D01*
X433557Y48852D01*
X433628Y48844D01*
X433698Y48833D01*
X433768Y48818D01*
X433837Y48799D01*
X433905Y48776D01*
X433971Y48750D01*
X434036Y48721D01*
X434100Y48688D01*
X434161Y48652D01*
X434221Y48612D01*
X434278Y48570D01*
X434333Y48524D01*
X434386Y48476D01*
X434435Y48425D01*
X434482Y48371D01*
X434526Y48315D01*
X434567Y48256D01*
X434605Y48196D01*
X434640Y48133D01*
X434671Y48069D01*
X434699Y48003D01*
X434723Y47936D01*
X434744Y47868D01*
X434761Y47798D01*
X434774Y47728D01*
X434783Y47658D01*
X434789Y47586D01*
X434791Y47515D01*
X436935Y47783D02*
X436935Y46174D01*
X436935Y47783D02*
X436933Y47848D01*
X436927Y47912D01*
X436917Y47976D01*
X436904Y48040D01*
X436886Y48102D01*
X436865Y48163D01*
X436841Y48223D01*
X436812Y48281D01*
X436780Y48338D01*
X436745Y48392D01*
X436707Y48444D01*
X436665Y48494D01*
X436621Y48541D01*
X436574Y48585D01*
X436524Y48627D01*
X436472Y48665D01*
X436418Y48700D01*
X436361Y48732D01*
X436303Y48761D01*
X436243Y48785D01*
X436182Y48806D01*
X436120Y48824D01*
X436056Y48837D01*
X435992Y48847D01*
X435928Y48853D01*
X435863Y48855D01*
X435798Y48853D01*
X435734Y48847D01*
X435670Y48837D01*
X435606Y48824D01*
X435544Y48806D01*
X435483Y48785D01*
X435423Y48761D01*
X435365Y48732D01*
X435308Y48700D01*
X435254Y48665D01*
X435202Y48627D01*
X435152Y48585D01*
X435105Y48541D01*
X435061Y48494D01*
X435019Y48444D01*
X434981Y48392D01*
X434946Y48338D01*
X434914Y48281D01*
X434885Y48223D01*
X434861Y48163D01*
X434840Y48102D01*
X434822Y48040D01*
X434809Y47976D01*
X434799Y47912D01*
X434793Y47848D01*
X434791Y47783D01*
X434790Y47783D02*
X434790Y46710D01*
X386185Y32503D02*
X382431Y32503D01*
X382366Y32501D01*
X382302Y32495D01*
X382238Y32485D01*
X382174Y32472D01*
X382112Y32454D01*
X382051Y32433D01*
X381991Y32409D01*
X381933Y32380D01*
X381876Y32348D01*
X381822Y32313D01*
X381770Y32275D01*
X381720Y32233D01*
X381673Y32189D01*
X381629Y32142D01*
X381587Y32092D01*
X381549Y32040D01*
X381514Y31986D01*
X381482Y31929D01*
X381453Y31871D01*
X381429Y31811D01*
X381408Y31750D01*
X381390Y31688D01*
X381377Y31624D01*
X381367Y31560D01*
X381361Y31496D01*
X381359Y31431D01*
X381359Y30895D01*
X381359Y35781D02*
X386185Y35781D01*
X386185Y37121D01*
X386183Y37192D01*
X386177Y37264D01*
X386168Y37334D01*
X386155Y37404D01*
X386138Y37474D01*
X386117Y37542D01*
X386093Y37609D01*
X386065Y37675D01*
X386034Y37739D01*
X385999Y37802D01*
X385961Y37862D01*
X385920Y37921D01*
X385876Y37977D01*
X385829Y38031D01*
X385780Y38082D01*
X385727Y38130D01*
X385672Y38176D01*
X385615Y38218D01*
X385555Y38258D01*
X385494Y38294D01*
X385430Y38327D01*
X385365Y38356D01*
X385299Y38382D01*
X385231Y38405D01*
X385162Y38424D01*
X385092Y38439D01*
X385022Y38450D01*
X384951Y38458D01*
X384880Y38462D01*
X384808Y38462D01*
X384737Y38458D01*
X384666Y38450D01*
X384596Y38439D01*
X384526Y38424D01*
X384457Y38405D01*
X384389Y38382D01*
X384323Y38356D01*
X384258Y38327D01*
X384194Y38294D01*
X384133Y38258D01*
X384073Y38218D01*
X384016Y38176D01*
X383961Y38130D01*
X383908Y38082D01*
X383859Y38031D01*
X383812Y37977D01*
X383768Y37921D01*
X383727Y37862D01*
X383689Y37802D01*
X383654Y37739D01*
X383623Y37675D01*
X383595Y37609D01*
X383571Y37542D01*
X383550Y37474D01*
X383533Y37404D01*
X383520Y37334D01*
X383511Y37264D01*
X383505Y37192D01*
X383503Y37121D01*
X383504Y37121D02*
X383504Y35781D01*
X385113Y40938D02*
X386185Y42278D01*
X381359Y42278D01*
X381359Y40938D02*
X381359Y43619D01*
X382431Y46424D02*
X386185Y47497D01*
X382431Y46424D02*
X382431Y49105D01*
X383504Y48301D02*
X381359Y48301D01*
X411387Y503003D02*
X415141Y503003D01*
X411387Y503003D02*
X411322Y503001D01*
X411258Y502995D01*
X411194Y502985D01*
X411130Y502972D01*
X411068Y502954D01*
X411007Y502933D01*
X410947Y502909D01*
X410889Y502880D01*
X410832Y502848D01*
X410778Y502813D01*
X410726Y502775D01*
X410676Y502733D01*
X410629Y502689D01*
X410585Y502642D01*
X410543Y502592D01*
X410505Y502540D01*
X410470Y502486D01*
X410438Y502429D01*
X410409Y502371D01*
X410385Y502311D01*
X410364Y502250D01*
X410346Y502188D01*
X410333Y502124D01*
X410323Y502060D01*
X410317Y501996D01*
X410315Y501931D01*
X410315Y501395D01*
X410315Y506281D02*
X415141Y506281D01*
X415141Y507621D01*
X415139Y507692D01*
X415133Y507764D01*
X415124Y507834D01*
X415111Y507904D01*
X415094Y507974D01*
X415073Y508042D01*
X415049Y508109D01*
X415021Y508175D01*
X414990Y508239D01*
X414955Y508302D01*
X414917Y508362D01*
X414876Y508421D01*
X414832Y508477D01*
X414785Y508531D01*
X414736Y508582D01*
X414683Y508630D01*
X414628Y508676D01*
X414571Y508718D01*
X414511Y508758D01*
X414450Y508794D01*
X414386Y508827D01*
X414321Y508856D01*
X414255Y508882D01*
X414187Y508905D01*
X414118Y508924D01*
X414048Y508939D01*
X413978Y508950D01*
X413907Y508958D01*
X413836Y508962D01*
X413764Y508962D01*
X413693Y508958D01*
X413622Y508950D01*
X413552Y508939D01*
X413482Y508924D01*
X413413Y508905D01*
X413345Y508882D01*
X413279Y508856D01*
X413214Y508827D01*
X413150Y508794D01*
X413089Y508758D01*
X413029Y508718D01*
X412972Y508676D01*
X412917Y508630D01*
X412864Y508582D01*
X412815Y508531D01*
X412768Y508477D01*
X412724Y508421D01*
X412683Y508362D01*
X412645Y508302D01*
X412610Y508239D01*
X412579Y508175D01*
X412551Y508109D01*
X412527Y508042D01*
X412506Y507974D01*
X412489Y507904D01*
X412476Y507834D01*
X412467Y507764D01*
X412461Y507692D01*
X412459Y507621D01*
X412460Y507621D02*
X412460Y506281D01*
X414069Y511438D02*
X415141Y512778D01*
X410315Y512778D01*
X410315Y511438D02*
X410315Y514119D01*
X410315Y516924D02*
X410315Y518533D01*
X410317Y518598D01*
X410323Y518662D01*
X410333Y518726D01*
X410346Y518790D01*
X410364Y518852D01*
X410385Y518913D01*
X410409Y518973D01*
X410438Y519031D01*
X410470Y519088D01*
X410505Y519142D01*
X410543Y519194D01*
X410585Y519244D01*
X410629Y519291D01*
X410676Y519335D01*
X410726Y519377D01*
X410778Y519415D01*
X410832Y519450D01*
X410889Y519482D01*
X410947Y519511D01*
X411007Y519535D01*
X411068Y519556D01*
X411130Y519574D01*
X411194Y519587D01*
X411258Y519597D01*
X411322Y519603D01*
X411387Y519605D01*
X411924Y519605D01*
X411989Y519603D01*
X412053Y519597D01*
X412117Y519587D01*
X412181Y519574D01*
X412243Y519556D01*
X412304Y519535D01*
X412364Y519511D01*
X412422Y519482D01*
X412479Y519450D01*
X412533Y519415D01*
X412585Y519377D01*
X412635Y519335D01*
X412682Y519291D01*
X412726Y519244D01*
X412768Y519194D01*
X412806Y519142D01*
X412841Y519088D01*
X412873Y519031D01*
X412902Y518973D01*
X412926Y518913D01*
X412947Y518852D01*
X412965Y518790D01*
X412978Y518726D01*
X412988Y518662D01*
X412994Y518598D01*
X412996Y518533D01*
X412996Y516924D01*
X415141Y516924D01*
X415141Y519605D01*
X462387Y502753D02*
X466141Y502753D01*
X462387Y502753D02*
X462322Y502751D01*
X462258Y502745D01*
X462194Y502735D01*
X462130Y502722D01*
X462068Y502704D01*
X462007Y502683D01*
X461947Y502659D01*
X461889Y502630D01*
X461832Y502598D01*
X461778Y502563D01*
X461726Y502525D01*
X461676Y502483D01*
X461629Y502439D01*
X461585Y502392D01*
X461543Y502342D01*
X461505Y502290D01*
X461470Y502236D01*
X461438Y502179D01*
X461409Y502121D01*
X461385Y502061D01*
X461364Y502000D01*
X461346Y501938D01*
X461333Y501874D01*
X461323Y501810D01*
X461317Y501746D01*
X461315Y501681D01*
X461315Y501145D01*
X461315Y506031D02*
X466141Y506031D01*
X466141Y507371D01*
X466139Y507442D01*
X466133Y507514D01*
X466124Y507584D01*
X466111Y507654D01*
X466094Y507724D01*
X466073Y507792D01*
X466049Y507859D01*
X466021Y507925D01*
X465990Y507989D01*
X465955Y508052D01*
X465917Y508112D01*
X465876Y508171D01*
X465832Y508227D01*
X465785Y508281D01*
X465736Y508332D01*
X465683Y508380D01*
X465628Y508426D01*
X465571Y508468D01*
X465511Y508508D01*
X465450Y508544D01*
X465386Y508577D01*
X465321Y508606D01*
X465255Y508632D01*
X465187Y508655D01*
X465118Y508674D01*
X465048Y508689D01*
X464978Y508700D01*
X464907Y508708D01*
X464836Y508712D01*
X464764Y508712D01*
X464693Y508708D01*
X464622Y508700D01*
X464552Y508689D01*
X464482Y508674D01*
X464413Y508655D01*
X464345Y508632D01*
X464279Y508606D01*
X464214Y508577D01*
X464150Y508544D01*
X464089Y508508D01*
X464029Y508468D01*
X463972Y508426D01*
X463917Y508380D01*
X463864Y508332D01*
X463815Y508281D01*
X463768Y508227D01*
X463724Y508171D01*
X463683Y508112D01*
X463645Y508052D01*
X463610Y507989D01*
X463579Y507925D01*
X463551Y507859D01*
X463527Y507792D01*
X463506Y507724D01*
X463489Y507654D01*
X463476Y507584D01*
X463467Y507514D01*
X463461Y507442D01*
X463459Y507371D01*
X463460Y507371D02*
X463460Y506031D01*
X465069Y511188D02*
X466141Y512528D01*
X461315Y512528D01*
X461315Y511188D02*
X461315Y513869D01*
X463996Y516674D02*
X463996Y518283D01*
X463994Y518348D01*
X463988Y518412D01*
X463978Y518476D01*
X463965Y518540D01*
X463947Y518602D01*
X463926Y518663D01*
X463902Y518723D01*
X463873Y518781D01*
X463841Y518838D01*
X463806Y518892D01*
X463768Y518944D01*
X463726Y518994D01*
X463682Y519041D01*
X463635Y519085D01*
X463585Y519127D01*
X463533Y519165D01*
X463479Y519200D01*
X463422Y519232D01*
X463364Y519261D01*
X463304Y519285D01*
X463243Y519306D01*
X463181Y519324D01*
X463117Y519337D01*
X463053Y519347D01*
X462989Y519353D01*
X462924Y519355D01*
X462656Y519355D01*
X462656Y519356D02*
X462585Y519354D01*
X462513Y519348D01*
X462443Y519339D01*
X462373Y519326D01*
X462303Y519309D01*
X462235Y519288D01*
X462168Y519264D01*
X462102Y519236D01*
X462038Y519205D01*
X461975Y519170D01*
X461915Y519132D01*
X461856Y519091D01*
X461800Y519047D01*
X461746Y519000D01*
X461695Y518951D01*
X461647Y518898D01*
X461601Y518843D01*
X461559Y518786D01*
X461519Y518726D01*
X461483Y518665D01*
X461450Y518601D01*
X461421Y518536D01*
X461395Y518470D01*
X461372Y518402D01*
X461353Y518333D01*
X461338Y518263D01*
X461327Y518193D01*
X461319Y518122D01*
X461315Y518051D01*
X461315Y517979D01*
X461319Y517908D01*
X461327Y517837D01*
X461338Y517767D01*
X461353Y517697D01*
X461372Y517628D01*
X461395Y517560D01*
X461421Y517494D01*
X461450Y517429D01*
X461483Y517365D01*
X461519Y517304D01*
X461559Y517244D01*
X461601Y517187D01*
X461647Y517132D01*
X461695Y517079D01*
X461746Y517030D01*
X461800Y516983D01*
X461856Y516939D01*
X461915Y516898D01*
X461975Y516860D01*
X462038Y516825D01*
X462102Y516794D01*
X462168Y516766D01*
X462235Y516742D01*
X462303Y516721D01*
X462373Y516704D01*
X462443Y516691D01*
X462513Y516682D01*
X462585Y516676D01*
X462656Y516674D01*
X463996Y516674D01*
X464087Y516676D01*
X464178Y516682D01*
X464268Y516691D01*
X464359Y516705D01*
X464448Y516722D01*
X464536Y516743D01*
X464624Y516768D01*
X464711Y516797D01*
X464796Y516829D01*
X464880Y516864D01*
X464962Y516904D01*
X465042Y516946D01*
X465121Y516992D01*
X465197Y517042D01*
X465271Y517094D01*
X465344Y517150D01*
X465413Y517209D01*
X465480Y517270D01*
X465545Y517335D01*
X465606Y517402D01*
X465665Y517471D01*
X465721Y517543D01*
X465773Y517618D01*
X465823Y517694D01*
X465869Y517773D01*
X465911Y517853D01*
X465951Y517935D01*
X465986Y518019D01*
X466018Y518104D01*
X466047Y518191D01*
X466072Y518278D01*
X466093Y518367D01*
X466110Y518456D01*
X466124Y518547D01*
X466133Y518637D01*
X466139Y518728D01*
X466141Y518819D01*
X513137Y502503D02*
X516891Y502503D01*
X513137Y502503D02*
X513072Y502501D01*
X513008Y502495D01*
X512944Y502485D01*
X512880Y502472D01*
X512818Y502454D01*
X512757Y502433D01*
X512697Y502409D01*
X512639Y502380D01*
X512582Y502348D01*
X512528Y502313D01*
X512476Y502275D01*
X512426Y502233D01*
X512379Y502189D01*
X512335Y502142D01*
X512293Y502092D01*
X512255Y502040D01*
X512220Y501986D01*
X512188Y501929D01*
X512159Y501871D01*
X512135Y501811D01*
X512114Y501750D01*
X512096Y501688D01*
X512083Y501624D01*
X512073Y501560D01*
X512067Y501496D01*
X512065Y501431D01*
X512065Y500895D01*
X512065Y505781D02*
X516891Y505781D01*
X516891Y507121D01*
X516889Y507192D01*
X516883Y507264D01*
X516874Y507334D01*
X516861Y507404D01*
X516844Y507474D01*
X516823Y507542D01*
X516799Y507609D01*
X516771Y507675D01*
X516740Y507739D01*
X516705Y507802D01*
X516667Y507862D01*
X516626Y507921D01*
X516582Y507977D01*
X516535Y508031D01*
X516486Y508082D01*
X516433Y508130D01*
X516378Y508176D01*
X516321Y508218D01*
X516261Y508258D01*
X516200Y508294D01*
X516136Y508327D01*
X516071Y508356D01*
X516005Y508382D01*
X515937Y508405D01*
X515868Y508424D01*
X515798Y508439D01*
X515728Y508450D01*
X515657Y508458D01*
X515586Y508462D01*
X515514Y508462D01*
X515443Y508458D01*
X515372Y508450D01*
X515302Y508439D01*
X515232Y508424D01*
X515163Y508405D01*
X515095Y508382D01*
X515029Y508356D01*
X514964Y508327D01*
X514900Y508294D01*
X514839Y508258D01*
X514779Y508218D01*
X514722Y508176D01*
X514667Y508130D01*
X514614Y508082D01*
X514565Y508031D01*
X514518Y507977D01*
X514474Y507921D01*
X514433Y507862D01*
X514395Y507802D01*
X514360Y507739D01*
X514329Y507675D01*
X514301Y507609D01*
X514277Y507542D01*
X514256Y507474D01*
X514239Y507404D01*
X514226Y507334D01*
X514217Y507264D01*
X514211Y507192D01*
X514209Y507121D01*
X514210Y507121D02*
X514210Y505781D01*
X515819Y510938D02*
X516891Y512278D01*
X512065Y512278D01*
X512065Y510938D02*
X512065Y513619D01*
X516355Y516424D02*
X516891Y516424D01*
X516891Y519105D01*
X512065Y517765D01*
X563887Y502753D02*
X567641Y502753D01*
X563887Y502753D02*
X563822Y502751D01*
X563758Y502745D01*
X563694Y502735D01*
X563630Y502722D01*
X563568Y502704D01*
X563507Y502683D01*
X563447Y502659D01*
X563389Y502630D01*
X563332Y502598D01*
X563278Y502563D01*
X563226Y502525D01*
X563176Y502483D01*
X563129Y502439D01*
X563085Y502392D01*
X563043Y502342D01*
X563005Y502290D01*
X562970Y502236D01*
X562938Y502179D01*
X562909Y502121D01*
X562885Y502061D01*
X562864Y502000D01*
X562846Y501938D01*
X562833Y501874D01*
X562823Y501810D01*
X562817Y501746D01*
X562815Y501681D01*
X562815Y501145D01*
X562815Y506031D02*
X567641Y506031D01*
X567641Y507371D01*
X567639Y507442D01*
X567633Y507514D01*
X567624Y507584D01*
X567611Y507654D01*
X567594Y507724D01*
X567573Y507792D01*
X567549Y507859D01*
X567521Y507925D01*
X567490Y507989D01*
X567455Y508052D01*
X567417Y508112D01*
X567376Y508171D01*
X567332Y508227D01*
X567285Y508281D01*
X567236Y508332D01*
X567183Y508380D01*
X567128Y508426D01*
X567071Y508468D01*
X567011Y508508D01*
X566950Y508544D01*
X566886Y508577D01*
X566821Y508606D01*
X566755Y508632D01*
X566687Y508655D01*
X566618Y508674D01*
X566548Y508689D01*
X566478Y508700D01*
X566407Y508708D01*
X566336Y508712D01*
X566264Y508712D01*
X566193Y508708D01*
X566122Y508700D01*
X566052Y508689D01*
X565982Y508674D01*
X565913Y508655D01*
X565845Y508632D01*
X565779Y508606D01*
X565714Y508577D01*
X565650Y508544D01*
X565589Y508508D01*
X565529Y508468D01*
X565472Y508426D01*
X565417Y508380D01*
X565364Y508332D01*
X565315Y508281D01*
X565268Y508227D01*
X565224Y508171D01*
X565183Y508112D01*
X565145Y508052D01*
X565110Y507989D01*
X565079Y507925D01*
X565051Y507859D01*
X565027Y507792D01*
X565006Y507724D01*
X564989Y507654D01*
X564976Y507584D01*
X564967Y507514D01*
X564961Y507442D01*
X564959Y507371D01*
X564960Y507371D02*
X564960Y506031D01*
X566569Y511188D02*
X567641Y512528D01*
X562815Y512528D01*
X562815Y511188D02*
X562815Y513869D01*
X564156Y516674D02*
X564227Y516676D01*
X564299Y516682D01*
X564369Y516691D01*
X564439Y516704D01*
X564509Y516721D01*
X564577Y516742D01*
X564644Y516766D01*
X564710Y516794D01*
X564774Y516825D01*
X564837Y516860D01*
X564897Y516898D01*
X564956Y516939D01*
X565012Y516983D01*
X565066Y517030D01*
X565117Y517079D01*
X565165Y517132D01*
X565211Y517187D01*
X565253Y517244D01*
X565293Y517304D01*
X565329Y517365D01*
X565362Y517429D01*
X565391Y517494D01*
X565417Y517560D01*
X565440Y517628D01*
X565459Y517697D01*
X565474Y517767D01*
X565485Y517837D01*
X565493Y517908D01*
X565497Y517979D01*
X565497Y518051D01*
X565493Y518122D01*
X565485Y518193D01*
X565474Y518263D01*
X565459Y518333D01*
X565440Y518402D01*
X565417Y518470D01*
X565391Y518536D01*
X565362Y518601D01*
X565329Y518665D01*
X565293Y518726D01*
X565253Y518786D01*
X565211Y518843D01*
X565165Y518898D01*
X565117Y518951D01*
X565066Y519000D01*
X565012Y519047D01*
X564956Y519091D01*
X564897Y519132D01*
X564837Y519170D01*
X564774Y519205D01*
X564710Y519236D01*
X564644Y519264D01*
X564577Y519288D01*
X564509Y519309D01*
X564439Y519326D01*
X564369Y519339D01*
X564299Y519348D01*
X564227Y519354D01*
X564156Y519356D01*
X564085Y519354D01*
X564013Y519348D01*
X563943Y519339D01*
X563873Y519326D01*
X563803Y519309D01*
X563735Y519288D01*
X563668Y519264D01*
X563602Y519236D01*
X563538Y519205D01*
X563475Y519170D01*
X563415Y519132D01*
X563356Y519091D01*
X563300Y519047D01*
X563246Y519000D01*
X563195Y518951D01*
X563147Y518898D01*
X563101Y518843D01*
X563059Y518786D01*
X563019Y518726D01*
X562983Y518665D01*
X562950Y518601D01*
X562921Y518536D01*
X562895Y518470D01*
X562872Y518402D01*
X562853Y518333D01*
X562838Y518263D01*
X562827Y518193D01*
X562819Y518122D01*
X562815Y518051D01*
X562815Y517979D01*
X562819Y517908D01*
X562827Y517837D01*
X562838Y517767D01*
X562853Y517697D01*
X562872Y517628D01*
X562895Y517560D01*
X562921Y517494D01*
X562950Y517429D01*
X562983Y517365D01*
X563019Y517304D01*
X563059Y517244D01*
X563101Y517187D01*
X563147Y517132D01*
X563195Y517079D01*
X563246Y517030D01*
X563300Y516983D01*
X563356Y516939D01*
X563415Y516898D01*
X563475Y516860D01*
X563538Y516825D01*
X563602Y516794D01*
X563668Y516766D01*
X563735Y516742D01*
X563803Y516721D01*
X563873Y516704D01*
X563943Y516691D01*
X564013Y516682D01*
X564085Y516676D01*
X564156Y516674D01*
X566569Y516943D02*
X566634Y516945D01*
X566698Y516951D01*
X566762Y516961D01*
X566826Y516974D01*
X566888Y516992D01*
X566949Y517013D01*
X567009Y517037D01*
X567067Y517066D01*
X567124Y517098D01*
X567178Y517133D01*
X567230Y517171D01*
X567280Y517213D01*
X567327Y517257D01*
X567371Y517304D01*
X567413Y517354D01*
X567451Y517406D01*
X567486Y517460D01*
X567518Y517517D01*
X567547Y517575D01*
X567571Y517635D01*
X567592Y517696D01*
X567610Y517758D01*
X567623Y517822D01*
X567633Y517886D01*
X567639Y517950D01*
X567641Y518015D01*
X567639Y518080D01*
X567633Y518144D01*
X567623Y518208D01*
X567610Y518272D01*
X567592Y518334D01*
X567571Y518395D01*
X567547Y518455D01*
X567518Y518513D01*
X567486Y518570D01*
X567451Y518624D01*
X567413Y518676D01*
X567371Y518726D01*
X567327Y518773D01*
X567280Y518817D01*
X567230Y518859D01*
X567178Y518897D01*
X567124Y518932D01*
X567067Y518964D01*
X567009Y518993D01*
X566949Y519017D01*
X566888Y519038D01*
X566826Y519056D01*
X566762Y519069D01*
X566698Y519079D01*
X566634Y519085D01*
X566569Y519087D01*
X566504Y519085D01*
X566440Y519079D01*
X566376Y519069D01*
X566312Y519056D01*
X566250Y519038D01*
X566189Y519017D01*
X566129Y518993D01*
X566071Y518964D01*
X566014Y518932D01*
X565960Y518897D01*
X565908Y518859D01*
X565858Y518817D01*
X565811Y518773D01*
X565767Y518726D01*
X565725Y518676D01*
X565687Y518624D01*
X565652Y518570D01*
X565620Y518513D01*
X565591Y518455D01*
X565567Y518395D01*
X565546Y518334D01*
X565528Y518272D01*
X565515Y518208D01*
X565505Y518144D01*
X565499Y518080D01*
X565497Y518015D01*
X565499Y517950D01*
X565505Y517886D01*
X565515Y517822D01*
X565528Y517758D01*
X565546Y517696D01*
X565567Y517635D01*
X565591Y517575D01*
X565620Y517517D01*
X565652Y517460D01*
X565687Y517406D01*
X565725Y517354D01*
X565767Y517304D01*
X565811Y517257D01*
X565858Y517213D01*
X565908Y517171D01*
X565960Y517133D01*
X566014Y517098D01*
X566071Y517066D01*
X566129Y517037D01*
X566189Y517013D01*
X566250Y516992D01*
X566312Y516974D01*
X566376Y516961D01*
X566440Y516951D01*
X566504Y516945D01*
X566569Y516943D01*
X585681Y32503D02*
X589435Y32503D01*
X585681Y32503D02*
X585616Y32501D01*
X585552Y32495D01*
X585488Y32485D01*
X585424Y32472D01*
X585362Y32454D01*
X585301Y32433D01*
X585241Y32409D01*
X585183Y32380D01*
X585126Y32348D01*
X585072Y32313D01*
X585020Y32275D01*
X584970Y32233D01*
X584923Y32189D01*
X584879Y32142D01*
X584837Y32092D01*
X584799Y32040D01*
X584764Y31986D01*
X584732Y31929D01*
X584703Y31871D01*
X584679Y31811D01*
X584658Y31750D01*
X584640Y31688D01*
X584627Y31624D01*
X584617Y31560D01*
X584611Y31496D01*
X584609Y31431D01*
X584609Y30895D01*
X584609Y35781D02*
X589435Y35781D01*
X589435Y37121D01*
X589433Y37192D01*
X589427Y37264D01*
X589418Y37334D01*
X589405Y37404D01*
X589388Y37474D01*
X589367Y37542D01*
X589343Y37609D01*
X589315Y37675D01*
X589284Y37739D01*
X589249Y37802D01*
X589211Y37862D01*
X589170Y37921D01*
X589126Y37977D01*
X589079Y38031D01*
X589030Y38082D01*
X588977Y38130D01*
X588922Y38176D01*
X588865Y38218D01*
X588805Y38258D01*
X588744Y38294D01*
X588680Y38327D01*
X588615Y38356D01*
X588549Y38382D01*
X588481Y38405D01*
X588412Y38424D01*
X588342Y38439D01*
X588272Y38450D01*
X588201Y38458D01*
X588130Y38462D01*
X588058Y38462D01*
X587987Y38458D01*
X587916Y38450D01*
X587846Y38439D01*
X587776Y38424D01*
X587707Y38405D01*
X587639Y38382D01*
X587573Y38356D01*
X587508Y38327D01*
X587444Y38294D01*
X587383Y38258D01*
X587323Y38218D01*
X587266Y38176D01*
X587211Y38130D01*
X587158Y38082D01*
X587109Y38031D01*
X587062Y37977D01*
X587018Y37921D01*
X586977Y37862D01*
X586939Y37802D01*
X586904Y37739D01*
X586873Y37675D01*
X586845Y37609D01*
X586821Y37542D01*
X586800Y37474D01*
X586783Y37404D01*
X586770Y37334D01*
X586761Y37264D01*
X586755Y37192D01*
X586753Y37121D01*
X586754Y37121D02*
X586754Y35781D01*
X588363Y40938D02*
X589435Y42278D01*
X584609Y42278D01*
X584609Y40938D02*
X584609Y43619D01*
X586754Y47497D02*
X586754Y49105D01*
X586754Y47497D02*
X586756Y47432D01*
X586762Y47368D01*
X586772Y47304D01*
X586785Y47240D01*
X586803Y47178D01*
X586824Y47117D01*
X586848Y47057D01*
X586877Y46999D01*
X586909Y46942D01*
X586944Y46888D01*
X586982Y46836D01*
X587024Y46786D01*
X587068Y46739D01*
X587115Y46695D01*
X587165Y46653D01*
X587217Y46615D01*
X587271Y46580D01*
X587328Y46548D01*
X587386Y46519D01*
X587446Y46495D01*
X587507Y46474D01*
X587569Y46456D01*
X587633Y46443D01*
X587697Y46433D01*
X587761Y46427D01*
X587826Y46425D01*
X587826Y46424D02*
X588094Y46424D01*
X588165Y46426D01*
X588237Y46432D01*
X588307Y46441D01*
X588377Y46454D01*
X588447Y46471D01*
X588515Y46492D01*
X588582Y46516D01*
X588648Y46544D01*
X588712Y46575D01*
X588775Y46610D01*
X588835Y46648D01*
X588894Y46689D01*
X588950Y46733D01*
X589004Y46780D01*
X589055Y46829D01*
X589103Y46882D01*
X589149Y46937D01*
X589191Y46994D01*
X589231Y47054D01*
X589267Y47115D01*
X589300Y47179D01*
X589329Y47244D01*
X589355Y47310D01*
X589378Y47378D01*
X589397Y47447D01*
X589412Y47517D01*
X589423Y47587D01*
X589431Y47658D01*
X589435Y47729D01*
X589435Y47801D01*
X589431Y47872D01*
X589423Y47943D01*
X589412Y48013D01*
X589397Y48083D01*
X589378Y48152D01*
X589355Y48220D01*
X589329Y48286D01*
X589300Y48351D01*
X589267Y48415D01*
X589231Y48476D01*
X589191Y48536D01*
X589149Y48593D01*
X589103Y48648D01*
X589055Y48701D01*
X589004Y48750D01*
X588950Y48797D01*
X588894Y48841D01*
X588835Y48882D01*
X588775Y48920D01*
X588712Y48955D01*
X588648Y48986D01*
X588582Y49014D01*
X588515Y49038D01*
X588447Y49059D01*
X588377Y49076D01*
X588307Y49089D01*
X588237Y49098D01*
X588165Y49104D01*
X588094Y49106D01*
X588094Y49105D02*
X586754Y49105D01*
X586663Y49103D01*
X586572Y49097D01*
X586482Y49088D01*
X586391Y49074D01*
X586302Y49057D01*
X586214Y49036D01*
X586126Y49011D01*
X586039Y48982D01*
X585954Y48950D01*
X585870Y48915D01*
X585788Y48875D01*
X585708Y48833D01*
X585629Y48787D01*
X585553Y48737D01*
X585479Y48685D01*
X585406Y48629D01*
X585337Y48570D01*
X585270Y48509D01*
X585205Y48444D01*
X585144Y48377D01*
X585085Y48308D01*
X585029Y48235D01*
X584977Y48161D01*
X584927Y48085D01*
X584881Y48006D01*
X584839Y47926D01*
X584799Y47844D01*
X584764Y47760D01*
X584732Y47675D01*
X584703Y47588D01*
X584678Y47500D01*
X584657Y47412D01*
X584640Y47323D01*
X584626Y47232D01*
X584617Y47142D01*
X584611Y47051D01*
X584609Y46960D01*
X178935Y32253D02*
X175181Y32253D01*
X175116Y32251D01*
X175052Y32245D01*
X174988Y32235D01*
X174924Y32222D01*
X174862Y32204D01*
X174801Y32183D01*
X174741Y32159D01*
X174683Y32130D01*
X174626Y32098D01*
X174572Y32063D01*
X174520Y32025D01*
X174470Y31983D01*
X174423Y31939D01*
X174379Y31892D01*
X174337Y31842D01*
X174299Y31790D01*
X174264Y31736D01*
X174232Y31679D01*
X174203Y31621D01*
X174179Y31561D01*
X174158Y31500D01*
X174140Y31438D01*
X174127Y31374D01*
X174117Y31310D01*
X174111Y31246D01*
X174109Y31181D01*
X174109Y30645D01*
X174109Y35531D02*
X178935Y35531D01*
X178935Y36871D01*
X178933Y36942D01*
X178927Y37014D01*
X178918Y37084D01*
X178905Y37154D01*
X178888Y37224D01*
X178867Y37292D01*
X178843Y37359D01*
X178815Y37425D01*
X178784Y37489D01*
X178749Y37552D01*
X178711Y37612D01*
X178670Y37671D01*
X178626Y37727D01*
X178579Y37781D01*
X178530Y37832D01*
X178477Y37880D01*
X178422Y37926D01*
X178365Y37968D01*
X178305Y38008D01*
X178244Y38044D01*
X178180Y38077D01*
X178115Y38106D01*
X178049Y38132D01*
X177981Y38155D01*
X177912Y38174D01*
X177842Y38189D01*
X177772Y38200D01*
X177701Y38208D01*
X177630Y38212D01*
X177558Y38212D01*
X177487Y38208D01*
X177416Y38200D01*
X177346Y38189D01*
X177276Y38174D01*
X177207Y38155D01*
X177139Y38132D01*
X177073Y38106D01*
X177008Y38077D01*
X176944Y38044D01*
X176883Y38008D01*
X176823Y37968D01*
X176766Y37926D01*
X176711Y37880D01*
X176658Y37832D01*
X176609Y37781D01*
X176562Y37727D01*
X176518Y37671D01*
X176477Y37612D01*
X176439Y37552D01*
X176404Y37489D01*
X176373Y37425D01*
X176345Y37359D01*
X176321Y37292D01*
X176300Y37224D01*
X176283Y37154D01*
X176270Y37084D01*
X176261Y37014D01*
X176255Y36942D01*
X176253Y36871D01*
X176254Y36871D02*
X176254Y35531D01*
X178935Y42162D02*
X178933Y42230D01*
X178927Y42297D01*
X178918Y42364D01*
X178905Y42431D01*
X178888Y42496D01*
X178867Y42561D01*
X178843Y42624D01*
X178815Y42686D01*
X178784Y42746D01*
X178750Y42804D01*
X178712Y42860D01*
X178672Y42915D01*
X178628Y42966D01*
X178581Y43015D01*
X178532Y43062D01*
X178481Y43106D01*
X178426Y43146D01*
X178370Y43184D01*
X178312Y43218D01*
X178252Y43249D01*
X178190Y43277D01*
X178127Y43301D01*
X178062Y43322D01*
X177997Y43339D01*
X177930Y43352D01*
X177863Y43361D01*
X177796Y43367D01*
X177728Y43369D01*
X178935Y42162D02*
X178933Y42084D01*
X178927Y42006D01*
X178917Y41929D01*
X178904Y41852D01*
X178886Y41776D01*
X178865Y41701D01*
X178840Y41627D01*
X178811Y41555D01*
X178779Y41484D01*
X178743Y41415D01*
X178704Y41347D01*
X178661Y41282D01*
X178615Y41219D01*
X178566Y41158D01*
X178514Y41100D01*
X178459Y41045D01*
X178402Y40992D01*
X178342Y40943D01*
X178279Y40896D01*
X178214Y40853D01*
X178148Y40813D01*
X178079Y40776D01*
X178008Y40743D01*
X177936Y40713D01*
X177863Y40687D01*
X176790Y42967D02*
X176839Y43016D01*
X176891Y43063D01*
X176946Y43106D01*
X177003Y43147D01*
X177062Y43185D01*
X177123Y43219D01*
X177186Y43250D01*
X177250Y43278D01*
X177316Y43302D01*
X177382Y43322D01*
X177450Y43339D01*
X177519Y43352D01*
X177588Y43361D01*
X177658Y43367D01*
X177728Y43369D01*
X176790Y42967D02*
X174109Y40688D01*
X174109Y43369D01*
X176522Y46174D02*
X176642Y46176D01*
X176762Y46181D01*
X176882Y46190D01*
X177002Y46203D01*
X177121Y46219D01*
X177240Y46239D01*
X177358Y46263D01*
X177475Y46290D01*
X177591Y46320D01*
X177706Y46354D01*
X177821Y46392D01*
X177934Y46433D01*
X178045Y46477D01*
X178156Y46525D01*
X178265Y46576D01*
X178265Y46577D02*
X178322Y46598D01*
X178378Y46624D01*
X178433Y46652D01*
X178485Y46684D01*
X178536Y46720D01*
X178584Y46758D01*
X178630Y46799D01*
X178673Y46843D01*
X178713Y46889D01*
X178750Y46938D01*
X178784Y46990D01*
X178815Y47043D01*
X178843Y47098D01*
X178867Y47154D01*
X178888Y47212D01*
X178905Y47271D01*
X178918Y47331D01*
X178927Y47392D01*
X178933Y47454D01*
X178935Y47515D01*
X178933Y47576D01*
X178927Y47638D01*
X178918Y47699D01*
X178905Y47759D01*
X178888Y47818D01*
X178867Y47876D01*
X178843Y47932D01*
X178815Y47987D01*
X178784Y48040D01*
X178750Y48092D01*
X178713Y48141D01*
X178673Y48187D01*
X178630Y48231D01*
X178584Y48272D01*
X178536Y48310D01*
X178485Y48346D01*
X178433Y48378D01*
X178378Y48406D01*
X178322Y48432D01*
X178265Y48453D01*
X178156Y48504D01*
X178045Y48552D01*
X177934Y48596D01*
X177821Y48637D01*
X177706Y48675D01*
X177591Y48709D01*
X177475Y48739D01*
X177358Y48766D01*
X177240Y48790D01*
X177121Y48810D01*
X177002Y48826D01*
X176882Y48839D01*
X176762Y48848D01*
X176642Y48853D01*
X176522Y48855D01*
X176522Y46174D02*
X176402Y46176D01*
X176282Y46181D01*
X176162Y46190D01*
X176042Y46203D01*
X175923Y46219D01*
X175804Y46239D01*
X175686Y46263D01*
X175569Y46290D01*
X175453Y46320D01*
X175338Y46354D01*
X175223Y46392D01*
X175110Y46433D01*
X174999Y46477D01*
X174888Y46525D01*
X174779Y46576D01*
X174779Y46577D02*
X174722Y46598D01*
X174666Y46624D01*
X174611Y46652D01*
X174559Y46684D01*
X174508Y46720D01*
X174460Y46758D01*
X174414Y46799D01*
X174371Y46843D01*
X174331Y46889D01*
X174294Y46938D01*
X174260Y46990D01*
X174229Y47043D01*
X174201Y47098D01*
X174177Y47154D01*
X174156Y47212D01*
X174139Y47271D01*
X174126Y47331D01*
X174117Y47392D01*
X174111Y47454D01*
X174109Y47515D01*
X174779Y48453D02*
X174888Y48504D01*
X174999Y48552D01*
X175110Y48596D01*
X175223Y48637D01*
X175338Y48675D01*
X175453Y48709D01*
X175569Y48739D01*
X175686Y48766D01*
X175804Y48790D01*
X175923Y48810D01*
X176042Y48826D01*
X176162Y48839D01*
X176282Y48848D01*
X176402Y48853D01*
X176522Y48855D01*
X174779Y48453D02*
X174722Y48432D01*
X174666Y48406D01*
X174611Y48378D01*
X174559Y48346D01*
X174508Y48310D01*
X174460Y48272D01*
X174414Y48231D01*
X174371Y48187D01*
X174331Y48140D01*
X174294Y48092D01*
X174260Y48040D01*
X174229Y47987D01*
X174201Y47932D01*
X174177Y47876D01*
X174156Y47818D01*
X174139Y47759D01*
X174126Y47699D01*
X174117Y47638D01*
X174111Y47576D01*
X174109Y47515D01*
X175181Y46442D02*
X177863Y48587D01*
X127935Y32253D02*
X124181Y32253D01*
X124116Y32251D01*
X124052Y32245D01*
X123988Y32235D01*
X123924Y32222D01*
X123862Y32204D01*
X123801Y32183D01*
X123741Y32159D01*
X123683Y32130D01*
X123626Y32098D01*
X123572Y32063D01*
X123520Y32025D01*
X123470Y31983D01*
X123423Y31939D01*
X123379Y31892D01*
X123337Y31842D01*
X123299Y31790D01*
X123264Y31736D01*
X123232Y31679D01*
X123203Y31621D01*
X123179Y31561D01*
X123158Y31500D01*
X123140Y31438D01*
X123127Y31374D01*
X123117Y31310D01*
X123111Y31246D01*
X123109Y31181D01*
X123109Y30645D01*
X123109Y35531D02*
X127935Y35531D01*
X127935Y36871D01*
X127933Y36942D01*
X127927Y37014D01*
X127918Y37084D01*
X127905Y37154D01*
X127888Y37224D01*
X127867Y37292D01*
X127843Y37359D01*
X127815Y37425D01*
X127784Y37489D01*
X127749Y37552D01*
X127711Y37612D01*
X127670Y37671D01*
X127626Y37727D01*
X127579Y37781D01*
X127530Y37832D01*
X127477Y37880D01*
X127422Y37926D01*
X127365Y37968D01*
X127305Y38008D01*
X127244Y38044D01*
X127180Y38077D01*
X127115Y38106D01*
X127049Y38132D01*
X126981Y38155D01*
X126912Y38174D01*
X126842Y38189D01*
X126772Y38200D01*
X126701Y38208D01*
X126630Y38212D01*
X126558Y38212D01*
X126487Y38208D01*
X126416Y38200D01*
X126346Y38189D01*
X126276Y38174D01*
X126207Y38155D01*
X126139Y38132D01*
X126073Y38106D01*
X126008Y38077D01*
X125944Y38044D01*
X125883Y38008D01*
X125823Y37968D01*
X125766Y37926D01*
X125711Y37880D01*
X125658Y37832D01*
X125609Y37781D01*
X125562Y37727D01*
X125518Y37671D01*
X125477Y37612D01*
X125439Y37552D01*
X125404Y37489D01*
X125373Y37425D01*
X125345Y37359D01*
X125321Y37292D01*
X125300Y37224D01*
X125283Y37154D01*
X125270Y37084D01*
X125261Y37014D01*
X125255Y36942D01*
X125253Y36871D01*
X125254Y36871D02*
X125254Y35531D01*
X127935Y42162D02*
X127933Y42230D01*
X127927Y42297D01*
X127918Y42364D01*
X127905Y42431D01*
X127888Y42496D01*
X127867Y42561D01*
X127843Y42624D01*
X127815Y42686D01*
X127784Y42746D01*
X127750Y42804D01*
X127712Y42860D01*
X127672Y42915D01*
X127628Y42966D01*
X127581Y43015D01*
X127532Y43062D01*
X127481Y43106D01*
X127426Y43146D01*
X127370Y43184D01*
X127312Y43218D01*
X127252Y43249D01*
X127190Y43277D01*
X127127Y43301D01*
X127062Y43322D01*
X126997Y43339D01*
X126930Y43352D01*
X126863Y43361D01*
X126796Y43367D01*
X126728Y43369D01*
X127935Y42162D02*
X127933Y42084D01*
X127927Y42006D01*
X127917Y41929D01*
X127904Y41852D01*
X127886Y41776D01*
X127865Y41701D01*
X127840Y41627D01*
X127811Y41555D01*
X127779Y41484D01*
X127743Y41415D01*
X127704Y41347D01*
X127661Y41282D01*
X127615Y41219D01*
X127566Y41158D01*
X127514Y41100D01*
X127459Y41045D01*
X127402Y40992D01*
X127342Y40943D01*
X127279Y40896D01*
X127214Y40853D01*
X127148Y40813D01*
X127079Y40776D01*
X127008Y40743D01*
X126936Y40713D01*
X126863Y40687D01*
X125790Y42967D02*
X125839Y43016D01*
X125891Y43063D01*
X125946Y43106D01*
X126003Y43147D01*
X126062Y43185D01*
X126123Y43219D01*
X126186Y43250D01*
X126250Y43278D01*
X126316Y43302D01*
X126382Y43322D01*
X126450Y43339D01*
X126519Y43352D01*
X126588Y43361D01*
X126658Y43367D01*
X126728Y43369D01*
X125790Y42967D02*
X123109Y40688D01*
X123109Y43369D01*
X126863Y46174D02*
X127935Y47515D01*
X123109Y47515D01*
X123109Y48855D02*
X123109Y46174D01*
X76935Y32753D02*
X73181Y32753D01*
X73116Y32751D01*
X73052Y32745D01*
X72988Y32735D01*
X72924Y32722D01*
X72862Y32704D01*
X72801Y32683D01*
X72741Y32659D01*
X72683Y32630D01*
X72626Y32598D01*
X72572Y32563D01*
X72520Y32525D01*
X72470Y32483D01*
X72423Y32439D01*
X72379Y32392D01*
X72337Y32342D01*
X72299Y32290D01*
X72264Y32236D01*
X72232Y32179D01*
X72203Y32121D01*
X72179Y32061D01*
X72158Y32000D01*
X72140Y31938D01*
X72127Y31874D01*
X72117Y31810D01*
X72111Y31746D01*
X72109Y31681D01*
X72109Y31145D01*
X72109Y36031D02*
X76935Y36031D01*
X76935Y37371D01*
X76933Y37442D01*
X76927Y37514D01*
X76918Y37584D01*
X76905Y37654D01*
X76888Y37724D01*
X76867Y37792D01*
X76843Y37859D01*
X76815Y37925D01*
X76784Y37989D01*
X76749Y38052D01*
X76711Y38112D01*
X76670Y38171D01*
X76626Y38227D01*
X76579Y38281D01*
X76530Y38332D01*
X76477Y38380D01*
X76422Y38426D01*
X76365Y38468D01*
X76305Y38508D01*
X76244Y38544D01*
X76180Y38577D01*
X76115Y38606D01*
X76049Y38632D01*
X75981Y38655D01*
X75912Y38674D01*
X75842Y38689D01*
X75772Y38700D01*
X75701Y38708D01*
X75630Y38712D01*
X75558Y38712D01*
X75487Y38708D01*
X75416Y38700D01*
X75346Y38689D01*
X75276Y38674D01*
X75207Y38655D01*
X75139Y38632D01*
X75073Y38606D01*
X75008Y38577D01*
X74944Y38544D01*
X74883Y38508D01*
X74823Y38468D01*
X74766Y38426D01*
X74711Y38380D01*
X74658Y38332D01*
X74609Y38281D01*
X74562Y38227D01*
X74518Y38171D01*
X74477Y38112D01*
X74439Y38052D01*
X74404Y37989D01*
X74373Y37925D01*
X74345Y37859D01*
X74321Y37792D01*
X74300Y37724D01*
X74283Y37654D01*
X74270Y37584D01*
X74261Y37514D01*
X74255Y37442D01*
X74253Y37371D01*
X74254Y37371D02*
X74254Y36031D01*
X76935Y42662D02*
X76933Y42730D01*
X76927Y42797D01*
X76918Y42864D01*
X76905Y42931D01*
X76888Y42996D01*
X76867Y43061D01*
X76843Y43124D01*
X76815Y43186D01*
X76784Y43246D01*
X76750Y43304D01*
X76712Y43360D01*
X76672Y43415D01*
X76628Y43466D01*
X76581Y43515D01*
X76532Y43562D01*
X76481Y43606D01*
X76426Y43646D01*
X76370Y43684D01*
X76312Y43718D01*
X76252Y43749D01*
X76190Y43777D01*
X76127Y43801D01*
X76062Y43822D01*
X75997Y43839D01*
X75930Y43852D01*
X75863Y43861D01*
X75796Y43867D01*
X75728Y43869D01*
X76935Y42662D02*
X76933Y42584D01*
X76927Y42506D01*
X76917Y42429D01*
X76904Y42352D01*
X76886Y42276D01*
X76865Y42201D01*
X76840Y42127D01*
X76811Y42055D01*
X76779Y41984D01*
X76743Y41915D01*
X76704Y41847D01*
X76661Y41782D01*
X76615Y41719D01*
X76566Y41658D01*
X76514Y41600D01*
X76459Y41545D01*
X76402Y41492D01*
X76342Y41443D01*
X76279Y41396D01*
X76214Y41353D01*
X76148Y41313D01*
X76079Y41276D01*
X76008Y41243D01*
X75936Y41213D01*
X75863Y41187D01*
X74790Y43467D02*
X74839Y43516D01*
X74891Y43563D01*
X74946Y43606D01*
X75003Y43647D01*
X75062Y43685D01*
X75123Y43719D01*
X75186Y43750D01*
X75250Y43778D01*
X75316Y43802D01*
X75382Y43822D01*
X75450Y43839D01*
X75519Y43852D01*
X75588Y43861D01*
X75658Y43867D01*
X75728Y43869D01*
X74790Y43467D02*
X72109Y41188D01*
X72109Y43869D01*
X76935Y48149D02*
X76933Y48217D01*
X76927Y48284D01*
X76918Y48351D01*
X76905Y48418D01*
X76888Y48483D01*
X76867Y48548D01*
X76843Y48611D01*
X76815Y48673D01*
X76784Y48733D01*
X76750Y48791D01*
X76712Y48847D01*
X76672Y48902D01*
X76628Y48953D01*
X76581Y49002D01*
X76532Y49049D01*
X76481Y49093D01*
X76426Y49133D01*
X76370Y49171D01*
X76312Y49205D01*
X76252Y49236D01*
X76190Y49264D01*
X76127Y49288D01*
X76062Y49309D01*
X75997Y49326D01*
X75930Y49339D01*
X75863Y49348D01*
X75796Y49354D01*
X75728Y49356D01*
X76935Y48149D02*
X76933Y48071D01*
X76927Y47993D01*
X76917Y47916D01*
X76904Y47839D01*
X76886Y47763D01*
X76865Y47688D01*
X76840Y47614D01*
X76811Y47542D01*
X76779Y47471D01*
X76743Y47402D01*
X76704Y47334D01*
X76661Y47269D01*
X76615Y47206D01*
X76566Y47145D01*
X76514Y47087D01*
X76459Y47032D01*
X76402Y46979D01*
X76342Y46930D01*
X76279Y46883D01*
X76214Y46840D01*
X76148Y46800D01*
X76079Y46763D01*
X76008Y46730D01*
X75936Y46700D01*
X75863Y46674D01*
X74790Y48953D02*
X74839Y49002D01*
X74891Y49049D01*
X74946Y49092D01*
X75003Y49133D01*
X75062Y49171D01*
X75123Y49205D01*
X75186Y49236D01*
X75250Y49264D01*
X75316Y49288D01*
X75382Y49308D01*
X75450Y49325D01*
X75519Y49338D01*
X75588Y49347D01*
X75658Y49353D01*
X75728Y49355D01*
X74790Y48953D02*
X72109Y46674D01*
X72109Y49355D01*
X26185Y32253D02*
X22431Y32253D01*
X22366Y32251D01*
X22302Y32245D01*
X22238Y32235D01*
X22174Y32222D01*
X22112Y32204D01*
X22051Y32183D01*
X21991Y32159D01*
X21933Y32130D01*
X21876Y32098D01*
X21822Y32063D01*
X21770Y32025D01*
X21720Y31983D01*
X21673Y31939D01*
X21629Y31892D01*
X21587Y31842D01*
X21549Y31790D01*
X21514Y31736D01*
X21482Y31679D01*
X21453Y31621D01*
X21429Y31561D01*
X21408Y31500D01*
X21390Y31438D01*
X21377Y31374D01*
X21367Y31310D01*
X21361Y31246D01*
X21359Y31181D01*
X21359Y30645D01*
X21359Y35531D02*
X26185Y35531D01*
X26185Y36871D01*
X26183Y36942D01*
X26177Y37014D01*
X26168Y37084D01*
X26155Y37154D01*
X26138Y37224D01*
X26117Y37292D01*
X26093Y37359D01*
X26065Y37425D01*
X26034Y37489D01*
X25999Y37552D01*
X25961Y37612D01*
X25920Y37671D01*
X25876Y37727D01*
X25829Y37781D01*
X25780Y37832D01*
X25727Y37880D01*
X25672Y37926D01*
X25615Y37968D01*
X25555Y38008D01*
X25494Y38044D01*
X25430Y38077D01*
X25365Y38106D01*
X25299Y38132D01*
X25231Y38155D01*
X25162Y38174D01*
X25092Y38189D01*
X25022Y38200D01*
X24951Y38208D01*
X24880Y38212D01*
X24808Y38212D01*
X24737Y38208D01*
X24666Y38200D01*
X24596Y38189D01*
X24526Y38174D01*
X24457Y38155D01*
X24389Y38132D01*
X24323Y38106D01*
X24258Y38077D01*
X24194Y38044D01*
X24133Y38008D01*
X24073Y37968D01*
X24016Y37926D01*
X23961Y37880D01*
X23908Y37832D01*
X23859Y37781D01*
X23812Y37727D01*
X23768Y37671D01*
X23727Y37612D01*
X23689Y37552D01*
X23654Y37489D01*
X23623Y37425D01*
X23595Y37359D01*
X23571Y37292D01*
X23550Y37224D01*
X23533Y37154D01*
X23520Y37084D01*
X23511Y37014D01*
X23505Y36942D01*
X23503Y36871D01*
X23504Y36871D02*
X23504Y35531D01*
X26185Y42162D02*
X26183Y42230D01*
X26177Y42297D01*
X26168Y42364D01*
X26155Y42431D01*
X26138Y42496D01*
X26117Y42561D01*
X26093Y42624D01*
X26065Y42686D01*
X26034Y42746D01*
X26000Y42804D01*
X25962Y42860D01*
X25922Y42915D01*
X25878Y42966D01*
X25831Y43015D01*
X25782Y43062D01*
X25731Y43106D01*
X25676Y43146D01*
X25620Y43184D01*
X25562Y43218D01*
X25502Y43249D01*
X25440Y43277D01*
X25377Y43301D01*
X25312Y43322D01*
X25247Y43339D01*
X25180Y43352D01*
X25113Y43361D01*
X25046Y43367D01*
X24978Y43369D01*
X26185Y42162D02*
X26183Y42084D01*
X26177Y42006D01*
X26167Y41929D01*
X26154Y41852D01*
X26136Y41776D01*
X26115Y41701D01*
X26090Y41627D01*
X26061Y41555D01*
X26029Y41484D01*
X25993Y41415D01*
X25954Y41347D01*
X25911Y41282D01*
X25865Y41219D01*
X25816Y41158D01*
X25764Y41100D01*
X25709Y41045D01*
X25652Y40992D01*
X25592Y40943D01*
X25529Y40896D01*
X25464Y40853D01*
X25398Y40813D01*
X25329Y40776D01*
X25258Y40743D01*
X25186Y40713D01*
X25113Y40687D01*
X24040Y42967D02*
X24089Y43016D01*
X24141Y43063D01*
X24196Y43106D01*
X24253Y43147D01*
X24312Y43185D01*
X24373Y43219D01*
X24436Y43250D01*
X24500Y43278D01*
X24566Y43302D01*
X24632Y43322D01*
X24700Y43339D01*
X24769Y43352D01*
X24838Y43361D01*
X24908Y43367D01*
X24978Y43369D01*
X24040Y42967D02*
X21359Y40688D01*
X21359Y43369D01*
X21359Y46174D02*
X21359Y47515D01*
X21361Y47586D01*
X21367Y47658D01*
X21376Y47728D01*
X21389Y47798D01*
X21406Y47868D01*
X21427Y47936D01*
X21451Y48003D01*
X21479Y48069D01*
X21510Y48133D01*
X21545Y48196D01*
X21583Y48256D01*
X21624Y48315D01*
X21668Y48371D01*
X21715Y48425D01*
X21764Y48476D01*
X21817Y48524D01*
X21872Y48570D01*
X21929Y48612D01*
X21989Y48652D01*
X22050Y48688D01*
X22114Y48721D01*
X22179Y48750D01*
X22245Y48776D01*
X22313Y48799D01*
X22382Y48818D01*
X22452Y48833D01*
X22522Y48844D01*
X22593Y48852D01*
X22664Y48856D01*
X22736Y48856D01*
X22807Y48852D01*
X22878Y48844D01*
X22948Y48833D01*
X23018Y48818D01*
X23087Y48799D01*
X23155Y48776D01*
X23221Y48750D01*
X23286Y48721D01*
X23350Y48688D01*
X23411Y48652D01*
X23471Y48612D01*
X23528Y48570D01*
X23583Y48524D01*
X23636Y48476D01*
X23685Y48425D01*
X23732Y48371D01*
X23776Y48315D01*
X23817Y48256D01*
X23855Y48196D01*
X23890Y48133D01*
X23921Y48069D01*
X23949Y48003D01*
X23973Y47936D01*
X23994Y47868D01*
X24011Y47798D01*
X24024Y47728D01*
X24033Y47658D01*
X24039Y47586D01*
X24041Y47515D01*
X26185Y47783D02*
X26185Y46174D01*
X26185Y47783D02*
X26183Y47848D01*
X26177Y47912D01*
X26167Y47976D01*
X26154Y48040D01*
X26136Y48102D01*
X26115Y48163D01*
X26091Y48223D01*
X26062Y48281D01*
X26030Y48338D01*
X25995Y48392D01*
X25957Y48444D01*
X25915Y48494D01*
X25871Y48541D01*
X25824Y48585D01*
X25774Y48627D01*
X25722Y48665D01*
X25668Y48700D01*
X25611Y48732D01*
X25553Y48761D01*
X25493Y48785D01*
X25432Y48806D01*
X25370Y48824D01*
X25306Y48837D01*
X25242Y48847D01*
X25178Y48853D01*
X25113Y48855D01*
X25048Y48853D01*
X24984Y48847D01*
X24920Y48837D01*
X24856Y48824D01*
X24794Y48806D01*
X24733Y48785D01*
X24673Y48761D01*
X24615Y48732D01*
X24558Y48700D01*
X24504Y48665D01*
X24452Y48627D01*
X24402Y48585D01*
X24355Y48541D01*
X24311Y48494D01*
X24269Y48444D01*
X24231Y48392D01*
X24196Y48338D01*
X24164Y48281D01*
X24135Y48223D01*
X24111Y48163D01*
X24090Y48102D01*
X24072Y48040D01*
X24059Y47976D01*
X24049Y47912D01*
X24043Y47848D01*
X24041Y47783D01*
X24040Y47783D02*
X24040Y46710D01*
X51387Y502753D02*
X55141Y502753D01*
X51387Y502753D02*
X51322Y502751D01*
X51258Y502745D01*
X51194Y502735D01*
X51130Y502722D01*
X51068Y502704D01*
X51007Y502683D01*
X50947Y502659D01*
X50889Y502630D01*
X50832Y502598D01*
X50778Y502563D01*
X50726Y502525D01*
X50676Y502483D01*
X50629Y502439D01*
X50585Y502392D01*
X50543Y502342D01*
X50505Y502290D01*
X50470Y502236D01*
X50438Y502179D01*
X50409Y502121D01*
X50385Y502061D01*
X50364Y502000D01*
X50346Y501938D01*
X50333Y501874D01*
X50323Y501810D01*
X50317Y501746D01*
X50315Y501681D01*
X50315Y501145D01*
X50315Y506031D02*
X55141Y506031D01*
X55141Y507371D01*
X55139Y507442D01*
X55133Y507514D01*
X55124Y507584D01*
X55111Y507654D01*
X55094Y507724D01*
X55073Y507792D01*
X55049Y507859D01*
X55021Y507925D01*
X54990Y507989D01*
X54955Y508052D01*
X54917Y508112D01*
X54876Y508171D01*
X54832Y508227D01*
X54785Y508281D01*
X54736Y508332D01*
X54683Y508380D01*
X54628Y508426D01*
X54571Y508468D01*
X54511Y508508D01*
X54450Y508544D01*
X54386Y508577D01*
X54321Y508606D01*
X54255Y508632D01*
X54187Y508655D01*
X54118Y508674D01*
X54048Y508689D01*
X53978Y508700D01*
X53907Y508708D01*
X53836Y508712D01*
X53764Y508712D01*
X53693Y508708D01*
X53622Y508700D01*
X53552Y508689D01*
X53482Y508674D01*
X53413Y508655D01*
X53345Y508632D01*
X53279Y508606D01*
X53214Y508577D01*
X53150Y508544D01*
X53089Y508508D01*
X53029Y508468D01*
X52972Y508426D01*
X52917Y508380D01*
X52864Y508332D01*
X52815Y508281D01*
X52768Y508227D01*
X52724Y508171D01*
X52683Y508112D01*
X52645Y508052D01*
X52610Y507989D01*
X52579Y507925D01*
X52551Y507859D01*
X52527Y507792D01*
X52506Y507724D01*
X52489Y507654D01*
X52476Y507584D01*
X52467Y507514D01*
X52461Y507442D01*
X52459Y507371D01*
X52460Y507371D02*
X52460Y506031D01*
X55141Y512662D02*
X55139Y512730D01*
X55133Y512797D01*
X55124Y512864D01*
X55111Y512931D01*
X55094Y512996D01*
X55073Y513061D01*
X55049Y513124D01*
X55021Y513186D01*
X54990Y513246D01*
X54956Y513304D01*
X54918Y513360D01*
X54878Y513415D01*
X54834Y513466D01*
X54787Y513515D01*
X54738Y513562D01*
X54687Y513606D01*
X54632Y513646D01*
X54576Y513684D01*
X54518Y513718D01*
X54458Y513749D01*
X54396Y513777D01*
X54333Y513801D01*
X54268Y513822D01*
X54203Y513839D01*
X54136Y513852D01*
X54069Y513861D01*
X54002Y513867D01*
X53934Y513869D01*
X55141Y512662D02*
X55139Y512584D01*
X55133Y512506D01*
X55123Y512429D01*
X55110Y512352D01*
X55092Y512276D01*
X55071Y512201D01*
X55046Y512127D01*
X55017Y512055D01*
X54985Y511984D01*
X54949Y511915D01*
X54910Y511847D01*
X54867Y511782D01*
X54821Y511719D01*
X54772Y511658D01*
X54720Y511600D01*
X54665Y511545D01*
X54608Y511492D01*
X54548Y511443D01*
X54485Y511396D01*
X54420Y511353D01*
X54354Y511313D01*
X54285Y511276D01*
X54214Y511243D01*
X54142Y511213D01*
X54069Y511187D01*
X52996Y513467D02*
X53045Y513516D01*
X53097Y513563D01*
X53152Y513606D01*
X53209Y513647D01*
X53268Y513685D01*
X53329Y513719D01*
X53392Y513750D01*
X53456Y513778D01*
X53522Y513802D01*
X53588Y513822D01*
X53656Y513839D01*
X53725Y513852D01*
X53794Y513861D01*
X53864Y513867D01*
X53934Y513869D01*
X52996Y513467D02*
X50315Y511188D01*
X50315Y513869D01*
X51387Y516674D02*
X55141Y517747D01*
X51387Y516674D02*
X51387Y519355D01*
X52460Y518551D02*
X50315Y518551D01*
X101887Y503003D02*
X105641Y503003D01*
X101887Y503003D02*
X101822Y503001D01*
X101758Y502995D01*
X101694Y502985D01*
X101630Y502972D01*
X101568Y502954D01*
X101507Y502933D01*
X101447Y502909D01*
X101389Y502880D01*
X101332Y502848D01*
X101278Y502813D01*
X101226Y502775D01*
X101176Y502733D01*
X101129Y502689D01*
X101085Y502642D01*
X101043Y502592D01*
X101005Y502540D01*
X100970Y502486D01*
X100938Y502429D01*
X100909Y502371D01*
X100885Y502311D01*
X100864Y502250D01*
X100846Y502188D01*
X100833Y502124D01*
X100823Y502060D01*
X100817Y501996D01*
X100815Y501931D01*
X100815Y501395D01*
X100815Y506281D02*
X105641Y506281D01*
X105641Y507621D01*
X105639Y507692D01*
X105633Y507764D01*
X105624Y507834D01*
X105611Y507904D01*
X105594Y507974D01*
X105573Y508042D01*
X105549Y508109D01*
X105521Y508175D01*
X105490Y508239D01*
X105455Y508302D01*
X105417Y508362D01*
X105376Y508421D01*
X105332Y508477D01*
X105285Y508531D01*
X105236Y508582D01*
X105183Y508630D01*
X105128Y508676D01*
X105071Y508718D01*
X105011Y508758D01*
X104950Y508794D01*
X104886Y508827D01*
X104821Y508856D01*
X104755Y508882D01*
X104687Y508905D01*
X104618Y508924D01*
X104548Y508939D01*
X104478Y508950D01*
X104407Y508958D01*
X104336Y508962D01*
X104264Y508962D01*
X104193Y508958D01*
X104122Y508950D01*
X104052Y508939D01*
X103982Y508924D01*
X103913Y508905D01*
X103845Y508882D01*
X103779Y508856D01*
X103714Y508827D01*
X103650Y508794D01*
X103589Y508758D01*
X103529Y508718D01*
X103472Y508676D01*
X103417Y508630D01*
X103364Y508582D01*
X103315Y508531D01*
X103268Y508477D01*
X103224Y508421D01*
X103183Y508362D01*
X103145Y508302D01*
X103110Y508239D01*
X103079Y508175D01*
X103051Y508109D01*
X103027Y508042D01*
X103006Y507974D01*
X102989Y507904D01*
X102976Y507834D01*
X102967Y507764D01*
X102961Y507692D01*
X102959Y507621D01*
X102960Y507621D02*
X102960Y506281D01*
X105641Y512912D02*
X105639Y512980D01*
X105633Y513047D01*
X105624Y513114D01*
X105611Y513181D01*
X105594Y513246D01*
X105573Y513311D01*
X105549Y513374D01*
X105521Y513436D01*
X105490Y513496D01*
X105456Y513554D01*
X105418Y513610D01*
X105378Y513665D01*
X105334Y513716D01*
X105287Y513765D01*
X105238Y513812D01*
X105187Y513856D01*
X105132Y513896D01*
X105076Y513934D01*
X105018Y513968D01*
X104958Y513999D01*
X104896Y514027D01*
X104833Y514051D01*
X104768Y514072D01*
X104703Y514089D01*
X104636Y514102D01*
X104569Y514111D01*
X104502Y514117D01*
X104434Y514119D01*
X105641Y512912D02*
X105639Y512834D01*
X105633Y512756D01*
X105623Y512679D01*
X105610Y512602D01*
X105592Y512526D01*
X105571Y512451D01*
X105546Y512377D01*
X105517Y512305D01*
X105485Y512234D01*
X105449Y512165D01*
X105410Y512097D01*
X105367Y512032D01*
X105321Y511969D01*
X105272Y511908D01*
X105220Y511850D01*
X105165Y511795D01*
X105108Y511742D01*
X105048Y511693D01*
X104985Y511646D01*
X104920Y511603D01*
X104854Y511563D01*
X104785Y511526D01*
X104714Y511493D01*
X104642Y511463D01*
X104569Y511437D01*
X103496Y513717D02*
X103545Y513766D01*
X103597Y513813D01*
X103652Y513856D01*
X103709Y513897D01*
X103768Y513935D01*
X103829Y513969D01*
X103892Y514000D01*
X103956Y514028D01*
X104022Y514052D01*
X104088Y514072D01*
X104156Y514089D01*
X104225Y514102D01*
X104294Y514111D01*
X104364Y514117D01*
X104434Y514119D01*
X103496Y513717D02*
X100815Y511438D01*
X100815Y514119D01*
X100815Y516924D02*
X100815Y518533D01*
X100817Y518598D01*
X100823Y518662D01*
X100833Y518726D01*
X100846Y518790D01*
X100864Y518852D01*
X100885Y518913D01*
X100909Y518973D01*
X100938Y519031D01*
X100970Y519088D01*
X101005Y519142D01*
X101043Y519194D01*
X101085Y519244D01*
X101129Y519291D01*
X101176Y519335D01*
X101226Y519377D01*
X101278Y519415D01*
X101332Y519450D01*
X101389Y519482D01*
X101447Y519511D01*
X101507Y519535D01*
X101568Y519556D01*
X101630Y519574D01*
X101694Y519587D01*
X101758Y519597D01*
X101822Y519603D01*
X101887Y519605D01*
X102424Y519605D01*
X102489Y519603D01*
X102553Y519597D01*
X102617Y519587D01*
X102681Y519574D01*
X102743Y519556D01*
X102804Y519535D01*
X102864Y519511D01*
X102922Y519482D01*
X102979Y519450D01*
X103033Y519415D01*
X103085Y519377D01*
X103135Y519335D01*
X103182Y519291D01*
X103226Y519244D01*
X103268Y519194D01*
X103306Y519142D01*
X103341Y519088D01*
X103373Y519031D01*
X103402Y518973D01*
X103426Y518913D01*
X103447Y518852D01*
X103465Y518790D01*
X103478Y518726D01*
X103488Y518662D01*
X103494Y518598D01*
X103496Y518533D01*
X103496Y516924D01*
X105641Y516924D01*
X105641Y519605D01*
X152887Y503003D02*
X156641Y503003D01*
X152887Y503003D02*
X152822Y503001D01*
X152758Y502995D01*
X152694Y502985D01*
X152630Y502972D01*
X152568Y502954D01*
X152507Y502933D01*
X152447Y502909D01*
X152389Y502880D01*
X152332Y502848D01*
X152278Y502813D01*
X152226Y502775D01*
X152176Y502733D01*
X152129Y502689D01*
X152085Y502642D01*
X152043Y502592D01*
X152005Y502540D01*
X151970Y502486D01*
X151938Y502429D01*
X151909Y502371D01*
X151885Y502311D01*
X151864Y502250D01*
X151846Y502188D01*
X151833Y502124D01*
X151823Y502060D01*
X151817Y501996D01*
X151815Y501931D01*
X151815Y501395D01*
X151815Y506281D02*
X156641Y506281D01*
X156641Y507621D01*
X156639Y507692D01*
X156633Y507764D01*
X156624Y507834D01*
X156611Y507904D01*
X156594Y507974D01*
X156573Y508042D01*
X156549Y508109D01*
X156521Y508175D01*
X156490Y508239D01*
X156455Y508302D01*
X156417Y508362D01*
X156376Y508421D01*
X156332Y508477D01*
X156285Y508531D01*
X156236Y508582D01*
X156183Y508630D01*
X156128Y508676D01*
X156071Y508718D01*
X156011Y508758D01*
X155950Y508794D01*
X155886Y508827D01*
X155821Y508856D01*
X155755Y508882D01*
X155687Y508905D01*
X155618Y508924D01*
X155548Y508939D01*
X155478Y508950D01*
X155407Y508958D01*
X155336Y508962D01*
X155264Y508962D01*
X155193Y508958D01*
X155122Y508950D01*
X155052Y508939D01*
X154982Y508924D01*
X154913Y508905D01*
X154845Y508882D01*
X154779Y508856D01*
X154714Y508827D01*
X154650Y508794D01*
X154589Y508758D01*
X154529Y508718D01*
X154472Y508676D01*
X154417Y508630D01*
X154364Y508582D01*
X154315Y508531D01*
X154268Y508477D01*
X154224Y508421D01*
X154183Y508362D01*
X154145Y508302D01*
X154110Y508239D01*
X154079Y508175D01*
X154051Y508109D01*
X154027Y508042D01*
X154006Y507974D01*
X153989Y507904D01*
X153976Y507834D01*
X153967Y507764D01*
X153961Y507692D01*
X153959Y507621D01*
X153960Y507621D02*
X153960Y506281D01*
X156641Y512912D02*
X156639Y512980D01*
X156633Y513047D01*
X156624Y513114D01*
X156611Y513181D01*
X156594Y513246D01*
X156573Y513311D01*
X156549Y513374D01*
X156521Y513436D01*
X156490Y513496D01*
X156456Y513554D01*
X156418Y513610D01*
X156378Y513665D01*
X156334Y513716D01*
X156287Y513765D01*
X156238Y513812D01*
X156187Y513856D01*
X156132Y513896D01*
X156076Y513934D01*
X156018Y513968D01*
X155958Y513999D01*
X155896Y514027D01*
X155833Y514051D01*
X155768Y514072D01*
X155703Y514089D01*
X155636Y514102D01*
X155569Y514111D01*
X155502Y514117D01*
X155434Y514119D01*
X156641Y512912D02*
X156639Y512834D01*
X156633Y512756D01*
X156623Y512679D01*
X156610Y512602D01*
X156592Y512526D01*
X156571Y512451D01*
X156546Y512377D01*
X156517Y512305D01*
X156485Y512234D01*
X156449Y512165D01*
X156410Y512097D01*
X156367Y512032D01*
X156321Y511969D01*
X156272Y511908D01*
X156220Y511850D01*
X156165Y511795D01*
X156108Y511742D01*
X156048Y511693D01*
X155985Y511646D01*
X155920Y511603D01*
X155854Y511563D01*
X155785Y511526D01*
X155714Y511493D01*
X155642Y511463D01*
X155569Y511437D01*
X154496Y513717D02*
X154545Y513766D01*
X154597Y513813D01*
X154652Y513856D01*
X154709Y513897D01*
X154768Y513935D01*
X154829Y513969D01*
X154892Y514000D01*
X154956Y514028D01*
X155022Y514052D01*
X155088Y514072D01*
X155156Y514089D01*
X155225Y514102D01*
X155294Y514111D01*
X155364Y514117D01*
X155434Y514119D01*
X154496Y513717D02*
X151815Y511438D01*
X151815Y514119D01*
X154496Y516924D02*
X154496Y518533D01*
X154494Y518598D01*
X154488Y518662D01*
X154478Y518726D01*
X154465Y518790D01*
X154447Y518852D01*
X154426Y518913D01*
X154402Y518973D01*
X154373Y519031D01*
X154341Y519088D01*
X154306Y519142D01*
X154268Y519194D01*
X154226Y519244D01*
X154182Y519291D01*
X154135Y519335D01*
X154085Y519377D01*
X154033Y519415D01*
X153979Y519450D01*
X153922Y519482D01*
X153864Y519511D01*
X153804Y519535D01*
X153743Y519556D01*
X153681Y519574D01*
X153617Y519587D01*
X153553Y519597D01*
X153489Y519603D01*
X153424Y519605D01*
X153156Y519605D01*
X153156Y519606D02*
X153085Y519604D01*
X153013Y519598D01*
X152943Y519589D01*
X152873Y519576D01*
X152803Y519559D01*
X152735Y519538D01*
X152668Y519514D01*
X152602Y519486D01*
X152538Y519455D01*
X152475Y519420D01*
X152415Y519382D01*
X152356Y519341D01*
X152300Y519297D01*
X152246Y519250D01*
X152195Y519201D01*
X152147Y519148D01*
X152101Y519093D01*
X152059Y519036D01*
X152019Y518976D01*
X151983Y518915D01*
X151950Y518851D01*
X151921Y518786D01*
X151895Y518720D01*
X151872Y518652D01*
X151853Y518583D01*
X151838Y518513D01*
X151827Y518443D01*
X151819Y518372D01*
X151815Y518301D01*
X151815Y518229D01*
X151819Y518158D01*
X151827Y518087D01*
X151838Y518017D01*
X151853Y517947D01*
X151872Y517878D01*
X151895Y517810D01*
X151921Y517744D01*
X151950Y517679D01*
X151983Y517615D01*
X152019Y517554D01*
X152059Y517494D01*
X152101Y517437D01*
X152147Y517382D01*
X152195Y517329D01*
X152246Y517280D01*
X152300Y517233D01*
X152356Y517189D01*
X152415Y517148D01*
X152475Y517110D01*
X152538Y517075D01*
X152602Y517044D01*
X152668Y517016D01*
X152735Y516992D01*
X152803Y516971D01*
X152873Y516954D01*
X152943Y516941D01*
X153013Y516932D01*
X153085Y516926D01*
X153156Y516924D01*
X154496Y516924D01*
X154587Y516926D01*
X154678Y516932D01*
X154768Y516941D01*
X154859Y516955D01*
X154948Y516972D01*
X155036Y516993D01*
X155124Y517018D01*
X155211Y517047D01*
X155296Y517079D01*
X155380Y517114D01*
X155462Y517154D01*
X155542Y517196D01*
X155621Y517242D01*
X155697Y517292D01*
X155771Y517344D01*
X155844Y517400D01*
X155913Y517459D01*
X155980Y517520D01*
X156045Y517585D01*
X156106Y517652D01*
X156165Y517721D01*
X156221Y517793D01*
X156273Y517868D01*
X156323Y517944D01*
X156369Y518023D01*
X156411Y518103D01*
X156451Y518185D01*
X156486Y518269D01*
X156518Y518354D01*
X156547Y518441D01*
X156572Y518528D01*
X156593Y518617D01*
X156610Y518706D01*
X156624Y518797D01*
X156633Y518887D01*
X156639Y518978D01*
X156641Y519069D01*
X203887Y502753D02*
X207641Y502753D01*
X203887Y502753D02*
X203822Y502751D01*
X203758Y502745D01*
X203694Y502735D01*
X203630Y502722D01*
X203568Y502704D01*
X203507Y502683D01*
X203447Y502659D01*
X203389Y502630D01*
X203332Y502598D01*
X203278Y502563D01*
X203226Y502525D01*
X203176Y502483D01*
X203129Y502439D01*
X203085Y502392D01*
X203043Y502342D01*
X203005Y502290D01*
X202970Y502236D01*
X202938Y502179D01*
X202909Y502121D01*
X202885Y502061D01*
X202864Y502000D01*
X202846Y501938D01*
X202833Y501874D01*
X202823Y501810D01*
X202817Y501746D01*
X202815Y501681D01*
X202815Y501145D01*
X202815Y506031D02*
X207641Y506031D01*
X207641Y507371D01*
X207639Y507442D01*
X207633Y507514D01*
X207624Y507584D01*
X207611Y507654D01*
X207594Y507724D01*
X207573Y507792D01*
X207549Y507859D01*
X207521Y507925D01*
X207490Y507989D01*
X207455Y508052D01*
X207417Y508112D01*
X207376Y508171D01*
X207332Y508227D01*
X207285Y508281D01*
X207236Y508332D01*
X207183Y508380D01*
X207128Y508426D01*
X207071Y508468D01*
X207011Y508508D01*
X206950Y508544D01*
X206886Y508577D01*
X206821Y508606D01*
X206755Y508632D01*
X206687Y508655D01*
X206618Y508674D01*
X206548Y508689D01*
X206478Y508700D01*
X206407Y508708D01*
X206336Y508712D01*
X206264Y508712D01*
X206193Y508708D01*
X206122Y508700D01*
X206052Y508689D01*
X205982Y508674D01*
X205913Y508655D01*
X205845Y508632D01*
X205779Y508606D01*
X205714Y508577D01*
X205650Y508544D01*
X205589Y508508D01*
X205529Y508468D01*
X205472Y508426D01*
X205417Y508380D01*
X205364Y508332D01*
X205315Y508281D01*
X205268Y508227D01*
X205224Y508171D01*
X205183Y508112D01*
X205145Y508052D01*
X205110Y507989D01*
X205079Y507925D01*
X205051Y507859D01*
X205027Y507792D01*
X205006Y507724D01*
X204989Y507654D01*
X204976Y507584D01*
X204967Y507514D01*
X204961Y507442D01*
X204959Y507371D01*
X204960Y507371D02*
X204960Y506031D01*
X207641Y512662D02*
X207639Y512730D01*
X207633Y512797D01*
X207624Y512864D01*
X207611Y512931D01*
X207594Y512996D01*
X207573Y513061D01*
X207549Y513124D01*
X207521Y513186D01*
X207490Y513246D01*
X207456Y513304D01*
X207418Y513360D01*
X207378Y513415D01*
X207334Y513466D01*
X207287Y513515D01*
X207238Y513562D01*
X207187Y513606D01*
X207132Y513646D01*
X207076Y513684D01*
X207018Y513718D01*
X206958Y513749D01*
X206896Y513777D01*
X206833Y513801D01*
X206768Y513822D01*
X206703Y513839D01*
X206636Y513852D01*
X206569Y513861D01*
X206502Y513867D01*
X206434Y513869D01*
X207641Y512662D02*
X207639Y512584D01*
X207633Y512506D01*
X207623Y512429D01*
X207610Y512352D01*
X207592Y512276D01*
X207571Y512201D01*
X207546Y512127D01*
X207517Y512055D01*
X207485Y511984D01*
X207449Y511915D01*
X207410Y511847D01*
X207367Y511782D01*
X207321Y511719D01*
X207272Y511658D01*
X207220Y511600D01*
X207165Y511545D01*
X207108Y511492D01*
X207048Y511443D01*
X206985Y511396D01*
X206920Y511353D01*
X206854Y511313D01*
X206785Y511276D01*
X206714Y511243D01*
X206642Y511213D01*
X206569Y511187D01*
X205496Y513467D02*
X205545Y513516D01*
X205597Y513563D01*
X205652Y513606D01*
X205709Y513647D01*
X205768Y513685D01*
X205829Y513719D01*
X205892Y513750D01*
X205956Y513778D01*
X206022Y513802D01*
X206088Y513822D01*
X206156Y513839D01*
X206225Y513852D01*
X206294Y513861D01*
X206364Y513867D01*
X206434Y513869D01*
X205496Y513467D02*
X202815Y511188D01*
X202815Y513869D01*
X207105Y516674D02*
X207641Y516674D01*
X207641Y519355D01*
X202815Y518015D01*
X225931Y32503D02*
X229685Y32503D01*
X225931Y32503D02*
X225866Y32501D01*
X225802Y32495D01*
X225738Y32485D01*
X225674Y32472D01*
X225612Y32454D01*
X225551Y32433D01*
X225491Y32409D01*
X225433Y32380D01*
X225376Y32348D01*
X225322Y32313D01*
X225270Y32275D01*
X225220Y32233D01*
X225173Y32189D01*
X225129Y32142D01*
X225087Y32092D01*
X225049Y32040D01*
X225014Y31986D01*
X224982Y31929D01*
X224953Y31871D01*
X224929Y31811D01*
X224908Y31750D01*
X224890Y31688D01*
X224877Y31624D01*
X224867Y31560D01*
X224861Y31496D01*
X224859Y31431D01*
X224859Y30895D01*
X224859Y35781D02*
X229685Y35781D01*
X229685Y37121D01*
X229683Y37192D01*
X229677Y37264D01*
X229668Y37334D01*
X229655Y37404D01*
X229638Y37474D01*
X229617Y37542D01*
X229593Y37609D01*
X229565Y37675D01*
X229534Y37739D01*
X229499Y37802D01*
X229461Y37862D01*
X229420Y37921D01*
X229376Y37977D01*
X229329Y38031D01*
X229280Y38082D01*
X229227Y38130D01*
X229172Y38176D01*
X229115Y38218D01*
X229055Y38258D01*
X228994Y38294D01*
X228930Y38327D01*
X228865Y38356D01*
X228799Y38382D01*
X228731Y38405D01*
X228662Y38424D01*
X228592Y38439D01*
X228522Y38450D01*
X228451Y38458D01*
X228380Y38462D01*
X228308Y38462D01*
X228237Y38458D01*
X228166Y38450D01*
X228096Y38439D01*
X228026Y38424D01*
X227957Y38405D01*
X227889Y38382D01*
X227823Y38356D01*
X227758Y38327D01*
X227694Y38294D01*
X227633Y38258D01*
X227573Y38218D01*
X227516Y38176D01*
X227461Y38130D01*
X227408Y38082D01*
X227359Y38031D01*
X227312Y37977D01*
X227268Y37921D01*
X227227Y37862D01*
X227189Y37802D01*
X227154Y37739D01*
X227123Y37675D01*
X227095Y37609D01*
X227071Y37542D01*
X227050Y37474D01*
X227033Y37404D01*
X227020Y37334D01*
X227011Y37264D01*
X227005Y37192D01*
X227003Y37121D01*
X227004Y37121D02*
X227004Y35781D01*
X229685Y42412D02*
X229683Y42480D01*
X229677Y42547D01*
X229668Y42614D01*
X229655Y42681D01*
X229638Y42746D01*
X229617Y42811D01*
X229593Y42874D01*
X229565Y42936D01*
X229534Y42996D01*
X229500Y43054D01*
X229462Y43110D01*
X229422Y43165D01*
X229378Y43216D01*
X229331Y43265D01*
X229282Y43312D01*
X229231Y43356D01*
X229176Y43396D01*
X229120Y43434D01*
X229062Y43468D01*
X229002Y43499D01*
X228940Y43527D01*
X228877Y43551D01*
X228812Y43572D01*
X228747Y43589D01*
X228680Y43602D01*
X228613Y43611D01*
X228546Y43617D01*
X228478Y43619D01*
X229685Y42412D02*
X229683Y42334D01*
X229677Y42256D01*
X229667Y42179D01*
X229654Y42102D01*
X229636Y42026D01*
X229615Y41951D01*
X229590Y41877D01*
X229561Y41805D01*
X229529Y41734D01*
X229493Y41665D01*
X229454Y41597D01*
X229411Y41532D01*
X229365Y41469D01*
X229316Y41408D01*
X229264Y41350D01*
X229209Y41295D01*
X229152Y41242D01*
X229092Y41193D01*
X229029Y41146D01*
X228964Y41103D01*
X228898Y41063D01*
X228829Y41026D01*
X228758Y40993D01*
X228686Y40963D01*
X228613Y40937D01*
X227540Y43217D02*
X227589Y43266D01*
X227641Y43313D01*
X227696Y43356D01*
X227753Y43397D01*
X227812Y43435D01*
X227873Y43469D01*
X227936Y43500D01*
X228000Y43528D01*
X228066Y43552D01*
X228132Y43572D01*
X228200Y43589D01*
X228269Y43602D01*
X228338Y43611D01*
X228408Y43617D01*
X228478Y43619D01*
X227540Y43217D02*
X224859Y40938D01*
X224859Y43619D01*
X226200Y46424D02*
X226271Y46426D01*
X226343Y46432D01*
X226413Y46441D01*
X226483Y46454D01*
X226553Y46471D01*
X226621Y46492D01*
X226688Y46516D01*
X226754Y46544D01*
X226818Y46575D01*
X226881Y46610D01*
X226941Y46648D01*
X227000Y46689D01*
X227056Y46733D01*
X227110Y46780D01*
X227161Y46829D01*
X227209Y46882D01*
X227255Y46937D01*
X227297Y46994D01*
X227337Y47054D01*
X227373Y47115D01*
X227406Y47179D01*
X227435Y47244D01*
X227461Y47310D01*
X227484Y47378D01*
X227503Y47447D01*
X227518Y47517D01*
X227529Y47587D01*
X227537Y47658D01*
X227541Y47729D01*
X227541Y47801D01*
X227537Y47872D01*
X227529Y47943D01*
X227518Y48013D01*
X227503Y48083D01*
X227484Y48152D01*
X227461Y48220D01*
X227435Y48286D01*
X227406Y48351D01*
X227373Y48415D01*
X227337Y48476D01*
X227297Y48536D01*
X227255Y48593D01*
X227209Y48648D01*
X227161Y48701D01*
X227110Y48750D01*
X227056Y48797D01*
X227000Y48841D01*
X226941Y48882D01*
X226881Y48920D01*
X226818Y48955D01*
X226754Y48986D01*
X226688Y49014D01*
X226621Y49038D01*
X226553Y49059D01*
X226483Y49076D01*
X226413Y49089D01*
X226343Y49098D01*
X226271Y49104D01*
X226200Y49106D01*
X226129Y49104D01*
X226057Y49098D01*
X225987Y49089D01*
X225917Y49076D01*
X225847Y49059D01*
X225779Y49038D01*
X225712Y49014D01*
X225646Y48986D01*
X225582Y48955D01*
X225519Y48920D01*
X225459Y48882D01*
X225400Y48841D01*
X225344Y48797D01*
X225290Y48750D01*
X225239Y48701D01*
X225191Y48648D01*
X225145Y48593D01*
X225103Y48536D01*
X225063Y48476D01*
X225027Y48415D01*
X224994Y48351D01*
X224965Y48286D01*
X224939Y48220D01*
X224916Y48152D01*
X224897Y48083D01*
X224882Y48013D01*
X224871Y47943D01*
X224863Y47872D01*
X224859Y47801D01*
X224859Y47729D01*
X224863Y47658D01*
X224871Y47587D01*
X224882Y47517D01*
X224897Y47447D01*
X224916Y47378D01*
X224939Y47310D01*
X224965Y47244D01*
X224994Y47179D01*
X225027Y47115D01*
X225063Y47054D01*
X225103Y46994D01*
X225145Y46937D01*
X225191Y46882D01*
X225239Y46829D01*
X225290Y46780D01*
X225344Y46733D01*
X225400Y46689D01*
X225459Y46648D01*
X225519Y46610D01*
X225582Y46575D01*
X225646Y46544D01*
X225712Y46516D01*
X225779Y46492D01*
X225847Y46471D01*
X225917Y46454D01*
X225987Y46441D01*
X226057Y46432D01*
X226129Y46426D01*
X226200Y46424D01*
X228613Y46693D02*
X228678Y46695D01*
X228742Y46701D01*
X228806Y46711D01*
X228870Y46724D01*
X228932Y46742D01*
X228993Y46763D01*
X229053Y46787D01*
X229111Y46816D01*
X229168Y46848D01*
X229222Y46883D01*
X229274Y46921D01*
X229324Y46963D01*
X229371Y47007D01*
X229415Y47054D01*
X229457Y47104D01*
X229495Y47156D01*
X229530Y47210D01*
X229562Y47267D01*
X229591Y47325D01*
X229615Y47385D01*
X229636Y47446D01*
X229654Y47508D01*
X229667Y47572D01*
X229677Y47636D01*
X229683Y47700D01*
X229685Y47765D01*
X229683Y47830D01*
X229677Y47894D01*
X229667Y47958D01*
X229654Y48022D01*
X229636Y48084D01*
X229615Y48145D01*
X229591Y48205D01*
X229562Y48263D01*
X229530Y48320D01*
X229495Y48374D01*
X229457Y48426D01*
X229415Y48476D01*
X229371Y48523D01*
X229324Y48567D01*
X229274Y48609D01*
X229222Y48647D01*
X229168Y48682D01*
X229111Y48714D01*
X229053Y48743D01*
X228993Y48767D01*
X228932Y48788D01*
X228870Y48806D01*
X228806Y48819D01*
X228742Y48829D01*
X228678Y48835D01*
X228613Y48837D01*
X228548Y48835D01*
X228484Y48829D01*
X228420Y48819D01*
X228356Y48806D01*
X228294Y48788D01*
X228233Y48767D01*
X228173Y48743D01*
X228115Y48714D01*
X228058Y48682D01*
X228004Y48647D01*
X227952Y48609D01*
X227902Y48567D01*
X227855Y48523D01*
X227811Y48476D01*
X227769Y48426D01*
X227731Y48374D01*
X227696Y48320D01*
X227664Y48263D01*
X227635Y48205D01*
X227611Y48145D01*
X227590Y48084D01*
X227572Y48022D01*
X227559Y47958D01*
X227549Y47894D01*
X227543Y47830D01*
X227541Y47765D01*
X227543Y47700D01*
X227549Y47636D01*
X227559Y47572D01*
X227572Y47508D01*
X227590Y47446D01*
X227611Y47385D01*
X227635Y47325D01*
X227664Y47267D01*
X227696Y47210D01*
X227731Y47156D01*
X227769Y47104D01*
X227811Y47054D01*
X227855Y47007D01*
X227902Y46963D01*
X227952Y46921D01*
X228004Y46883D01*
X228058Y46848D01*
X228115Y46816D01*
X228173Y46787D01*
X228233Y46763D01*
X228294Y46742D01*
X228356Y46724D01*
X228420Y46711D01*
X228484Y46701D01*
X228548Y46695D01*
X228613Y46693D01*
X254887Y503003D02*
X258641Y503003D01*
X254887Y503003D02*
X254822Y503001D01*
X254758Y502995D01*
X254694Y502985D01*
X254630Y502972D01*
X254568Y502954D01*
X254507Y502933D01*
X254447Y502909D01*
X254389Y502880D01*
X254332Y502848D01*
X254278Y502813D01*
X254226Y502775D01*
X254176Y502733D01*
X254129Y502689D01*
X254085Y502642D01*
X254043Y502592D01*
X254005Y502540D01*
X253970Y502486D01*
X253938Y502429D01*
X253909Y502371D01*
X253885Y502311D01*
X253864Y502250D01*
X253846Y502188D01*
X253833Y502124D01*
X253823Y502060D01*
X253817Y501996D01*
X253815Y501931D01*
X253815Y501395D01*
X253815Y506281D02*
X258641Y506281D01*
X258641Y507621D01*
X258639Y507692D01*
X258633Y507764D01*
X258624Y507834D01*
X258611Y507904D01*
X258594Y507974D01*
X258573Y508042D01*
X258549Y508109D01*
X258521Y508175D01*
X258490Y508239D01*
X258455Y508302D01*
X258417Y508362D01*
X258376Y508421D01*
X258332Y508477D01*
X258285Y508531D01*
X258236Y508582D01*
X258183Y508630D01*
X258128Y508676D01*
X258071Y508718D01*
X258011Y508758D01*
X257950Y508794D01*
X257886Y508827D01*
X257821Y508856D01*
X257755Y508882D01*
X257687Y508905D01*
X257618Y508924D01*
X257548Y508939D01*
X257478Y508950D01*
X257407Y508958D01*
X257336Y508962D01*
X257264Y508962D01*
X257193Y508958D01*
X257122Y508950D01*
X257052Y508939D01*
X256982Y508924D01*
X256913Y508905D01*
X256845Y508882D01*
X256779Y508856D01*
X256714Y508827D01*
X256650Y508794D01*
X256589Y508758D01*
X256529Y508718D01*
X256472Y508676D01*
X256417Y508630D01*
X256364Y508582D01*
X256315Y508531D01*
X256268Y508477D01*
X256224Y508421D01*
X256183Y508362D01*
X256145Y508302D01*
X256110Y508239D01*
X256079Y508175D01*
X256051Y508109D01*
X256027Y508042D01*
X256006Y507974D01*
X255989Y507904D01*
X255976Y507834D01*
X255967Y507764D01*
X255961Y507692D01*
X255959Y507621D01*
X255960Y507621D02*
X255960Y506281D01*
X258641Y512912D02*
X258639Y512980D01*
X258633Y513047D01*
X258624Y513114D01*
X258611Y513181D01*
X258594Y513246D01*
X258573Y513311D01*
X258549Y513374D01*
X258521Y513436D01*
X258490Y513496D01*
X258456Y513554D01*
X258418Y513610D01*
X258378Y513665D01*
X258334Y513716D01*
X258287Y513765D01*
X258238Y513812D01*
X258187Y513856D01*
X258132Y513896D01*
X258076Y513934D01*
X258018Y513968D01*
X257958Y513999D01*
X257896Y514027D01*
X257833Y514051D01*
X257768Y514072D01*
X257703Y514089D01*
X257636Y514102D01*
X257569Y514111D01*
X257502Y514117D01*
X257434Y514119D01*
X258641Y512912D02*
X258639Y512834D01*
X258633Y512756D01*
X258623Y512679D01*
X258610Y512602D01*
X258592Y512526D01*
X258571Y512451D01*
X258546Y512377D01*
X258517Y512305D01*
X258485Y512234D01*
X258449Y512165D01*
X258410Y512097D01*
X258367Y512032D01*
X258321Y511969D01*
X258272Y511908D01*
X258220Y511850D01*
X258165Y511795D01*
X258108Y511742D01*
X258048Y511693D01*
X257985Y511646D01*
X257920Y511603D01*
X257854Y511563D01*
X257785Y511526D01*
X257714Y511493D01*
X257642Y511463D01*
X257569Y511437D01*
X256496Y513717D02*
X256545Y513766D01*
X256597Y513813D01*
X256652Y513856D01*
X256709Y513897D01*
X256768Y513935D01*
X256829Y513969D01*
X256892Y514000D01*
X256956Y514028D01*
X257022Y514052D01*
X257088Y514072D01*
X257156Y514089D01*
X257225Y514102D01*
X257294Y514111D01*
X257364Y514117D01*
X257434Y514119D01*
X256496Y513717D02*
X253815Y511438D01*
X253815Y514119D01*
X255960Y517997D02*
X255960Y519605D01*
X255960Y517997D02*
X255962Y517932D01*
X255968Y517868D01*
X255978Y517804D01*
X255991Y517740D01*
X256009Y517678D01*
X256030Y517617D01*
X256054Y517557D01*
X256083Y517499D01*
X256115Y517442D01*
X256150Y517388D01*
X256188Y517336D01*
X256230Y517286D01*
X256274Y517239D01*
X256321Y517195D01*
X256371Y517153D01*
X256423Y517115D01*
X256477Y517080D01*
X256534Y517048D01*
X256592Y517019D01*
X256652Y516995D01*
X256713Y516974D01*
X256775Y516956D01*
X256839Y516943D01*
X256903Y516933D01*
X256967Y516927D01*
X257032Y516925D01*
X257032Y516924D02*
X257300Y516924D01*
X257371Y516926D01*
X257443Y516932D01*
X257513Y516941D01*
X257583Y516954D01*
X257653Y516971D01*
X257721Y516992D01*
X257788Y517016D01*
X257854Y517044D01*
X257918Y517075D01*
X257981Y517110D01*
X258041Y517148D01*
X258100Y517189D01*
X258156Y517233D01*
X258210Y517280D01*
X258261Y517329D01*
X258309Y517382D01*
X258355Y517437D01*
X258397Y517494D01*
X258437Y517554D01*
X258473Y517615D01*
X258506Y517679D01*
X258535Y517744D01*
X258561Y517810D01*
X258584Y517878D01*
X258603Y517947D01*
X258618Y518017D01*
X258629Y518087D01*
X258637Y518158D01*
X258641Y518229D01*
X258641Y518301D01*
X258637Y518372D01*
X258629Y518443D01*
X258618Y518513D01*
X258603Y518583D01*
X258584Y518652D01*
X258561Y518720D01*
X258535Y518786D01*
X258506Y518851D01*
X258473Y518915D01*
X258437Y518976D01*
X258397Y519036D01*
X258355Y519093D01*
X258309Y519148D01*
X258261Y519201D01*
X258210Y519250D01*
X258156Y519297D01*
X258100Y519341D01*
X258041Y519382D01*
X257981Y519420D01*
X257918Y519455D01*
X257854Y519486D01*
X257788Y519514D01*
X257721Y519538D01*
X257653Y519559D01*
X257583Y519576D01*
X257513Y519589D01*
X257443Y519598D01*
X257371Y519604D01*
X257300Y519606D01*
X257300Y519605D02*
X255960Y519605D01*
X255869Y519603D01*
X255778Y519597D01*
X255688Y519588D01*
X255597Y519574D01*
X255508Y519557D01*
X255420Y519536D01*
X255332Y519511D01*
X255245Y519482D01*
X255160Y519450D01*
X255076Y519415D01*
X254994Y519375D01*
X254914Y519333D01*
X254835Y519287D01*
X254759Y519237D01*
X254685Y519185D01*
X254612Y519129D01*
X254543Y519070D01*
X254476Y519009D01*
X254411Y518944D01*
X254350Y518877D01*
X254291Y518808D01*
X254235Y518735D01*
X254183Y518661D01*
X254133Y518585D01*
X254087Y518506D01*
X254045Y518426D01*
X254005Y518344D01*
X253970Y518260D01*
X253938Y518175D01*
X253909Y518088D01*
X253884Y518000D01*
X253863Y517912D01*
X253846Y517823D01*
X253832Y517732D01*
X253823Y517642D01*
X253817Y517551D01*
X253815Y517460D01*
X614637Y503003D02*
X618391Y503003D01*
X614637Y503003D02*
X614572Y503001D01*
X614508Y502995D01*
X614444Y502985D01*
X614380Y502972D01*
X614318Y502954D01*
X614257Y502933D01*
X614197Y502909D01*
X614139Y502880D01*
X614082Y502848D01*
X614028Y502813D01*
X613976Y502775D01*
X613926Y502733D01*
X613879Y502689D01*
X613835Y502642D01*
X613793Y502592D01*
X613755Y502540D01*
X613720Y502486D01*
X613688Y502429D01*
X613659Y502371D01*
X613635Y502311D01*
X613614Y502250D01*
X613596Y502188D01*
X613583Y502124D01*
X613573Y502060D01*
X613567Y501996D01*
X613565Y501931D01*
X613565Y501395D01*
X613565Y506281D02*
X618391Y506281D01*
X618391Y507621D01*
X618389Y507692D01*
X618383Y507764D01*
X618374Y507834D01*
X618361Y507904D01*
X618344Y507974D01*
X618323Y508042D01*
X618299Y508109D01*
X618271Y508175D01*
X618240Y508239D01*
X618205Y508302D01*
X618167Y508362D01*
X618126Y508421D01*
X618082Y508477D01*
X618035Y508531D01*
X617986Y508582D01*
X617933Y508630D01*
X617878Y508676D01*
X617821Y508718D01*
X617761Y508758D01*
X617700Y508794D01*
X617636Y508827D01*
X617571Y508856D01*
X617505Y508882D01*
X617437Y508905D01*
X617368Y508924D01*
X617298Y508939D01*
X617228Y508950D01*
X617157Y508958D01*
X617086Y508962D01*
X617014Y508962D01*
X616943Y508958D01*
X616872Y508950D01*
X616802Y508939D01*
X616732Y508924D01*
X616663Y508905D01*
X616595Y508882D01*
X616529Y508856D01*
X616464Y508827D01*
X616400Y508794D01*
X616339Y508758D01*
X616279Y508718D01*
X616222Y508676D01*
X616167Y508630D01*
X616114Y508582D01*
X616065Y508531D01*
X616018Y508477D01*
X615974Y508421D01*
X615933Y508362D01*
X615895Y508302D01*
X615860Y508239D01*
X615829Y508175D01*
X615801Y508109D01*
X615777Y508042D01*
X615756Y507974D01*
X615739Y507904D01*
X615726Y507834D01*
X615717Y507764D01*
X615711Y507692D01*
X615709Y507621D01*
X615710Y507621D02*
X615710Y506281D01*
X613565Y511438D02*
X613565Y512778D01*
X613567Y512849D01*
X613573Y512921D01*
X613582Y512991D01*
X613595Y513061D01*
X613612Y513131D01*
X613633Y513199D01*
X613657Y513266D01*
X613685Y513332D01*
X613716Y513396D01*
X613751Y513459D01*
X613789Y513519D01*
X613830Y513578D01*
X613874Y513634D01*
X613921Y513688D01*
X613970Y513739D01*
X614023Y513787D01*
X614078Y513833D01*
X614135Y513875D01*
X614195Y513915D01*
X614256Y513951D01*
X614320Y513984D01*
X614385Y514013D01*
X614451Y514039D01*
X614519Y514062D01*
X614588Y514081D01*
X614658Y514096D01*
X614728Y514107D01*
X614799Y514115D01*
X614870Y514119D01*
X614942Y514119D01*
X615013Y514115D01*
X615084Y514107D01*
X615154Y514096D01*
X615224Y514081D01*
X615293Y514062D01*
X615361Y514039D01*
X615427Y514013D01*
X615492Y513984D01*
X615556Y513951D01*
X615617Y513915D01*
X615677Y513875D01*
X615734Y513833D01*
X615789Y513787D01*
X615842Y513739D01*
X615891Y513688D01*
X615938Y513634D01*
X615982Y513578D01*
X616023Y513519D01*
X616061Y513459D01*
X616096Y513396D01*
X616127Y513332D01*
X616155Y513266D01*
X616179Y513199D01*
X616200Y513131D01*
X616217Y513061D01*
X616230Y512991D01*
X616239Y512921D01*
X616245Y512849D01*
X616247Y512778D01*
X618391Y513046D02*
X618391Y511438D01*
X618391Y513046D02*
X618389Y513111D01*
X618383Y513175D01*
X618373Y513239D01*
X618360Y513303D01*
X618342Y513365D01*
X618321Y513426D01*
X618297Y513486D01*
X618268Y513544D01*
X618236Y513601D01*
X618201Y513655D01*
X618163Y513707D01*
X618121Y513757D01*
X618077Y513804D01*
X618030Y513848D01*
X617980Y513890D01*
X617928Y513928D01*
X617874Y513963D01*
X617817Y513995D01*
X617759Y514024D01*
X617699Y514048D01*
X617638Y514069D01*
X617576Y514087D01*
X617512Y514100D01*
X617448Y514110D01*
X617384Y514116D01*
X617319Y514118D01*
X617254Y514116D01*
X617190Y514110D01*
X617126Y514100D01*
X617062Y514087D01*
X617000Y514069D01*
X616939Y514048D01*
X616879Y514024D01*
X616821Y513995D01*
X616764Y513963D01*
X616710Y513928D01*
X616658Y513890D01*
X616608Y513848D01*
X616561Y513804D01*
X616517Y513757D01*
X616475Y513707D01*
X616437Y513655D01*
X616402Y513601D01*
X616370Y513544D01*
X616341Y513486D01*
X616317Y513426D01*
X616296Y513365D01*
X616278Y513303D01*
X616265Y513239D01*
X616255Y513175D01*
X616249Y513111D01*
X616247Y513046D01*
X616246Y513046D02*
X616246Y511974D01*
X615978Y516924D02*
X616098Y516926D01*
X616218Y516931D01*
X616338Y516940D01*
X616458Y516953D01*
X616577Y516969D01*
X616696Y516989D01*
X616814Y517013D01*
X616931Y517040D01*
X617047Y517070D01*
X617162Y517104D01*
X617277Y517142D01*
X617390Y517183D01*
X617501Y517227D01*
X617612Y517275D01*
X617721Y517326D01*
X617721Y517327D02*
X617778Y517348D01*
X617834Y517374D01*
X617889Y517402D01*
X617941Y517434D01*
X617992Y517470D01*
X618040Y517508D01*
X618086Y517549D01*
X618129Y517593D01*
X618169Y517639D01*
X618206Y517688D01*
X618240Y517740D01*
X618271Y517793D01*
X618299Y517848D01*
X618323Y517904D01*
X618344Y517962D01*
X618361Y518021D01*
X618374Y518081D01*
X618383Y518142D01*
X618389Y518204D01*
X618391Y518265D01*
X618389Y518326D01*
X618383Y518388D01*
X618374Y518449D01*
X618361Y518509D01*
X618344Y518568D01*
X618323Y518626D01*
X618299Y518682D01*
X618271Y518737D01*
X618240Y518790D01*
X618206Y518842D01*
X618169Y518891D01*
X618129Y518937D01*
X618086Y518981D01*
X618040Y519022D01*
X617992Y519060D01*
X617941Y519096D01*
X617889Y519128D01*
X617834Y519156D01*
X617778Y519182D01*
X617721Y519203D01*
X617612Y519254D01*
X617501Y519302D01*
X617390Y519346D01*
X617277Y519387D01*
X617162Y519425D01*
X617047Y519459D01*
X616931Y519489D01*
X616814Y519516D01*
X616696Y519540D01*
X616577Y519560D01*
X616458Y519576D01*
X616338Y519589D01*
X616218Y519598D01*
X616098Y519603D01*
X615978Y519605D01*
X615978Y516924D02*
X615858Y516926D01*
X615738Y516931D01*
X615618Y516940D01*
X615498Y516953D01*
X615379Y516969D01*
X615260Y516989D01*
X615142Y517013D01*
X615025Y517040D01*
X614909Y517070D01*
X614794Y517104D01*
X614679Y517142D01*
X614566Y517183D01*
X614455Y517227D01*
X614344Y517275D01*
X614235Y517326D01*
X614235Y517327D02*
X614178Y517348D01*
X614122Y517374D01*
X614067Y517402D01*
X614015Y517434D01*
X613964Y517470D01*
X613916Y517508D01*
X613870Y517549D01*
X613827Y517593D01*
X613787Y517639D01*
X613750Y517688D01*
X613716Y517740D01*
X613685Y517793D01*
X613657Y517848D01*
X613633Y517904D01*
X613612Y517962D01*
X613595Y518021D01*
X613582Y518081D01*
X613573Y518142D01*
X613567Y518204D01*
X613565Y518265D01*
X614235Y519203D02*
X614344Y519254D01*
X614455Y519302D01*
X614566Y519346D01*
X614679Y519387D01*
X614794Y519425D01*
X614909Y519459D01*
X615025Y519489D01*
X615142Y519516D01*
X615260Y519540D01*
X615379Y519560D01*
X615498Y519576D01*
X615618Y519589D01*
X615738Y519598D01*
X615858Y519603D01*
X615978Y519605D01*
X614235Y519203D02*
X614178Y519182D01*
X614122Y519156D01*
X614067Y519128D01*
X614015Y519096D01*
X613964Y519060D01*
X613916Y519022D01*
X613870Y518981D01*
X613827Y518937D01*
X613787Y518890D01*
X613750Y518842D01*
X613716Y518790D01*
X613685Y518737D01*
X613657Y518682D01*
X613633Y518626D01*
X613612Y518568D01*
X613595Y518509D01*
X613582Y518449D01*
X613573Y518388D01*
X613567Y518326D01*
X613565Y518265D01*
X614637Y517192D02*
X617319Y519337D01*
X974887Y503003D02*
X978641Y503003D01*
X974887Y503003D02*
X974822Y503001D01*
X974758Y502995D01*
X974694Y502985D01*
X974630Y502972D01*
X974568Y502954D01*
X974507Y502933D01*
X974447Y502909D01*
X974389Y502880D01*
X974332Y502848D01*
X974278Y502813D01*
X974226Y502775D01*
X974176Y502733D01*
X974129Y502689D01*
X974085Y502642D01*
X974043Y502592D01*
X974005Y502540D01*
X973970Y502486D01*
X973938Y502429D01*
X973909Y502371D01*
X973885Y502311D01*
X973864Y502250D01*
X973846Y502188D01*
X973833Y502124D01*
X973823Y502060D01*
X973817Y501996D01*
X973815Y501931D01*
X973815Y501395D01*
X973815Y506281D02*
X978641Y506281D01*
X978641Y507621D01*
X978639Y507692D01*
X978633Y507764D01*
X978624Y507834D01*
X978611Y507904D01*
X978594Y507974D01*
X978573Y508042D01*
X978549Y508109D01*
X978521Y508175D01*
X978490Y508239D01*
X978455Y508302D01*
X978417Y508362D01*
X978376Y508421D01*
X978332Y508477D01*
X978285Y508531D01*
X978236Y508582D01*
X978183Y508630D01*
X978128Y508676D01*
X978071Y508718D01*
X978011Y508758D01*
X977950Y508794D01*
X977886Y508827D01*
X977821Y508856D01*
X977755Y508882D01*
X977687Y508905D01*
X977618Y508924D01*
X977548Y508939D01*
X977478Y508950D01*
X977407Y508958D01*
X977336Y508962D01*
X977264Y508962D01*
X977193Y508958D01*
X977122Y508950D01*
X977052Y508939D01*
X976982Y508924D01*
X976913Y508905D01*
X976845Y508882D01*
X976779Y508856D01*
X976714Y508827D01*
X976650Y508794D01*
X976589Y508758D01*
X976529Y508718D01*
X976472Y508676D01*
X976417Y508630D01*
X976364Y508582D01*
X976315Y508531D01*
X976268Y508477D01*
X976224Y508421D01*
X976183Y508362D01*
X976145Y508302D01*
X976110Y508239D01*
X976079Y508175D01*
X976051Y508109D01*
X976027Y508042D01*
X976006Y507974D01*
X975989Y507904D01*
X975976Y507834D01*
X975967Y507764D01*
X975961Y507692D01*
X975959Y507621D01*
X975960Y507621D02*
X975960Y506281D01*
X973815Y511438D02*
X973815Y512778D01*
X973817Y512849D01*
X973823Y512921D01*
X973832Y512991D01*
X973845Y513061D01*
X973862Y513131D01*
X973883Y513199D01*
X973907Y513266D01*
X973935Y513332D01*
X973966Y513396D01*
X974001Y513459D01*
X974039Y513519D01*
X974080Y513578D01*
X974124Y513634D01*
X974171Y513688D01*
X974220Y513739D01*
X974273Y513787D01*
X974328Y513833D01*
X974385Y513875D01*
X974445Y513915D01*
X974506Y513951D01*
X974570Y513984D01*
X974635Y514013D01*
X974701Y514039D01*
X974769Y514062D01*
X974838Y514081D01*
X974908Y514096D01*
X974978Y514107D01*
X975049Y514115D01*
X975120Y514119D01*
X975192Y514119D01*
X975263Y514115D01*
X975334Y514107D01*
X975404Y514096D01*
X975474Y514081D01*
X975543Y514062D01*
X975611Y514039D01*
X975677Y514013D01*
X975742Y513984D01*
X975806Y513951D01*
X975867Y513915D01*
X975927Y513875D01*
X975984Y513833D01*
X976039Y513787D01*
X976092Y513739D01*
X976141Y513688D01*
X976188Y513634D01*
X976232Y513578D01*
X976273Y513519D01*
X976311Y513459D01*
X976346Y513396D01*
X976377Y513332D01*
X976405Y513266D01*
X976429Y513199D01*
X976450Y513131D01*
X976467Y513061D01*
X976480Y512991D01*
X976489Y512921D01*
X976495Y512849D01*
X976497Y512778D01*
X978641Y513046D02*
X978641Y511438D01*
X978641Y513046D02*
X978639Y513111D01*
X978633Y513175D01*
X978623Y513239D01*
X978610Y513303D01*
X978592Y513365D01*
X978571Y513426D01*
X978547Y513486D01*
X978518Y513544D01*
X978486Y513601D01*
X978451Y513655D01*
X978413Y513707D01*
X978371Y513757D01*
X978327Y513804D01*
X978280Y513848D01*
X978230Y513890D01*
X978178Y513928D01*
X978124Y513963D01*
X978067Y513995D01*
X978009Y514024D01*
X977949Y514048D01*
X977888Y514069D01*
X977826Y514087D01*
X977762Y514100D01*
X977698Y514110D01*
X977634Y514116D01*
X977569Y514118D01*
X977504Y514116D01*
X977440Y514110D01*
X977376Y514100D01*
X977312Y514087D01*
X977250Y514069D01*
X977189Y514048D01*
X977129Y514024D01*
X977071Y513995D01*
X977014Y513963D01*
X976960Y513928D01*
X976908Y513890D01*
X976858Y513848D01*
X976811Y513804D01*
X976767Y513757D01*
X976725Y513707D01*
X976687Y513655D01*
X976652Y513601D01*
X976620Y513544D01*
X976591Y513486D01*
X976567Y513426D01*
X976546Y513365D01*
X976528Y513303D01*
X976515Y513239D01*
X976505Y513175D01*
X976499Y513111D01*
X976497Y513046D01*
X976496Y513046D02*
X976496Y511974D01*
X977569Y516924D02*
X978641Y518265D01*
X973815Y518265D01*
X973815Y519605D02*
X973815Y516924D01*
M02*
