G04 EAGLE Gerber RS-274X export*
G75*
%MOMM*%
%FSLAX34Y34*%
%LPD*%
%INSoldermask Bottom*%
%IPPOS*%
%AMOC8*
5,1,8,0,0,1.08239X$1,22.5*%
G01*
%ADD10C,2.408200*%
%ADD11C,1.393200*%
%ADD12C,1.511200*%
%ADD13R,1.511200X1.511200*%
%ADD14C,1.703200*%
%ADD15R,1.311200X1.311200*%
%ADD16C,1.629600*%
%ADD17C,0.251459*%

G36*
X141085Y507972D02*
X141085Y507972D01*
X141151Y507974D01*
X141194Y507992D01*
X141241Y508000D01*
X141298Y508034D01*
X141358Y508059D01*
X141393Y508090D01*
X141434Y508115D01*
X141476Y508166D01*
X141524Y508210D01*
X141546Y508252D01*
X141575Y508289D01*
X141596Y508351D01*
X141627Y508410D01*
X141635Y508464D01*
X141647Y508501D01*
X141646Y508541D01*
X141654Y508595D01*
X141654Y512405D01*
X141643Y512470D01*
X141641Y512536D01*
X141623Y512579D01*
X141615Y512626D01*
X141581Y512683D01*
X141556Y512743D01*
X141525Y512778D01*
X141500Y512819D01*
X141449Y512861D01*
X141405Y512909D01*
X141363Y512931D01*
X141326Y512960D01*
X141264Y512981D01*
X141205Y513012D01*
X141151Y513020D01*
X141114Y513032D01*
X141074Y513031D01*
X141020Y513039D01*
X138480Y513039D01*
X138415Y513028D01*
X138349Y513026D01*
X138306Y513008D01*
X138259Y513000D01*
X138202Y512966D01*
X138142Y512941D01*
X138107Y512910D01*
X138066Y512885D01*
X138025Y512834D01*
X137976Y512790D01*
X137954Y512748D01*
X137925Y512711D01*
X137904Y512649D01*
X137873Y512590D01*
X137865Y512536D01*
X137853Y512499D01*
X137853Y512495D01*
X137853Y512494D01*
X137854Y512459D01*
X137846Y512405D01*
X137846Y508595D01*
X137857Y508530D01*
X137859Y508464D01*
X137877Y508421D01*
X137885Y508374D01*
X137919Y508317D01*
X137944Y508257D01*
X137975Y508222D01*
X138000Y508181D01*
X138051Y508140D01*
X138095Y508091D01*
X138137Y508069D01*
X138174Y508040D01*
X138236Y508019D01*
X138295Y507988D01*
X138349Y507980D01*
X138386Y507968D01*
X138426Y507969D01*
X138480Y507961D01*
X141020Y507961D01*
X141085Y507972D01*
G37*
G36*
X243085Y507972D02*
X243085Y507972D01*
X243151Y507974D01*
X243194Y507992D01*
X243241Y508000D01*
X243298Y508034D01*
X243358Y508059D01*
X243393Y508090D01*
X243434Y508115D01*
X243476Y508166D01*
X243524Y508210D01*
X243546Y508252D01*
X243575Y508289D01*
X243596Y508351D01*
X243627Y508410D01*
X243635Y508464D01*
X243647Y508501D01*
X243646Y508541D01*
X243654Y508595D01*
X243654Y512405D01*
X243643Y512470D01*
X243641Y512536D01*
X243623Y512579D01*
X243615Y512626D01*
X243581Y512683D01*
X243556Y512743D01*
X243525Y512778D01*
X243500Y512819D01*
X243449Y512861D01*
X243405Y512909D01*
X243363Y512931D01*
X243326Y512960D01*
X243264Y512981D01*
X243205Y513012D01*
X243151Y513020D01*
X243114Y513032D01*
X243074Y513031D01*
X243020Y513039D01*
X240480Y513039D01*
X240415Y513028D01*
X240349Y513026D01*
X240306Y513008D01*
X240259Y513000D01*
X240202Y512966D01*
X240142Y512941D01*
X240107Y512910D01*
X240066Y512885D01*
X240025Y512834D01*
X239976Y512790D01*
X239954Y512748D01*
X239925Y512711D01*
X239904Y512649D01*
X239873Y512590D01*
X239865Y512536D01*
X239853Y512499D01*
X239853Y512495D01*
X239853Y512494D01*
X239854Y512459D01*
X239846Y512405D01*
X239846Y508595D01*
X239857Y508530D01*
X239859Y508464D01*
X239877Y508421D01*
X239885Y508374D01*
X239919Y508317D01*
X239944Y508257D01*
X239975Y508222D01*
X240000Y508181D01*
X240051Y508140D01*
X240095Y508091D01*
X240137Y508069D01*
X240174Y508040D01*
X240236Y508019D01*
X240295Y507988D01*
X240349Y507980D01*
X240386Y507968D01*
X240426Y507969D01*
X240480Y507961D01*
X243020Y507961D01*
X243085Y507972D01*
G37*
G36*
X602835Y507972D02*
X602835Y507972D01*
X602901Y507974D01*
X602944Y507992D01*
X602991Y508000D01*
X603048Y508034D01*
X603108Y508059D01*
X603143Y508090D01*
X603184Y508115D01*
X603226Y508166D01*
X603274Y508210D01*
X603296Y508252D01*
X603325Y508289D01*
X603346Y508351D01*
X603377Y508410D01*
X603385Y508464D01*
X603397Y508501D01*
X603396Y508541D01*
X603404Y508595D01*
X603404Y512405D01*
X603393Y512470D01*
X603391Y512536D01*
X603373Y512579D01*
X603365Y512626D01*
X603331Y512683D01*
X603306Y512743D01*
X603275Y512778D01*
X603250Y512819D01*
X603199Y512861D01*
X603155Y512909D01*
X603113Y512931D01*
X603076Y512960D01*
X603014Y512981D01*
X602955Y513012D01*
X602901Y513020D01*
X602864Y513032D01*
X602824Y513031D01*
X602770Y513039D01*
X600230Y513039D01*
X600165Y513028D01*
X600099Y513026D01*
X600056Y513008D01*
X600009Y513000D01*
X599952Y512966D01*
X599892Y512941D01*
X599857Y512910D01*
X599816Y512885D01*
X599775Y512834D01*
X599726Y512790D01*
X599704Y512748D01*
X599675Y512711D01*
X599654Y512649D01*
X599623Y512590D01*
X599615Y512536D01*
X599603Y512499D01*
X599603Y512495D01*
X599603Y512494D01*
X599604Y512459D01*
X599596Y512405D01*
X599596Y508595D01*
X599607Y508530D01*
X599609Y508464D01*
X599627Y508421D01*
X599635Y508374D01*
X599669Y508317D01*
X599694Y508257D01*
X599725Y508222D01*
X599750Y508181D01*
X599801Y508140D01*
X599845Y508091D01*
X599887Y508069D01*
X599924Y508040D01*
X599986Y508019D01*
X600045Y507988D01*
X600099Y507980D01*
X600136Y507968D01*
X600176Y507969D01*
X600230Y507961D01*
X602770Y507961D01*
X602835Y507972D01*
G37*
G36*
X90085Y507972D02*
X90085Y507972D01*
X90151Y507974D01*
X90194Y507992D01*
X90241Y508000D01*
X90298Y508034D01*
X90358Y508059D01*
X90393Y508090D01*
X90434Y508115D01*
X90476Y508166D01*
X90524Y508210D01*
X90546Y508252D01*
X90575Y508289D01*
X90596Y508351D01*
X90627Y508410D01*
X90635Y508464D01*
X90647Y508501D01*
X90646Y508541D01*
X90654Y508595D01*
X90654Y512405D01*
X90643Y512470D01*
X90641Y512536D01*
X90623Y512579D01*
X90615Y512626D01*
X90581Y512683D01*
X90556Y512743D01*
X90525Y512778D01*
X90500Y512819D01*
X90449Y512861D01*
X90405Y512909D01*
X90363Y512931D01*
X90326Y512960D01*
X90264Y512981D01*
X90205Y513012D01*
X90151Y513020D01*
X90114Y513032D01*
X90074Y513031D01*
X90020Y513039D01*
X87480Y513039D01*
X87415Y513028D01*
X87349Y513026D01*
X87306Y513008D01*
X87259Y513000D01*
X87202Y512966D01*
X87142Y512941D01*
X87107Y512910D01*
X87066Y512885D01*
X87025Y512834D01*
X86976Y512790D01*
X86954Y512748D01*
X86925Y512711D01*
X86904Y512649D01*
X86873Y512590D01*
X86865Y512536D01*
X86853Y512499D01*
X86853Y512495D01*
X86853Y512494D01*
X86854Y512459D01*
X86846Y512405D01*
X86846Y508595D01*
X86857Y508530D01*
X86859Y508464D01*
X86877Y508421D01*
X86885Y508374D01*
X86919Y508317D01*
X86944Y508257D01*
X86975Y508222D01*
X87000Y508181D01*
X87051Y508140D01*
X87095Y508091D01*
X87137Y508069D01*
X87174Y508040D01*
X87236Y508019D01*
X87295Y507988D01*
X87349Y507980D01*
X87386Y507968D01*
X87426Y507969D01*
X87480Y507961D01*
X90020Y507961D01*
X90085Y507972D01*
G37*
G36*
X399585Y507972D02*
X399585Y507972D01*
X399651Y507974D01*
X399694Y507992D01*
X399741Y508000D01*
X399798Y508034D01*
X399858Y508059D01*
X399893Y508090D01*
X399934Y508115D01*
X399976Y508166D01*
X400024Y508210D01*
X400046Y508252D01*
X400075Y508289D01*
X400096Y508351D01*
X400127Y508410D01*
X400135Y508464D01*
X400147Y508501D01*
X400146Y508541D01*
X400154Y508595D01*
X400154Y512405D01*
X400143Y512470D01*
X400141Y512536D01*
X400123Y512579D01*
X400115Y512626D01*
X400081Y512683D01*
X400056Y512743D01*
X400025Y512778D01*
X400000Y512819D01*
X399949Y512861D01*
X399905Y512909D01*
X399863Y512931D01*
X399826Y512960D01*
X399764Y512981D01*
X399705Y513012D01*
X399651Y513020D01*
X399614Y513032D01*
X399574Y513031D01*
X399520Y513039D01*
X396980Y513039D01*
X396915Y513028D01*
X396849Y513026D01*
X396806Y513008D01*
X396759Y513000D01*
X396702Y512966D01*
X396642Y512941D01*
X396607Y512910D01*
X396566Y512885D01*
X396525Y512834D01*
X396476Y512790D01*
X396454Y512748D01*
X396425Y512711D01*
X396404Y512649D01*
X396373Y512590D01*
X396365Y512536D01*
X396353Y512499D01*
X396353Y512495D01*
X396353Y512494D01*
X396354Y512459D01*
X396346Y512405D01*
X396346Y508595D01*
X396357Y508530D01*
X396359Y508464D01*
X396377Y508421D01*
X396385Y508374D01*
X396419Y508317D01*
X396444Y508257D01*
X396475Y508222D01*
X396500Y508181D01*
X396551Y508140D01*
X396595Y508091D01*
X396637Y508069D01*
X396674Y508040D01*
X396736Y508019D01*
X396795Y507988D01*
X396849Y507980D01*
X396886Y507968D01*
X396926Y507969D01*
X396980Y507961D01*
X399520Y507961D01*
X399585Y507972D01*
G37*
G36*
X963085Y507972D02*
X963085Y507972D01*
X963151Y507974D01*
X963194Y507992D01*
X963241Y508000D01*
X963298Y508034D01*
X963358Y508059D01*
X963393Y508090D01*
X963434Y508115D01*
X963476Y508166D01*
X963524Y508210D01*
X963546Y508252D01*
X963575Y508289D01*
X963596Y508351D01*
X963627Y508410D01*
X963635Y508464D01*
X963647Y508501D01*
X963646Y508541D01*
X963654Y508595D01*
X963654Y512405D01*
X963643Y512470D01*
X963641Y512536D01*
X963623Y512579D01*
X963615Y512626D01*
X963581Y512683D01*
X963556Y512743D01*
X963525Y512778D01*
X963500Y512819D01*
X963449Y512861D01*
X963405Y512909D01*
X963363Y512931D01*
X963326Y512960D01*
X963264Y512981D01*
X963205Y513012D01*
X963151Y513020D01*
X963114Y513032D01*
X963074Y513031D01*
X963020Y513039D01*
X960480Y513039D01*
X960415Y513028D01*
X960349Y513026D01*
X960306Y513008D01*
X960259Y513000D01*
X960202Y512966D01*
X960142Y512941D01*
X960107Y512910D01*
X960066Y512885D01*
X960025Y512834D01*
X959976Y512790D01*
X959954Y512748D01*
X959925Y512711D01*
X959904Y512649D01*
X959873Y512590D01*
X959865Y512536D01*
X959853Y512499D01*
X959853Y512495D01*
X959853Y512494D01*
X959854Y512459D01*
X959846Y512405D01*
X959846Y508595D01*
X959857Y508530D01*
X959859Y508464D01*
X959877Y508421D01*
X959885Y508374D01*
X959919Y508317D01*
X959944Y508257D01*
X959975Y508222D01*
X960000Y508181D01*
X960051Y508140D01*
X960095Y508091D01*
X960137Y508069D01*
X960174Y508040D01*
X960236Y508019D01*
X960295Y507988D01*
X960349Y507980D01*
X960386Y507968D01*
X960426Y507969D01*
X960480Y507961D01*
X963020Y507961D01*
X963085Y507972D01*
G37*
G36*
X759835Y507972D02*
X759835Y507972D01*
X759901Y507974D01*
X759944Y507992D01*
X759991Y508000D01*
X760048Y508034D01*
X760108Y508059D01*
X760143Y508090D01*
X760184Y508115D01*
X760226Y508166D01*
X760274Y508210D01*
X760296Y508252D01*
X760325Y508289D01*
X760346Y508351D01*
X760377Y508410D01*
X760385Y508464D01*
X760397Y508501D01*
X760396Y508541D01*
X760404Y508595D01*
X760404Y512405D01*
X760393Y512470D01*
X760391Y512536D01*
X760373Y512579D01*
X760365Y512626D01*
X760331Y512683D01*
X760306Y512743D01*
X760275Y512778D01*
X760250Y512819D01*
X760199Y512861D01*
X760155Y512909D01*
X760113Y512931D01*
X760076Y512960D01*
X760014Y512981D01*
X759955Y513012D01*
X759901Y513020D01*
X759864Y513032D01*
X759824Y513031D01*
X759770Y513039D01*
X757230Y513039D01*
X757165Y513028D01*
X757099Y513026D01*
X757056Y513008D01*
X757009Y513000D01*
X756952Y512966D01*
X756892Y512941D01*
X756857Y512910D01*
X756816Y512885D01*
X756775Y512834D01*
X756726Y512790D01*
X756704Y512748D01*
X756675Y512711D01*
X756654Y512649D01*
X756623Y512590D01*
X756615Y512536D01*
X756603Y512499D01*
X756603Y512495D01*
X756603Y512494D01*
X756604Y512459D01*
X756596Y512405D01*
X756596Y508595D01*
X756607Y508530D01*
X756609Y508464D01*
X756627Y508421D01*
X756635Y508374D01*
X756669Y508317D01*
X756694Y508257D01*
X756725Y508222D01*
X756750Y508181D01*
X756801Y508140D01*
X756845Y508091D01*
X756887Y508069D01*
X756924Y508040D01*
X756986Y508019D01*
X757045Y507988D01*
X757099Y507980D01*
X757136Y507968D01*
X757176Y507969D01*
X757230Y507961D01*
X759770Y507961D01*
X759835Y507972D01*
G37*
G36*
X912085Y507722D02*
X912085Y507722D01*
X912151Y507724D01*
X912194Y507742D01*
X912241Y507750D01*
X912298Y507784D01*
X912358Y507809D01*
X912393Y507840D01*
X912434Y507865D01*
X912476Y507916D01*
X912524Y507960D01*
X912546Y508002D01*
X912575Y508039D01*
X912596Y508101D01*
X912627Y508160D01*
X912635Y508214D01*
X912647Y508251D01*
X912646Y508291D01*
X912654Y508345D01*
X912654Y512155D01*
X912643Y512220D01*
X912641Y512286D01*
X912623Y512329D01*
X912615Y512376D01*
X912581Y512433D01*
X912556Y512493D01*
X912525Y512528D01*
X912500Y512569D01*
X912449Y512611D01*
X912405Y512659D01*
X912363Y512681D01*
X912326Y512710D01*
X912264Y512731D01*
X912205Y512762D01*
X912151Y512770D01*
X912114Y512782D01*
X912074Y512781D01*
X912020Y512789D01*
X909480Y512789D01*
X909415Y512778D01*
X909349Y512776D01*
X909306Y512758D01*
X909259Y512750D01*
X909202Y512716D01*
X909142Y512691D01*
X909107Y512660D01*
X909066Y512635D01*
X909025Y512584D01*
X908976Y512540D01*
X908954Y512498D01*
X908925Y512461D01*
X908904Y512399D01*
X908873Y512340D01*
X908865Y512286D01*
X908853Y512249D01*
X908853Y512245D01*
X908853Y512244D01*
X908854Y512209D01*
X908846Y512155D01*
X908846Y508345D01*
X908857Y508280D01*
X908859Y508214D01*
X908877Y508171D01*
X908885Y508124D01*
X908919Y508067D01*
X908944Y508007D01*
X908975Y507972D01*
X909000Y507931D01*
X909051Y507890D01*
X909095Y507841D01*
X909137Y507819D01*
X909174Y507790D01*
X909236Y507769D01*
X909295Y507738D01*
X909349Y507730D01*
X909386Y507718D01*
X909426Y507719D01*
X909480Y507711D01*
X912020Y507711D01*
X912085Y507722D01*
G37*
G36*
X192085Y507722D02*
X192085Y507722D01*
X192151Y507724D01*
X192194Y507742D01*
X192241Y507750D01*
X192298Y507784D01*
X192358Y507809D01*
X192393Y507840D01*
X192434Y507865D01*
X192476Y507916D01*
X192524Y507960D01*
X192546Y508002D01*
X192575Y508039D01*
X192596Y508101D01*
X192627Y508160D01*
X192635Y508214D01*
X192647Y508251D01*
X192646Y508291D01*
X192654Y508345D01*
X192654Y512155D01*
X192643Y512220D01*
X192641Y512286D01*
X192623Y512329D01*
X192615Y512376D01*
X192581Y512433D01*
X192556Y512493D01*
X192525Y512528D01*
X192500Y512569D01*
X192449Y512611D01*
X192405Y512659D01*
X192363Y512681D01*
X192326Y512710D01*
X192264Y512731D01*
X192205Y512762D01*
X192151Y512770D01*
X192114Y512782D01*
X192074Y512781D01*
X192020Y512789D01*
X189480Y512789D01*
X189415Y512778D01*
X189349Y512776D01*
X189306Y512758D01*
X189259Y512750D01*
X189202Y512716D01*
X189142Y512691D01*
X189107Y512660D01*
X189066Y512635D01*
X189025Y512584D01*
X188976Y512540D01*
X188954Y512498D01*
X188925Y512461D01*
X188904Y512399D01*
X188873Y512340D01*
X188865Y512286D01*
X188853Y512249D01*
X188853Y512245D01*
X188853Y512244D01*
X188854Y512209D01*
X188846Y512155D01*
X188846Y508345D01*
X188857Y508280D01*
X188859Y508214D01*
X188877Y508171D01*
X188885Y508124D01*
X188919Y508067D01*
X188944Y508007D01*
X188975Y507972D01*
X189000Y507931D01*
X189051Y507890D01*
X189095Y507841D01*
X189137Y507819D01*
X189174Y507790D01*
X189236Y507769D01*
X189295Y507738D01*
X189349Y507730D01*
X189386Y507718D01*
X189426Y507719D01*
X189480Y507711D01*
X192020Y507711D01*
X192085Y507722D01*
G37*
G36*
X39585Y507722D02*
X39585Y507722D01*
X39651Y507724D01*
X39694Y507742D01*
X39741Y507750D01*
X39798Y507784D01*
X39858Y507809D01*
X39893Y507840D01*
X39934Y507865D01*
X39976Y507916D01*
X40024Y507960D01*
X40046Y508002D01*
X40075Y508039D01*
X40096Y508101D01*
X40127Y508160D01*
X40135Y508214D01*
X40147Y508251D01*
X40146Y508291D01*
X40154Y508345D01*
X40154Y512155D01*
X40143Y512220D01*
X40141Y512286D01*
X40123Y512329D01*
X40115Y512376D01*
X40081Y512433D01*
X40056Y512493D01*
X40025Y512528D01*
X40000Y512569D01*
X39949Y512611D01*
X39905Y512659D01*
X39863Y512681D01*
X39826Y512710D01*
X39764Y512731D01*
X39705Y512762D01*
X39651Y512770D01*
X39614Y512782D01*
X39574Y512781D01*
X39520Y512789D01*
X36980Y512789D01*
X36915Y512778D01*
X36849Y512776D01*
X36806Y512758D01*
X36759Y512750D01*
X36702Y512716D01*
X36642Y512691D01*
X36607Y512660D01*
X36566Y512635D01*
X36525Y512584D01*
X36476Y512540D01*
X36454Y512498D01*
X36425Y512461D01*
X36404Y512399D01*
X36373Y512340D01*
X36365Y512286D01*
X36353Y512249D01*
X36353Y512245D01*
X36353Y512244D01*
X36354Y512209D01*
X36346Y512155D01*
X36346Y508345D01*
X36357Y508280D01*
X36359Y508214D01*
X36377Y508171D01*
X36385Y508124D01*
X36419Y508067D01*
X36444Y508007D01*
X36475Y507972D01*
X36500Y507931D01*
X36551Y507890D01*
X36595Y507841D01*
X36637Y507819D01*
X36674Y507790D01*
X36736Y507769D01*
X36795Y507738D01*
X36849Y507730D01*
X36886Y507718D01*
X36926Y507719D01*
X36980Y507711D01*
X39520Y507711D01*
X39585Y507722D01*
G37*
G36*
X861335Y507722D02*
X861335Y507722D01*
X861401Y507724D01*
X861444Y507742D01*
X861491Y507750D01*
X861548Y507784D01*
X861608Y507809D01*
X861643Y507840D01*
X861684Y507865D01*
X861726Y507916D01*
X861774Y507960D01*
X861796Y508002D01*
X861825Y508039D01*
X861846Y508101D01*
X861877Y508160D01*
X861885Y508214D01*
X861897Y508251D01*
X861896Y508291D01*
X861904Y508345D01*
X861904Y512155D01*
X861893Y512220D01*
X861891Y512286D01*
X861873Y512329D01*
X861865Y512376D01*
X861831Y512433D01*
X861806Y512493D01*
X861775Y512528D01*
X861750Y512569D01*
X861699Y512611D01*
X861655Y512659D01*
X861613Y512681D01*
X861576Y512710D01*
X861514Y512731D01*
X861455Y512762D01*
X861401Y512770D01*
X861364Y512782D01*
X861324Y512781D01*
X861270Y512789D01*
X858730Y512789D01*
X858665Y512778D01*
X858599Y512776D01*
X858556Y512758D01*
X858509Y512750D01*
X858452Y512716D01*
X858392Y512691D01*
X858357Y512660D01*
X858316Y512635D01*
X858275Y512584D01*
X858226Y512540D01*
X858204Y512498D01*
X858175Y512461D01*
X858154Y512399D01*
X858123Y512340D01*
X858115Y512286D01*
X858103Y512249D01*
X858103Y512245D01*
X858103Y512244D01*
X858104Y512209D01*
X858096Y512155D01*
X858096Y508345D01*
X858107Y508280D01*
X858109Y508214D01*
X858127Y508171D01*
X858135Y508124D01*
X858169Y508067D01*
X858194Y508007D01*
X858225Y507972D01*
X858250Y507931D01*
X858301Y507890D01*
X858345Y507841D01*
X858387Y507819D01*
X858424Y507790D01*
X858486Y507769D01*
X858545Y507738D01*
X858599Y507730D01*
X858636Y507718D01*
X858676Y507719D01*
X858730Y507711D01*
X861270Y507711D01*
X861335Y507722D01*
G37*
G36*
X552085Y507722D02*
X552085Y507722D01*
X552151Y507724D01*
X552194Y507742D01*
X552241Y507750D01*
X552298Y507784D01*
X552358Y507809D01*
X552393Y507840D01*
X552434Y507865D01*
X552476Y507916D01*
X552524Y507960D01*
X552546Y508002D01*
X552575Y508039D01*
X552596Y508101D01*
X552627Y508160D01*
X552635Y508214D01*
X552647Y508251D01*
X552646Y508291D01*
X552654Y508345D01*
X552654Y512155D01*
X552643Y512220D01*
X552641Y512286D01*
X552623Y512329D01*
X552615Y512376D01*
X552581Y512433D01*
X552556Y512493D01*
X552525Y512528D01*
X552500Y512569D01*
X552449Y512611D01*
X552405Y512659D01*
X552363Y512681D01*
X552326Y512710D01*
X552264Y512731D01*
X552205Y512762D01*
X552151Y512770D01*
X552114Y512782D01*
X552074Y512781D01*
X552020Y512789D01*
X549480Y512789D01*
X549415Y512778D01*
X549349Y512776D01*
X549306Y512758D01*
X549259Y512750D01*
X549202Y512716D01*
X549142Y512691D01*
X549107Y512660D01*
X549066Y512635D01*
X549025Y512584D01*
X548976Y512540D01*
X548954Y512498D01*
X548925Y512461D01*
X548904Y512399D01*
X548873Y512340D01*
X548865Y512286D01*
X548853Y512249D01*
X548853Y512245D01*
X548853Y512244D01*
X548854Y512209D01*
X548846Y512155D01*
X548846Y508345D01*
X548857Y508280D01*
X548859Y508214D01*
X548877Y508171D01*
X548885Y508124D01*
X548919Y508067D01*
X548944Y508007D01*
X548975Y507972D01*
X549000Y507931D01*
X549051Y507890D01*
X549095Y507841D01*
X549137Y507819D01*
X549174Y507790D01*
X549236Y507769D01*
X549295Y507738D01*
X549349Y507730D01*
X549386Y507718D01*
X549426Y507719D01*
X549480Y507711D01*
X552020Y507711D01*
X552085Y507722D01*
G37*
G36*
X810585Y507722D02*
X810585Y507722D01*
X810651Y507724D01*
X810694Y507742D01*
X810741Y507750D01*
X810798Y507784D01*
X810858Y507809D01*
X810893Y507840D01*
X810934Y507865D01*
X810976Y507916D01*
X811024Y507960D01*
X811046Y508002D01*
X811075Y508039D01*
X811096Y508101D01*
X811127Y508160D01*
X811135Y508214D01*
X811147Y508251D01*
X811146Y508291D01*
X811154Y508345D01*
X811154Y512155D01*
X811143Y512220D01*
X811141Y512286D01*
X811123Y512329D01*
X811115Y512376D01*
X811081Y512433D01*
X811056Y512493D01*
X811025Y512528D01*
X811000Y512569D01*
X810949Y512611D01*
X810905Y512659D01*
X810863Y512681D01*
X810826Y512710D01*
X810764Y512731D01*
X810705Y512762D01*
X810651Y512770D01*
X810614Y512782D01*
X810574Y512781D01*
X810520Y512789D01*
X807980Y512789D01*
X807915Y512778D01*
X807849Y512776D01*
X807806Y512758D01*
X807759Y512750D01*
X807702Y512716D01*
X807642Y512691D01*
X807607Y512660D01*
X807566Y512635D01*
X807525Y512584D01*
X807476Y512540D01*
X807454Y512498D01*
X807425Y512461D01*
X807404Y512399D01*
X807373Y512340D01*
X807365Y512286D01*
X807353Y512249D01*
X807353Y512245D01*
X807353Y512244D01*
X807354Y512209D01*
X807346Y512155D01*
X807346Y508345D01*
X807357Y508280D01*
X807359Y508214D01*
X807377Y508171D01*
X807385Y508124D01*
X807419Y508067D01*
X807444Y508007D01*
X807475Y507972D01*
X807500Y507931D01*
X807551Y507890D01*
X807595Y507841D01*
X807637Y507819D01*
X807674Y507790D01*
X807736Y507769D01*
X807795Y507738D01*
X807849Y507730D01*
X807886Y507718D01*
X807926Y507719D01*
X807980Y507711D01*
X810520Y507711D01*
X810585Y507722D01*
G37*
G36*
X450585Y507722D02*
X450585Y507722D01*
X450651Y507724D01*
X450694Y507742D01*
X450741Y507750D01*
X450798Y507784D01*
X450858Y507809D01*
X450893Y507840D01*
X450934Y507865D01*
X450976Y507916D01*
X451024Y507960D01*
X451046Y508002D01*
X451075Y508039D01*
X451096Y508101D01*
X451127Y508160D01*
X451135Y508214D01*
X451147Y508251D01*
X451146Y508291D01*
X451154Y508345D01*
X451154Y512155D01*
X451143Y512220D01*
X451141Y512286D01*
X451123Y512329D01*
X451115Y512376D01*
X451081Y512433D01*
X451056Y512493D01*
X451025Y512528D01*
X451000Y512569D01*
X450949Y512611D01*
X450905Y512659D01*
X450863Y512681D01*
X450826Y512710D01*
X450764Y512731D01*
X450705Y512762D01*
X450651Y512770D01*
X450614Y512782D01*
X450574Y512781D01*
X450520Y512789D01*
X447980Y512789D01*
X447915Y512778D01*
X447849Y512776D01*
X447806Y512758D01*
X447759Y512750D01*
X447702Y512716D01*
X447642Y512691D01*
X447607Y512660D01*
X447566Y512635D01*
X447525Y512584D01*
X447476Y512540D01*
X447454Y512498D01*
X447425Y512461D01*
X447404Y512399D01*
X447373Y512340D01*
X447365Y512286D01*
X447353Y512249D01*
X447353Y512245D01*
X447353Y512244D01*
X447354Y512209D01*
X447346Y512155D01*
X447346Y508345D01*
X447357Y508280D01*
X447359Y508214D01*
X447377Y508171D01*
X447385Y508124D01*
X447419Y508067D01*
X447444Y508007D01*
X447475Y507972D01*
X447500Y507931D01*
X447551Y507890D01*
X447595Y507841D01*
X447637Y507819D01*
X447674Y507790D01*
X447736Y507769D01*
X447795Y507738D01*
X447849Y507730D01*
X447886Y507718D01*
X447926Y507719D01*
X447980Y507711D01*
X450520Y507711D01*
X450585Y507722D01*
G37*
G36*
X501335Y507472D02*
X501335Y507472D01*
X501401Y507474D01*
X501444Y507492D01*
X501491Y507500D01*
X501548Y507534D01*
X501608Y507559D01*
X501643Y507590D01*
X501684Y507615D01*
X501726Y507666D01*
X501774Y507710D01*
X501796Y507752D01*
X501825Y507789D01*
X501846Y507851D01*
X501877Y507910D01*
X501885Y507964D01*
X501897Y508001D01*
X501896Y508041D01*
X501904Y508095D01*
X501904Y511905D01*
X501893Y511970D01*
X501891Y512036D01*
X501873Y512079D01*
X501865Y512126D01*
X501831Y512183D01*
X501806Y512243D01*
X501775Y512278D01*
X501750Y512319D01*
X501699Y512361D01*
X501655Y512409D01*
X501613Y512431D01*
X501576Y512460D01*
X501514Y512481D01*
X501455Y512512D01*
X501401Y512520D01*
X501364Y512532D01*
X501324Y512531D01*
X501270Y512539D01*
X498730Y512539D01*
X498665Y512528D01*
X498599Y512526D01*
X498556Y512508D01*
X498509Y512500D01*
X498452Y512466D01*
X498392Y512441D01*
X498357Y512410D01*
X498316Y512385D01*
X498275Y512334D01*
X498226Y512290D01*
X498204Y512248D01*
X498175Y512211D01*
X498154Y512149D01*
X498123Y512090D01*
X498115Y512036D01*
X498103Y511999D01*
X498103Y511995D01*
X498103Y511994D01*
X498104Y511959D01*
X498096Y511905D01*
X498096Y508095D01*
X498107Y508030D01*
X498109Y507964D01*
X498127Y507921D01*
X498135Y507874D01*
X498169Y507817D01*
X498194Y507757D01*
X498225Y507722D01*
X498250Y507681D01*
X498301Y507640D01*
X498345Y507591D01*
X498387Y507569D01*
X498424Y507540D01*
X498486Y507519D01*
X498545Y507488D01*
X498599Y507480D01*
X498636Y507468D01*
X498676Y507469D01*
X498730Y507461D01*
X501270Y507461D01*
X501335Y507472D01*
G37*
G36*
X90335Y37722D02*
X90335Y37722D01*
X90401Y37724D01*
X90444Y37742D01*
X90491Y37750D01*
X90548Y37784D01*
X90608Y37809D01*
X90643Y37840D01*
X90684Y37865D01*
X90726Y37916D01*
X90774Y37960D01*
X90796Y38002D01*
X90825Y38039D01*
X90846Y38101D01*
X90877Y38160D01*
X90885Y38214D01*
X90897Y38251D01*
X90896Y38291D01*
X90904Y38345D01*
X90904Y42155D01*
X90893Y42220D01*
X90891Y42286D01*
X90873Y42329D01*
X90865Y42376D01*
X90831Y42433D01*
X90806Y42493D01*
X90775Y42528D01*
X90750Y42569D01*
X90699Y42611D01*
X90655Y42659D01*
X90613Y42681D01*
X90576Y42710D01*
X90514Y42731D01*
X90455Y42762D01*
X90401Y42770D01*
X90364Y42782D01*
X90324Y42781D01*
X90270Y42789D01*
X87730Y42789D01*
X87665Y42778D01*
X87599Y42776D01*
X87556Y42758D01*
X87509Y42750D01*
X87452Y42716D01*
X87392Y42691D01*
X87357Y42660D01*
X87316Y42635D01*
X87275Y42584D01*
X87226Y42540D01*
X87204Y42498D01*
X87175Y42461D01*
X87154Y42399D01*
X87123Y42340D01*
X87115Y42286D01*
X87103Y42249D01*
X87103Y42245D01*
X87103Y42244D01*
X87104Y42209D01*
X87096Y42155D01*
X87096Y38345D01*
X87107Y38280D01*
X87109Y38214D01*
X87127Y38171D01*
X87135Y38124D01*
X87169Y38067D01*
X87194Y38007D01*
X87225Y37972D01*
X87250Y37931D01*
X87301Y37890D01*
X87345Y37841D01*
X87387Y37819D01*
X87424Y37790D01*
X87486Y37769D01*
X87545Y37738D01*
X87599Y37730D01*
X87636Y37718D01*
X87676Y37719D01*
X87730Y37711D01*
X90270Y37711D01*
X90335Y37722D01*
G37*
G36*
X602835Y37472D02*
X602835Y37472D01*
X602901Y37474D01*
X602944Y37492D01*
X602991Y37500D01*
X603048Y37534D01*
X603108Y37559D01*
X603143Y37590D01*
X603184Y37615D01*
X603226Y37666D01*
X603274Y37710D01*
X603296Y37752D01*
X603325Y37789D01*
X603346Y37851D01*
X603377Y37910D01*
X603385Y37964D01*
X603397Y38001D01*
X603396Y38041D01*
X603404Y38095D01*
X603404Y41905D01*
X603393Y41970D01*
X603391Y42036D01*
X603373Y42079D01*
X603365Y42126D01*
X603331Y42183D01*
X603306Y42243D01*
X603275Y42278D01*
X603250Y42319D01*
X603199Y42361D01*
X603155Y42409D01*
X603113Y42431D01*
X603076Y42460D01*
X603014Y42481D01*
X602955Y42512D01*
X602901Y42520D01*
X602864Y42532D01*
X602824Y42531D01*
X602770Y42539D01*
X600230Y42539D01*
X600165Y42528D01*
X600099Y42526D01*
X600056Y42508D01*
X600009Y42500D01*
X599952Y42466D01*
X599892Y42441D01*
X599857Y42410D01*
X599816Y42385D01*
X599775Y42334D01*
X599726Y42290D01*
X599704Y42248D01*
X599675Y42211D01*
X599654Y42149D01*
X599623Y42090D01*
X599615Y42036D01*
X599603Y41999D01*
X599603Y41995D01*
X599603Y41994D01*
X599604Y41959D01*
X599596Y41905D01*
X599596Y38095D01*
X599607Y38030D01*
X599609Y37964D01*
X599627Y37921D01*
X599635Y37874D01*
X599669Y37817D01*
X599694Y37757D01*
X599725Y37722D01*
X599750Y37681D01*
X599801Y37640D01*
X599845Y37591D01*
X599887Y37569D01*
X599924Y37540D01*
X599986Y37519D01*
X600045Y37488D01*
X600099Y37480D01*
X600136Y37468D01*
X600176Y37469D01*
X600230Y37461D01*
X602770Y37461D01*
X602835Y37472D01*
G37*
G36*
X243085Y37472D02*
X243085Y37472D01*
X243151Y37474D01*
X243194Y37492D01*
X243241Y37500D01*
X243298Y37534D01*
X243358Y37559D01*
X243393Y37590D01*
X243434Y37615D01*
X243476Y37666D01*
X243524Y37710D01*
X243546Y37752D01*
X243575Y37789D01*
X243596Y37851D01*
X243627Y37910D01*
X243635Y37964D01*
X243647Y38001D01*
X243646Y38041D01*
X243654Y38095D01*
X243654Y41905D01*
X243643Y41970D01*
X243641Y42036D01*
X243623Y42079D01*
X243615Y42126D01*
X243581Y42183D01*
X243556Y42243D01*
X243525Y42278D01*
X243500Y42319D01*
X243449Y42361D01*
X243405Y42409D01*
X243363Y42431D01*
X243326Y42460D01*
X243264Y42481D01*
X243205Y42512D01*
X243151Y42520D01*
X243114Y42532D01*
X243074Y42531D01*
X243020Y42539D01*
X240480Y42539D01*
X240415Y42528D01*
X240349Y42526D01*
X240306Y42508D01*
X240259Y42500D01*
X240202Y42466D01*
X240142Y42441D01*
X240107Y42410D01*
X240066Y42385D01*
X240025Y42334D01*
X239976Y42290D01*
X239954Y42248D01*
X239925Y42211D01*
X239904Y42149D01*
X239873Y42090D01*
X239865Y42036D01*
X239853Y41999D01*
X239853Y41995D01*
X239853Y41994D01*
X239854Y41959D01*
X239846Y41905D01*
X239846Y38095D01*
X239857Y38030D01*
X239859Y37964D01*
X239877Y37921D01*
X239885Y37874D01*
X239919Y37817D01*
X239944Y37757D01*
X239975Y37722D01*
X240000Y37681D01*
X240051Y37640D01*
X240095Y37591D01*
X240137Y37569D01*
X240174Y37540D01*
X240236Y37519D01*
X240295Y37488D01*
X240349Y37480D01*
X240386Y37468D01*
X240426Y37469D01*
X240480Y37461D01*
X243020Y37461D01*
X243085Y37472D01*
G37*
G36*
X551335Y37472D02*
X551335Y37472D01*
X551401Y37474D01*
X551444Y37492D01*
X551491Y37500D01*
X551548Y37534D01*
X551608Y37559D01*
X551643Y37590D01*
X551684Y37615D01*
X551726Y37666D01*
X551774Y37710D01*
X551796Y37752D01*
X551825Y37789D01*
X551846Y37851D01*
X551877Y37910D01*
X551885Y37964D01*
X551897Y38001D01*
X551896Y38041D01*
X551904Y38095D01*
X551904Y41905D01*
X551893Y41970D01*
X551891Y42036D01*
X551873Y42079D01*
X551865Y42126D01*
X551831Y42183D01*
X551806Y42243D01*
X551775Y42278D01*
X551750Y42319D01*
X551699Y42361D01*
X551655Y42409D01*
X551613Y42431D01*
X551576Y42460D01*
X551514Y42481D01*
X551455Y42512D01*
X551401Y42520D01*
X551364Y42532D01*
X551324Y42531D01*
X551270Y42539D01*
X548730Y42539D01*
X548665Y42528D01*
X548599Y42526D01*
X548556Y42508D01*
X548509Y42500D01*
X548452Y42466D01*
X548392Y42441D01*
X548357Y42410D01*
X548316Y42385D01*
X548275Y42334D01*
X548226Y42290D01*
X548204Y42248D01*
X548175Y42211D01*
X548154Y42149D01*
X548123Y42090D01*
X548115Y42036D01*
X548103Y41999D01*
X548103Y41995D01*
X548103Y41994D01*
X548104Y41959D01*
X548096Y41905D01*
X548096Y38095D01*
X548107Y38030D01*
X548109Y37964D01*
X548127Y37921D01*
X548135Y37874D01*
X548169Y37817D01*
X548194Y37757D01*
X548225Y37722D01*
X548250Y37681D01*
X548301Y37640D01*
X548345Y37591D01*
X548387Y37569D01*
X548424Y37540D01*
X548486Y37519D01*
X548545Y37488D01*
X548599Y37480D01*
X548636Y37468D01*
X548676Y37469D01*
X548730Y37461D01*
X551270Y37461D01*
X551335Y37472D01*
G37*
G36*
X399585Y37472D02*
X399585Y37472D01*
X399651Y37474D01*
X399694Y37492D01*
X399741Y37500D01*
X399798Y37534D01*
X399858Y37559D01*
X399893Y37590D01*
X399934Y37615D01*
X399976Y37666D01*
X400024Y37710D01*
X400046Y37752D01*
X400075Y37789D01*
X400096Y37851D01*
X400127Y37910D01*
X400135Y37964D01*
X400147Y38001D01*
X400146Y38041D01*
X400154Y38095D01*
X400154Y41905D01*
X400143Y41970D01*
X400141Y42036D01*
X400123Y42079D01*
X400115Y42126D01*
X400081Y42183D01*
X400056Y42243D01*
X400025Y42278D01*
X400000Y42319D01*
X399949Y42361D01*
X399905Y42409D01*
X399863Y42431D01*
X399826Y42460D01*
X399764Y42481D01*
X399705Y42512D01*
X399651Y42520D01*
X399614Y42532D01*
X399574Y42531D01*
X399520Y42539D01*
X396980Y42539D01*
X396915Y42528D01*
X396849Y42526D01*
X396806Y42508D01*
X396759Y42500D01*
X396702Y42466D01*
X396642Y42441D01*
X396607Y42410D01*
X396566Y42385D01*
X396525Y42334D01*
X396476Y42290D01*
X396454Y42248D01*
X396425Y42211D01*
X396404Y42149D01*
X396373Y42090D01*
X396365Y42036D01*
X396353Y41999D01*
X396353Y41995D01*
X396353Y41994D01*
X396354Y41959D01*
X396346Y41905D01*
X396346Y38095D01*
X396357Y38030D01*
X396359Y37964D01*
X396377Y37921D01*
X396385Y37874D01*
X396419Y37817D01*
X396444Y37757D01*
X396475Y37722D01*
X396500Y37681D01*
X396551Y37640D01*
X396595Y37591D01*
X396637Y37569D01*
X396674Y37540D01*
X396736Y37519D01*
X396795Y37488D01*
X396849Y37480D01*
X396886Y37468D01*
X396926Y37469D01*
X396980Y37461D01*
X399520Y37461D01*
X399585Y37472D01*
G37*
G36*
X501085Y37472D02*
X501085Y37472D01*
X501151Y37474D01*
X501194Y37492D01*
X501241Y37500D01*
X501298Y37534D01*
X501358Y37559D01*
X501393Y37590D01*
X501434Y37615D01*
X501476Y37666D01*
X501524Y37710D01*
X501546Y37752D01*
X501575Y37789D01*
X501596Y37851D01*
X501627Y37910D01*
X501635Y37964D01*
X501647Y38001D01*
X501646Y38041D01*
X501654Y38095D01*
X501654Y41905D01*
X501643Y41970D01*
X501641Y42036D01*
X501623Y42079D01*
X501615Y42126D01*
X501581Y42183D01*
X501556Y42243D01*
X501525Y42278D01*
X501500Y42319D01*
X501449Y42361D01*
X501405Y42409D01*
X501363Y42431D01*
X501326Y42460D01*
X501264Y42481D01*
X501205Y42512D01*
X501151Y42520D01*
X501114Y42532D01*
X501074Y42531D01*
X501020Y42539D01*
X498480Y42539D01*
X498415Y42528D01*
X498349Y42526D01*
X498306Y42508D01*
X498259Y42500D01*
X498202Y42466D01*
X498142Y42441D01*
X498107Y42410D01*
X498066Y42385D01*
X498025Y42334D01*
X497976Y42290D01*
X497954Y42248D01*
X497925Y42211D01*
X497904Y42149D01*
X497873Y42090D01*
X497865Y42036D01*
X497853Y41999D01*
X497853Y41995D01*
X497853Y41994D01*
X497854Y41959D01*
X497846Y41905D01*
X497846Y38095D01*
X497857Y38030D01*
X497859Y37964D01*
X497877Y37921D01*
X497885Y37874D01*
X497919Y37817D01*
X497944Y37757D01*
X497975Y37722D01*
X498000Y37681D01*
X498051Y37640D01*
X498095Y37591D01*
X498137Y37569D01*
X498174Y37540D01*
X498236Y37519D01*
X498295Y37488D01*
X498349Y37480D01*
X498386Y37468D01*
X498426Y37469D01*
X498480Y37461D01*
X501020Y37461D01*
X501085Y37472D01*
G37*
G36*
X39585Y37222D02*
X39585Y37222D01*
X39651Y37224D01*
X39694Y37242D01*
X39741Y37250D01*
X39798Y37284D01*
X39858Y37309D01*
X39893Y37340D01*
X39934Y37365D01*
X39976Y37416D01*
X40024Y37460D01*
X40046Y37502D01*
X40075Y37539D01*
X40096Y37601D01*
X40127Y37660D01*
X40135Y37714D01*
X40147Y37751D01*
X40146Y37791D01*
X40154Y37845D01*
X40154Y41655D01*
X40143Y41720D01*
X40141Y41786D01*
X40123Y41829D01*
X40115Y41876D01*
X40081Y41933D01*
X40056Y41993D01*
X40025Y42028D01*
X40000Y42069D01*
X39949Y42111D01*
X39905Y42159D01*
X39863Y42181D01*
X39826Y42210D01*
X39764Y42231D01*
X39705Y42262D01*
X39651Y42270D01*
X39614Y42282D01*
X39574Y42281D01*
X39520Y42289D01*
X36980Y42289D01*
X36915Y42278D01*
X36849Y42276D01*
X36806Y42258D01*
X36759Y42250D01*
X36702Y42216D01*
X36642Y42191D01*
X36607Y42160D01*
X36566Y42135D01*
X36525Y42084D01*
X36476Y42040D01*
X36454Y41998D01*
X36425Y41961D01*
X36404Y41899D01*
X36373Y41840D01*
X36365Y41786D01*
X36353Y41749D01*
X36353Y41745D01*
X36353Y41744D01*
X36354Y41709D01*
X36346Y41655D01*
X36346Y37845D01*
X36357Y37780D01*
X36359Y37714D01*
X36377Y37671D01*
X36385Y37624D01*
X36419Y37567D01*
X36444Y37507D01*
X36475Y37472D01*
X36500Y37431D01*
X36551Y37390D01*
X36595Y37341D01*
X36637Y37319D01*
X36674Y37290D01*
X36736Y37269D01*
X36795Y37238D01*
X36849Y37230D01*
X36886Y37218D01*
X36926Y37219D01*
X36980Y37211D01*
X39520Y37211D01*
X39585Y37222D01*
G37*
G36*
X861085Y37222D02*
X861085Y37222D01*
X861151Y37224D01*
X861194Y37242D01*
X861241Y37250D01*
X861298Y37284D01*
X861358Y37309D01*
X861393Y37340D01*
X861434Y37365D01*
X861476Y37416D01*
X861524Y37460D01*
X861546Y37502D01*
X861575Y37539D01*
X861596Y37601D01*
X861627Y37660D01*
X861635Y37714D01*
X861647Y37751D01*
X861646Y37791D01*
X861654Y37845D01*
X861654Y41655D01*
X861643Y41720D01*
X861641Y41786D01*
X861623Y41829D01*
X861615Y41876D01*
X861581Y41933D01*
X861556Y41993D01*
X861525Y42028D01*
X861500Y42069D01*
X861449Y42111D01*
X861405Y42159D01*
X861363Y42181D01*
X861326Y42210D01*
X861264Y42231D01*
X861205Y42262D01*
X861151Y42270D01*
X861114Y42282D01*
X861074Y42281D01*
X861020Y42289D01*
X858480Y42289D01*
X858415Y42278D01*
X858349Y42276D01*
X858306Y42258D01*
X858259Y42250D01*
X858202Y42216D01*
X858142Y42191D01*
X858107Y42160D01*
X858066Y42135D01*
X858025Y42084D01*
X857976Y42040D01*
X857954Y41998D01*
X857925Y41961D01*
X857904Y41899D01*
X857873Y41840D01*
X857865Y41786D01*
X857853Y41749D01*
X857853Y41745D01*
X857853Y41744D01*
X857854Y41709D01*
X857846Y41655D01*
X857846Y37845D01*
X857857Y37780D01*
X857859Y37714D01*
X857877Y37671D01*
X857885Y37624D01*
X857919Y37567D01*
X857944Y37507D01*
X857975Y37472D01*
X858000Y37431D01*
X858051Y37390D01*
X858095Y37341D01*
X858137Y37319D01*
X858174Y37290D01*
X858236Y37269D01*
X858295Y37238D01*
X858349Y37230D01*
X858386Y37218D01*
X858426Y37219D01*
X858480Y37211D01*
X861020Y37211D01*
X861085Y37222D01*
G37*
G36*
X141335Y37222D02*
X141335Y37222D01*
X141401Y37224D01*
X141444Y37242D01*
X141491Y37250D01*
X141548Y37284D01*
X141608Y37309D01*
X141643Y37340D01*
X141684Y37365D01*
X141726Y37416D01*
X141774Y37460D01*
X141796Y37502D01*
X141825Y37539D01*
X141846Y37601D01*
X141877Y37660D01*
X141885Y37714D01*
X141897Y37751D01*
X141896Y37791D01*
X141904Y37845D01*
X141904Y41655D01*
X141893Y41720D01*
X141891Y41786D01*
X141873Y41829D01*
X141865Y41876D01*
X141831Y41933D01*
X141806Y41993D01*
X141775Y42028D01*
X141750Y42069D01*
X141699Y42111D01*
X141655Y42159D01*
X141613Y42181D01*
X141576Y42210D01*
X141514Y42231D01*
X141455Y42262D01*
X141401Y42270D01*
X141364Y42282D01*
X141324Y42281D01*
X141270Y42289D01*
X138730Y42289D01*
X138665Y42278D01*
X138599Y42276D01*
X138556Y42258D01*
X138509Y42250D01*
X138452Y42216D01*
X138392Y42191D01*
X138357Y42160D01*
X138316Y42135D01*
X138275Y42084D01*
X138226Y42040D01*
X138204Y41998D01*
X138175Y41961D01*
X138154Y41899D01*
X138123Y41840D01*
X138115Y41786D01*
X138103Y41749D01*
X138103Y41745D01*
X138103Y41744D01*
X138104Y41709D01*
X138096Y41655D01*
X138096Y37845D01*
X138107Y37780D01*
X138109Y37714D01*
X138127Y37671D01*
X138135Y37624D01*
X138169Y37567D01*
X138194Y37507D01*
X138225Y37472D01*
X138250Y37431D01*
X138301Y37390D01*
X138345Y37341D01*
X138387Y37319D01*
X138424Y37290D01*
X138486Y37269D01*
X138545Y37238D01*
X138599Y37230D01*
X138636Y37218D01*
X138676Y37219D01*
X138730Y37211D01*
X141270Y37211D01*
X141335Y37222D01*
G37*
G36*
X911835Y37222D02*
X911835Y37222D01*
X911901Y37224D01*
X911944Y37242D01*
X911991Y37250D01*
X912048Y37284D01*
X912108Y37309D01*
X912143Y37340D01*
X912184Y37365D01*
X912226Y37416D01*
X912274Y37460D01*
X912296Y37502D01*
X912325Y37539D01*
X912346Y37601D01*
X912377Y37660D01*
X912385Y37714D01*
X912397Y37751D01*
X912396Y37791D01*
X912404Y37845D01*
X912404Y41655D01*
X912393Y41720D01*
X912391Y41786D01*
X912373Y41829D01*
X912365Y41876D01*
X912331Y41933D01*
X912306Y41993D01*
X912275Y42028D01*
X912250Y42069D01*
X912199Y42111D01*
X912155Y42159D01*
X912113Y42181D01*
X912076Y42210D01*
X912014Y42231D01*
X911955Y42262D01*
X911901Y42270D01*
X911864Y42282D01*
X911824Y42281D01*
X911770Y42289D01*
X909230Y42289D01*
X909165Y42278D01*
X909099Y42276D01*
X909056Y42258D01*
X909009Y42250D01*
X908952Y42216D01*
X908892Y42191D01*
X908857Y42160D01*
X908816Y42135D01*
X908775Y42084D01*
X908726Y42040D01*
X908704Y41998D01*
X908675Y41961D01*
X908654Y41899D01*
X908623Y41840D01*
X908615Y41786D01*
X908603Y41749D01*
X908603Y41745D01*
X908603Y41744D01*
X908604Y41709D01*
X908596Y41655D01*
X908596Y37845D01*
X908607Y37780D01*
X908609Y37714D01*
X908627Y37671D01*
X908635Y37624D01*
X908669Y37567D01*
X908694Y37507D01*
X908725Y37472D01*
X908750Y37431D01*
X908801Y37390D01*
X908845Y37341D01*
X908887Y37319D01*
X908924Y37290D01*
X908986Y37269D01*
X909045Y37238D01*
X909099Y37230D01*
X909136Y37218D01*
X909176Y37219D01*
X909230Y37211D01*
X911770Y37211D01*
X911835Y37222D01*
G37*
G36*
X192335Y37222D02*
X192335Y37222D01*
X192401Y37224D01*
X192444Y37242D01*
X192491Y37250D01*
X192548Y37284D01*
X192608Y37309D01*
X192643Y37340D01*
X192684Y37365D01*
X192726Y37416D01*
X192774Y37460D01*
X192796Y37502D01*
X192825Y37539D01*
X192846Y37601D01*
X192877Y37660D01*
X192885Y37714D01*
X192897Y37751D01*
X192896Y37791D01*
X192904Y37845D01*
X192904Y41655D01*
X192893Y41720D01*
X192891Y41786D01*
X192873Y41829D01*
X192865Y41876D01*
X192831Y41933D01*
X192806Y41993D01*
X192775Y42028D01*
X192750Y42069D01*
X192699Y42111D01*
X192655Y42159D01*
X192613Y42181D01*
X192576Y42210D01*
X192514Y42231D01*
X192455Y42262D01*
X192401Y42270D01*
X192364Y42282D01*
X192324Y42281D01*
X192270Y42289D01*
X189730Y42289D01*
X189665Y42278D01*
X189599Y42276D01*
X189556Y42258D01*
X189509Y42250D01*
X189452Y42216D01*
X189392Y42191D01*
X189357Y42160D01*
X189316Y42135D01*
X189275Y42084D01*
X189226Y42040D01*
X189204Y41998D01*
X189175Y41961D01*
X189154Y41899D01*
X189123Y41840D01*
X189115Y41786D01*
X189103Y41749D01*
X189103Y41745D01*
X189103Y41744D01*
X189104Y41709D01*
X189096Y41655D01*
X189096Y37845D01*
X189107Y37780D01*
X189109Y37714D01*
X189127Y37671D01*
X189135Y37624D01*
X189169Y37567D01*
X189194Y37507D01*
X189225Y37472D01*
X189250Y37431D01*
X189301Y37390D01*
X189345Y37341D01*
X189387Y37319D01*
X189424Y37290D01*
X189486Y37269D01*
X189545Y37238D01*
X189599Y37230D01*
X189636Y37218D01*
X189676Y37219D01*
X189730Y37211D01*
X192270Y37211D01*
X192335Y37222D01*
G37*
G36*
X450335Y37222D02*
X450335Y37222D01*
X450401Y37224D01*
X450444Y37242D01*
X450491Y37250D01*
X450548Y37284D01*
X450608Y37309D01*
X450643Y37340D01*
X450684Y37365D01*
X450726Y37416D01*
X450774Y37460D01*
X450796Y37502D01*
X450825Y37539D01*
X450846Y37601D01*
X450877Y37660D01*
X450885Y37714D01*
X450897Y37751D01*
X450896Y37791D01*
X450904Y37845D01*
X450904Y41655D01*
X450893Y41720D01*
X450891Y41786D01*
X450873Y41829D01*
X450865Y41876D01*
X450831Y41933D01*
X450806Y41993D01*
X450775Y42028D01*
X450750Y42069D01*
X450699Y42111D01*
X450655Y42159D01*
X450613Y42181D01*
X450576Y42210D01*
X450514Y42231D01*
X450455Y42262D01*
X450401Y42270D01*
X450364Y42282D01*
X450324Y42281D01*
X450270Y42289D01*
X447730Y42289D01*
X447665Y42278D01*
X447599Y42276D01*
X447556Y42258D01*
X447509Y42250D01*
X447452Y42216D01*
X447392Y42191D01*
X447357Y42160D01*
X447316Y42135D01*
X447275Y42084D01*
X447226Y42040D01*
X447204Y41998D01*
X447175Y41961D01*
X447154Y41899D01*
X447123Y41840D01*
X447115Y41786D01*
X447103Y41749D01*
X447103Y41745D01*
X447103Y41744D01*
X447104Y41709D01*
X447096Y41655D01*
X447096Y37845D01*
X447107Y37780D01*
X447109Y37714D01*
X447127Y37671D01*
X447135Y37624D01*
X447169Y37567D01*
X447194Y37507D01*
X447225Y37472D01*
X447250Y37431D01*
X447301Y37390D01*
X447345Y37341D01*
X447387Y37319D01*
X447424Y37290D01*
X447486Y37269D01*
X447545Y37238D01*
X447599Y37230D01*
X447636Y37218D01*
X447676Y37219D01*
X447730Y37211D01*
X450270Y37211D01*
X450335Y37222D01*
G37*
G36*
X810335Y36972D02*
X810335Y36972D01*
X810401Y36974D01*
X810444Y36992D01*
X810491Y37000D01*
X810548Y37034D01*
X810608Y37059D01*
X810643Y37090D01*
X810684Y37115D01*
X810726Y37166D01*
X810774Y37210D01*
X810796Y37252D01*
X810825Y37289D01*
X810846Y37351D01*
X810877Y37410D01*
X810885Y37464D01*
X810897Y37501D01*
X810896Y37541D01*
X810904Y37595D01*
X810904Y41405D01*
X810893Y41470D01*
X810891Y41536D01*
X810873Y41579D01*
X810865Y41626D01*
X810831Y41683D01*
X810806Y41743D01*
X810775Y41778D01*
X810750Y41819D01*
X810699Y41861D01*
X810655Y41909D01*
X810613Y41931D01*
X810576Y41960D01*
X810514Y41981D01*
X810455Y42012D01*
X810401Y42020D01*
X810364Y42032D01*
X810324Y42031D01*
X810270Y42039D01*
X807730Y42039D01*
X807665Y42028D01*
X807599Y42026D01*
X807556Y42008D01*
X807509Y42000D01*
X807452Y41966D01*
X807392Y41941D01*
X807357Y41910D01*
X807316Y41885D01*
X807275Y41834D01*
X807226Y41790D01*
X807204Y41748D01*
X807175Y41711D01*
X807154Y41649D01*
X807123Y41590D01*
X807115Y41536D01*
X807103Y41499D01*
X807103Y41495D01*
X807103Y41494D01*
X807104Y41459D01*
X807096Y41405D01*
X807096Y37595D01*
X807107Y37530D01*
X807109Y37464D01*
X807127Y37421D01*
X807135Y37374D01*
X807169Y37317D01*
X807194Y37257D01*
X807225Y37222D01*
X807250Y37181D01*
X807301Y37140D01*
X807345Y37091D01*
X807387Y37069D01*
X807424Y37040D01*
X807486Y37019D01*
X807545Y36988D01*
X807599Y36980D01*
X807636Y36968D01*
X807676Y36969D01*
X807730Y36961D01*
X810270Y36961D01*
X810335Y36972D01*
G37*
G36*
X962835Y36972D02*
X962835Y36972D01*
X962901Y36974D01*
X962944Y36992D01*
X962991Y37000D01*
X963048Y37034D01*
X963108Y37059D01*
X963143Y37090D01*
X963184Y37115D01*
X963226Y37166D01*
X963274Y37210D01*
X963296Y37252D01*
X963325Y37289D01*
X963346Y37351D01*
X963377Y37410D01*
X963385Y37464D01*
X963397Y37501D01*
X963396Y37541D01*
X963404Y37595D01*
X963404Y41405D01*
X963393Y41470D01*
X963391Y41536D01*
X963373Y41579D01*
X963365Y41626D01*
X963331Y41683D01*
X963306Y41743D01*
X963275Y41778D01*
X963250Y41819D01*
X963199Y41861D01*
X963155Y41909D01*
X963113Y41931D01*
X963076Y41960D01*
X963014Y41981D01*
X962955Y42012D01*
X962901Y42020D01*
X962864Y42032D01*
X962824Y42031D01*
X962770Y42039D01*
X960230Y42039D01*
X960165Y42028D01*
X960099Y42026D01*
X960056Y42008D01*
X960009Y42000D01*
X959952Y41966D01*
X959892Y41941D01*
X959857Y41910D01*
X959816Y41885D01*
X959775Y41834D01*
X959726Y41790D01*
X959704Y41748D01*
X959675Y41711D01*
X959654Y41649D01*
X959623Y41590D01*
X959615Y41536D01*
X959603Y41499D01*
X959603Y41495D01*
X959603Y41494D01*
X959604Y41459D01*
X959596Y41405D01*
X959596Y37595D01*
X959607Y37530D01*
X959609Y37464D01*
X959627Y37421D01*
X959635Y37374D01*
X959669Y37317D01*
X959694Y37257D01*
X959725Y37222D01*
X959750Y37181D01*
X959801Y37140D01*
X959845Y37091D01*
X959887Y37069D01*
X959924Y37040D01*
X959986Y37019D01*
X960045Y36988D01*
X960099Y36980D01*
X960136Y36968D01*
X960176Y36969D01*
X960230Y36961D01*
X962770Y36961D01*
X962835Y36972D01*
G37*
G36*
X759835Y36722D02*
X759835Y36722D01*
X759901Y36724D01*
X759944Y36742D01*
X759991Y36750D01*
X760048Y36784D01*
X760108Y36809D01*
X760143Y36840D01*
X760184Y36865D01*
X760226Y36916D01*
X760274Y36960D01*
X760296Y37002D01*
X760325Y37039D01*
X760346Y37101D01*
X760377Y37160D01*
X760385Y37214D01*
X760397Y37251D01*
X760396Y37291D01*
X760404Y37345D01*
X760404Y41155D01*
X760393Y41220D01*
X760391Y41286D01*
X760373Y41329D01*
X760365Y41376D01*
X760331Y41433D01*
X760306Y41493D01*
X760275Y41528D01*
X760250Y41569D01*
X760199Y41611D01*
X760155Y41659D01*
X760113Y41681D01*
X760076Y41710D01*
X760014Y41731D01*
X759955Y41762D01*
X759901Y41770D01*
X759864Y41782D01*
X759824Y41781D01*
X759770Y41789D01*
X757230Y41789D01*
X757165Y41778D01*
X757099Y41776D01*
X757056Y41758D01*
X757009Y41750D01*
X756952Y41716D01*
X756892Y41691D01*
X756857Y41660D01*
X756816Y41635D01*
X756775Y41584D01*
X756726Y41540D01*
X756704Y41498D01*
X756675Y41461D01*
X756654Y41399D01*
X756623Y41340D01*
X756615Y41286D01*
X756603Y41249D01*
X756603Y41245D01*
X756603Y41244D01*
X756604Y41209D01*
X756596Y41155D01*
X756596Y37345D01*
X756607Y37280D01*
X756609Y37214D01*
X756627Y37171D01*
X756635Y37124D01*
X756669Y37067D01*
X756694Y37007D01*
X756725Y36972D01*
X756750Y36931D01*
X756801Y36890D01*
X756845Y36841D01*
X756887Y36819D01*
X756924Y36790D01*
X756986Y36769D01*
X757045Y36738D01*
X757099Y36730D01*
X757136Y36718D01*
X757176Y36719D01*
X757230Y36711D01*
X759770Y36711D01*
X759835Y36722D01*
G37*
D10*
X749550Y120000D03*
X250450Y120000D03*
D11*
X758450Y65400D03*
D12*
X36300Y142400D03*
X36300Y162400D03*
X36300Y182400D03*
X36300Y202400D03*
X36300Y222400D03*
D13*
X36300Y122400D03*
D14*
X479760Y235980D03*
X505160Y235980D03*
D15*
X116554Y402210D03*
X116554Y384176D03*
X116554Y420498D03*
X152876Y439040D03*
X170910Y439040D03*
X134588Y439040D03*
X152876Y365888D03*
X170910Y365888D03*
X134588Y365888D03*
X188944Y402210D03*
X188944Y384176D03*
X188944Y420498D03*
D16*
X974300Y23500D03*
X948900Y23500D03*
X923500Y23500D03*
X898100Y23500D03*
X872700Y23500D03*
X847300Y23500D03*
X821900Y23500D03*
X796500Y23500D03*
X771100Y23500D03*
X745700Y23500D03*
X745700Y526500D03*
X771100Y526500D03*
X796500Y526500D03*
X821900Y526500D03*
X847300Y526500D03*
X872700Y526500D03*
X898100Y526500D03*
X923500Y526500D03*
X948900Y526500D03*
X974300Y526500D03*
X614300Y23500D03*
X588900Y23500D03*
X563500Y23500D03*
X538100Y23500D03*
X512700Y23500D03*
X487300Y23500D03*
X461900Y23500D03*
X436500Y23500D03*
X411100Y23500D03*
X385700Y23500D03*
X385700Y526500D03*
X411100Y526500D03*
X436500Y526500D03*
X461900Y526500D03*
X487300Y526500D03*
X512700Y526500D03*
X538100Y526500D03*
X563500Y526500D03*
X588900Y526500D03*
X614300Y526500D03*
X254300Y23500D03*
X228900Y23500D03*
X203500Y23500D03*
X178100Y23500D03*
X152700Y23500D03*
X127300Y23500D03*
X101900Y23500D03*
X76500Y23500D03*
X51100Y23500D03*
X25700Y23500D03*
X25700Y526500D03*
X51100Y526500D03*
X76500Y526500D03*
X101900Y526500D03*
X127300Y526500D03*
X152700Y526500D03*
X178100Y526500D03*
X203500Y526500D03*
X228900Y526500D03*
X254300Y526500D03*
D17*
X904391Y47764D02*
X904391Y41896D01*
X904391Y47764D02*
X916609Y47764D01*
X916609Y41896D01*
X904391Y41896D01*
X904391Y44285D02*
X916609Y44285D01*
X916609Y46674D02*
X904391Y46674D01*
X904391Y37604D02*
X904391Y31736D01*
X904391Y37604D02*
X916609Y37604D01*
X916609Y31736D01*
X904391Y31736D01*
X904391Y34125D02*
X916609Y34125D01*
X916609Y36514D02*
X904391Y36514D01*
X853641Y41896D02*
X853641Y47764D01*
X865859Y47764D01*
X865859Y41896D01*
X853641Y41896D01*
X853641Y44285D02*
X865859Y44285D01*
X865859Y46674D02*
X853641Y46674D01*
X853641Y37604D02*
X853641Y31736D01*
X853641Y37604D02*
X865859Y37604D01*
X865859Y31736D01*
X853641Y31736D01*
X853641Y34125D02*
X865859Y34125D01*
X865859Y36514D02*
X853641Y36514D01*
X802891Y41646D02*
X802891Y47514D01*
X815109Y47514D01*
X815109Y41646D01*
X802891Y41646D01*
X802891Y44035D02*
X815109Y44035D01*
X815109Y46424D02*
X802891Y46424D01*
X802891Y37354D02*
X802891Y31486D01*
X802891Y37354D02*
X815109Y37354D01*
X815109Y31486D01*
X802891Y31486D01*
X802891Y33875D02*
X815109Y33875D01*
X815109Y36264D02*
X802891Y36264D01*
X752391Y41396D02*
X752391Y47264D01*
X764609Y47264D01*
X764609Y41396D01*
X752391Y41396D01*
X752391Y43785D02*
X764609Y43785D01*
X764609Y46174D02*
X752391Y46174D01*
X752391Y37104D02*
X752391Y31236D01*
X752391Y37104D02*
X764609Y37104D01*
X764609Y31236D01*
X752391Y31236D01*
X752391Y33625D02*
X764609Y33625D01*
X764609Y36014D02*
X752391Y36014D01*
X764609Y502486D02*
X764609Y508354D01*
X764609Y502486D02*
X752391Y502486D01*
X752391Y508354D01*
X764609Y508354D01*
X764609Y504875D02*
X752391Y504875D01*
X752391Y507264D02*
X764609Y507264D01*
X764609Y512646D02*
X764609Y518514D01*
X764609Y512646D02*
X752391Y512646D01*
X752391Y518514D01*
X764609Y518514D01*
X764609Y515035D02*
X752391Y515035D01*
X752391Y517424D02*
X764609Y517424D01*
X815359Y508104D02*
X815359Y502236D01*
X803141Y502236D01*
X803141Y508104D01*
X815359Y508104D01*
X815359Y504625D02*
X803141Y504625D01*
X803141Y507014D02*
X815359Y507014D01*
X815359Y512396D02*
X815359Y518264D01*
X815359Y512396D02*
X803141Y512396D01*
X803141Y518264D01*
X815359Y518264D01*
X815359Y514785D02*
X803141Y514785D01*
X803141Y517174D02*
X815359Y517174D01*
X866109Y508104D02*
X866109Y502236D01*
X853891Y502236D01*
X853891Y508104D01*
X866109Y508104D01*
X866109Y504625D02*
X853891Y504625D01*
X853891Y507014D02*
X866109Y507014D01*
X866109Y512396D02*
X866109Y518264D01*
X866109Y512396D02*
X853891Y512396D01*
X853891Y518264D01*
X866109Y518264D01*
X866109Y514785D02*
X853891Y514785D01*
X853891Y517174D02*
X866109Y517174D01*
X916859Y508104D02*
X916859Y502236D01*
X904641Y502236D01*
X904641Y508104D01*
X916859Y508104D01*
X916859Y504625D02*
X904641Y504625D01*
X904641Y507014D02*
X916859Y507014D01*
X916859Y512396D02*
X916859Y518264D01*
X916859Y512396D02*
X904641Y512396D01*
X904641Y518264D01*
X916859Y518264D01*
X916859Y514785D02*
X904641Y514785D01*
X904641Y517174D02*
X916859Y517174D01*
X955391Y47514D02*
X955391Y41646D01*
X955391Y47514D02*
X967609Y47514D01*
X967609Y41646D01*
X955391Y41646D01*
X955391Y44035D02*
X967609Y44035D01*
X967609Y46424D02*
X955391Y46424D01*
X955391Y37354D02*
X955391Y31486D01*
X955391Y37354D02*
X967609Y37354D01*
X967609Y31486D01*
X955391Y31486D01*
X955391Y33875D02*
X967609Y33875D01*
X967609Y36264D02*
X955391Y36264D01*
X543891Y42146D02*
X543891Y48014D01*
X556109Y48014D01*
X556109Y42146D01*
X543891Y42146D01*
X543891Y44535D02*
X556109Y44535D01*
X556109Y46924D02*
X543891Y46924D01*
X543891Y37854D02*
X543891Y31986D01*
X543891Y37854D02*
X556109Y37854D01*
X556109Y31986D01*
X543891Y31986D01*
X543891Y34375D02*
X556109Y34375D01*
X556109Y36764D02*
X543891Y36764D01*
X493641Y42146D02*
X493641Y48014D01*
X505859Y48014D01*
X505859Y42146D01*
X493641Y42146D01*
X493641Y44535D02*
X505859Y44535D01*
X505859Y46924D02*
X493641Y46924D01*
X493641Y37854D02*
X493641Y31986D01*
X493641Y37854D02*
X505859Y37854D01*
X505859Y31986D01*
X493641Y31986D01*
X493641Y34375D02*
X505859Y34375D01*
X505859Y36764D02*
X493641Y36764D01*
X442891Y41896D02*
X442891Y47764D01*
X455109Y47764D01*
X455109Y41896D01*
X442891Y41896D01*
X442891Y44285D02*
X455109Y44285D01*
X455109Y46674D02*
X442891Y46674D01*
X442891Y37604D02*
X442891Y31736D01*
X442891Y37604D02*
X455109Y37604D01*
X455109Y31736D01*
X442891Y31736D01*
X442891Y34125D02*
X455109Y34125D01*
X455109Y36514D02*
X442891Y36514D01*
X392141Y42146D02*
X392141Y48014D01*
X404359Y48014D01*
X404359Y42146D01*
X392141Y42146D01*
X392141Y44535D02*
X404359Y44535D01*
X404359Y46924D02*
X392141Y46924D01*
X392141Y37854D02*
X392141Y31986D01*
X392141Y37854D02*
X404359Y37854D01*
X404359Y31986D01*
X392141Y31986D01*
X392141Y34375D02*
X404359Y34375D01*
X404359Y36764D02*
X392141Y36764D01*
X404359Y502486D02*
X404359Y508354D01*
X404359Y502486D02*
X392141Y502486D01*
X392141Y508354D01*
X404359Y508354D01*
X404359Y504875D02*
X392141Y504875D01*
X392141Y507264D02*
X404359Y507264D01*
X404359Y512646D02*
X404359Y518514D01*
X404359Y512646D02*
X392141Y512646D01*
X392141Y518514D01*
X404359Y518514D01*
X404359Y515035D02*
X392141Y515035D01*
X392141Y517424D02*
X404359Y517424D01*
X455359Y508104D02*
X455359Y502236D01*
X443141Y502236D01*
X443141Y508104D01*
X455359Y508104D01*
X455359Y504625D02*
X443141Y504625D01*
X443141Y507014D02*
X455359Y507014D01*
X455359Y512396D02*
X455359Y518264D01*
X455359Y512396D02*
X443141Y512396D01*
X443141Y518264D01*
X455359Y518264D01*
X455359Y514785D02*
X443141Y514785D01*
X443141Y517174D02*
X455359Y517174D01*
X506109Y507854D02*
X506109Y501986D01*
X493891Y501986D01*
X493891Y507854D01*
X506109Y507854D01*
X506109Y504375D02*
X493891Y504375D01*
X493891Y506764D02*
X506109Y506764D01*
X506109Y512146D02*
X506109Y518014D01*
X506109Y512146D02*
X493891Y512146D01*
X493891Y518014D01*
X506109Y518014D01*
X506109Y514535D02*
X493891Y514535D01*
X493891Y516924D02*
X506109Y516924D01*
X556859Y508104D02*
X556859Y502236D01*
X544641Y502236D01*
X544641Y508104D01*
X556859Y508104D01*
X556859Y504625D02*
X544641Y504625D01*
X544641Y507014D02*
X556859Y507014D01*
X556859Y512396D02*
X556859Y518264D01*
X556859Y512396D02*
X544641Y512396D01*
X544641Y518264D01*
X556859Y518264D01*
X556859Y514785D02*
X544641Y514785D01*
X544641Y517174D02*
X556859Y517174D01*
X595391Y48014D02*
X595391Y42146D01*
X595391Y48014D02*
X607609Y48014D01*
X607609Y42146D01*
X595391Y42146D01*
X595391Y44535D02*
X607609Y44535D01*
X607609Y46924D02*
X595391Y46924D01*
X595391Y37854D02*
X595391Y31986D01*
X595391Y37854D02*
X607609Y37854D01*
X607609Y31986D01*
X595391Y31986D01*
X595391Y34375D02*
X607609Y34375D01*
X607609Y36764D02*
X595391Y36764D01*
X184891Y41896D02*
X184891Y47764D01*
X197109Y47764D01*
X197109Y41896D01*
X184891Y41896D01*
X184891Y44285D02*
X197109Y44285D01*
X197109Y46674D02*
X184891Y46674D01*
X184891Y37604D02*
X184891Y31736D01*
X184891Y37604D02*
X197109Y37604D01*
X197109Y31736D01*
X184891Y31736D01*
X184891Y34125D02*
X197109Y34125D01*
X197109Y36514D02*
X184891Y36514D01*
X133891Y41896D02*
X133891Y47764D01*
X146109Y47764D01*
X146109Y41896D01*
X133891Y41896D01*
X133891Y44285D02*
X146109Y44285D01*
X146109Y46674D02*
X133891Y46674D01*
X133891Y37604D02*
X133891Y31736D01*
X133891Y37604D02*
X146109Y37604D01*
X146109Y31736D01*
X133891Y31736D01*
X133891Y34125D02*
X146109Y34125D01*
X146109Y36514D02*
X133891Y36514D01*
X82891Y42396D02*
X82891Y48264D01*
X95109Y48264D01*
X95109Y42396D01*
X82891Y42396D01*
X82891Y44785D02*
X95109Y44785D01*
X95109Y47174D02*
X82891Y47174D01*
X82891Y38104D02*
X82891Y32236D01*
X82891Y38104D02*
X95109Y38104D01*
X95109Y32236D01*
X82891Y32236D01*
X82891Y34625D02*
X95109Y34625D01*
X95109Y37014D02*
X82891Y37014D01*
X32141Y41896D02*
X32141Y47764D01*
X44359Y47764D01*
X44359Y41896D01*
X32141Y41896D01*
X32141Y44285D02*
X44359Y44285D01*
X44359Y46674D02*
X32141Y46674D01*
X32141Y37604D02*
X32141Y31736D01*
X32141Y37604D02*
X44359Y37604D01*
X44359Y31736D01*
X32141Y31736D01*
X32141Y34125D02*
X44359Y34125D01*
X44359Y36514D02*
X32141Y36514D01*
X44359Y502236D02*
X44359Y508104D01*
X44359Y502236D02*
X32141Y502236D01*
X32141Y508104D01*
X44359Y508104D01*
X44359Y504625D02*
X32141Y504625D01*
X32141Y507014D02*
X44359Y507014D01*
X44359Y512396D02*
X44359Y518264D01*
X44359Y512396D02*
X32141Y512396D01*
X32141Y518264D01*
X44359Y518264D01*
X44359Y514785D02*
X32141Y514785D01*
X32141Y517174D02*
X44359Y517174D01*
X94859Y508354D02*
X94859Y502486D01*
X82641Y502486D01*
X82641Y508354D01*
X94859Y508354D01*
X94859Y504875D02*
X82641Y504875D01*
X82641Y507264D02*
X94859Y507264D01*
X94859Y512646D02*
X94859Y518514D01*
X94859Y512646D02*
X82641Y512646D01*
X82641Y518514D01*
X94859Y518514D01*
X94859Y515035D02*
X82641Y515035D01*
X82641Y517424D02*
X94859Y517424D01*
X145859Y508354D02*
X145859Y502486D01*
X133641Y502486D01*
X133641Y508354D01*
X145859Y508354D01*
X145859Y504875D02*
X133641Y504875D01*
X133641Y507264D02*
X145859Y507264D01*
X145859Y512646D02*
X145859Y518514D01*
X145859Y512646D02*
X133641Y512646D01*
X133641Y518514D01*
X145859Y518514D01*
X145859Y515035D02*
X133641Y515035D01*
X133641Y517424D02*
X145859Y517424D01*
X196859Y508104D02*
X196859Y502236D01*
X184641Y502236D01*
X184641Y508104D01*
X196859Y508104D01*
X196859Y504625D02*
X184641Y504625D01*
X184641Y507014D02*
X196859Y507014D01*
X196859Y512396D02*
X196859Y518264D01*
X196859Y512396D02*
X184641Y512396D01*
X184641Y518264D01*
X196859Y518264D01*
X196859Y514785D02*
X184641Y514785D01*
X184641Y517174D02*
X196859Y517174D01*
X235641Y48014D02*
X235641Y42146D01*
X235641Y48014D02*
X247859Y48014D01*
X247859Y42146D01*
X235641Y42146D01*
X235641Y44535D02*
X247859Y44535D01*
X247859Y46924D02*
X235641Y46924D01*
X235641Y37854D02*
X235641Y31986D01*
X235641Y37854D02*
X247859Y37854D01*
X247859Y31986D01*
X235641Y31986D01*
X235641Y34375D02*
X247859Y34375D01*
X247859Y36764D02*
X235641Y36764D01*
X247859Y502486D02*
X247859Y508354D01*
X247859Y502486D02*
X235641Y502486D01*
X235641Y508354D01*
X247859Y508354D01*
X247859Y504875D02*
X235641Y504875D01*
X235641Y507264D02*
X247859Y507264D01*
X247859Y512646D02*
X247859Y518514D01*
X247859Y512646D02*
X235641Y512646D01*
X235641Y518514D01*
X247859Y518514D01*
X247859Y515035D02*
X235641Y515035D01*
X235641Y517424D02*
X247859Y517424D01*
X607609Y508354D02*
X607609Y502486D01*
X595391Y502486D01*
X595391Y508354D01*
X607609Y508354D01*
X607609Y504875D02*
X595391Y504875D01*
X595391Y507264D02*
X607609Y507264D01*
X607609Y512646D02*
X607609Y518514D01*
X607609Y512646D02*
X595391Y512646D01*
X595391Y518514D01*
X607609Y518514D01*
X607609Y515035D02*
X595391Y515035D01*
X595391Y517424D02*
X607609Y517424D01*
X967859Y508354D02*
X967859Y502486D01*
X955641Y502486D01*
X955641Y508354D01*
X967859Y508354D01*
X967859Y504875D02*
X955641Y504875D01*
X955641Y507264D02*
X967859Y507264D01*
X967859Y512646D02*
X967859Y518514D01*
X967859Y512646D02*
X955641Y512646D01*
X955641Y518514D01*
X967859Y518514D01*
X967859Y515035D02*
X955641Y515035D01*
X955641Y517424D02*
X967859Y517424D01*
M02*
