G04 EAGLE Gerber RS-274X export*
G75*
%MOMM*%
%FSLAX34Y34*%
%LPD*%
%INSoldermask Top*%
%IPPOS*%
%AMOC8*
5,1,8,0,0,1.08239X$1,22.5*%
G01*
%ADD10C,2.408200*%
%ADD11C,1.393200*%
%ADD12C,0.255544*%
%ADD13C,0.253344*%
%ADD14C,1.511200*%
%ADD15R,1.511200X1.511200*%
%ADD16C,0.252894*%
%ADD17C,0.254747*%
%ADD18C,0.254800*%
%ADD19C,1.703200*%
%ADD20C,0.255750*%
%ADD21C,0.479381*%
%ADD22C,0.257809*%
%ADD23C,0.253734*%
%ADD24C,0.260638*%
%ADD25R,1.311200X1.311200*%
%ADD26C,0.257297*%
%ADD27C,0.255525*%
%ADD28R,2.510000X2.650000*%
%ADD29C,0.250950*%
%ADD30C,1.629600*%
%ADD31C,0.246888*%
%ADD32C,0.253763*%
%ADD33C,0.445200*%
%ADD34C,0.252672*%
%ADD35C,0.251459*%
%ADD36C,0.259078*%

G36*
X716017Y232917D02*
X716017Y232917D01*
X716012Y232924D01*
X716019Y232930D01*
X716019Y244930D01*
X715983Y244977D01*
X715976Y244972D01*
X715970Y244979D01*
X711019Y244979D01*
X711019Y255930D01*
X710983Y255977D01*
X710976Y255972D01*
X710970Y255979D01*
X698970Y255979D01*
X698923Y255943D01*
X698928Y255936D01*
X698921Y255930D01*
X698921Y244979D01*
X693970Y244979D01*
X693923Y244943D01*
X693928Y244936D01*
X693921Y244930D01*
X693921Y232930D01*
X693957Y232883D01*
X693964Y232888D01*
X693970Y232881D01*
X715970Y232881D01*
X716017Y232917D01*
G37*
G36*
X711017Y198917D02*
X711017Y198917D01*
X711012Y198924D01*
X711019Y198930D01*
X711019Y209881D01*
X715970Y209881D01*
X716017Y209917D01*
X716012Y209924D01*
X716019Y209930D01*
X716019Y221930D01*
X715983Y221977D01*
X715976Y221972D01*
X715970Y221979D01*
X693970Y221979D01*
X693923Y221943D01*
X693928Y221936D01*
X693921Y221930D01*
X693921Y209930D01*
X693957Y209883D01*
X693964Y209888D01*
X693970Y209881D01*
X698921Y209881D01*
X698921Y198930D01*
X698957Y198883D01*
X698964Y198888D01*
X698970Y198881D01*
X710970Y198881D01*
X711017Y198917D01*
G37*
D10*
X749550Y120000D03*
X250450Y120000D03*
D11*
X758450Y65400D03*
D12*
X629531Y343531D02*
X629531Y356009D01*
X645009Y356009D01*
X645009Y343531D01*
X629531Y343531D01*
X629531Y345958D02*
X645009Y345958D01*
X645009Y348385D02*
X629531Y348385D01*
X629531Y350812D02*
X645009Y350812D01*
X645009Y353239D02*
X629531Y353239D01*
X629531Y355666D02*
X645009Y355666D01*
X629531Y336009D02*
X629531Y323531D01*
X629531Y336009D02*
X645009Y336009D01*
X645009Y323531D01*
X629531Y323531D01*
X629531Y325958D02*
X645009Y325958D01*
X645009Y328385D02*
X629531Y328385D01*
X629531Y330812D02*
X645009Y330812D01*
X645009Y333239D02*
X629531Y333239D01*
X629531Y335666D02*
X645009Y335666D01*
X750991Y333411D02*
X763469Y333411D01*
X750991Y333411D02*
X750991Y348889D01*
X763469Y348889D01*
X763469Y333411D01*
X763469Y335838D02*
X750991Y335838D01*
X750991Y338265D02*
X763469Y338265D01*
X763469Y340692D02*
X750991Y340692D01*
X750991Y343119D02*
X763469Y343119D01*
X763469Y345546D02*
X750991Y345546D01*
X750991Y347973D02*
X763469Y347973D01*
X770991Y333411D02*
X783469Y333411D01*
X770991Y333411D02*
X770991Y348889D01*
X783469Y348889D01*
X783469Y333411D01*
X783469Y335838D02*
X770991Y335838D01*
X770991Y338265D02*
X783469Y338265D01*
X783469Y340692D02*
X770991Y340692D01*
X770991Y343119D02*
X783469Y343119D01*
X783469Y345546D02*
X770991Y345546D01*
X770991Y347973D02*
X783469Y347973D01*
X545519Y214099D02*
X545519Y201621D01*
X530041Y201621D01*
X530041Y214099D01*
X545519Y214099D01*
X545519Y204048D02*
X530041Y204048D01*
X530041Y206475D02*
X545519Y206475D01*
X545519Y208902D02*
X530041Y208902D01*
X530041Y211329D02*
X545519Y211329D01*
X545519Y213756D02*
X530041Y213756D01*
X545519Y221621D02*
X545519Y234099D01*
X545519Y221621D02*
X530041Y221621D01*
X530041Y234099D01*
X545519Y234099D01*
X545519Y224048D02*
X530041Y224048D01*
X530041Y226475D02*
X545519Y226475D01*
X545519Y228902D02*
X530041Y228902D01*
X530041Y231329D02*
X545519Y231329D01*
X545519Y233756D02*
X530041Y233756D01*
X655021Y464609D02*
X667499Y464609D01*
X667499Y449131D01*
X655021Y449131D01*
X655021Y464609D01*
X655021Y451558D02*
X667499Y451558D01*
X667499Y453985D02*
X655021Y453985D01*
X655021Y456412D02*
X667499Y456412D01*
X667499Y458839D02*
X655021Y458839D01*
X655021Y461266D02*
X667499Y461266D01*
X667499Y463693D02*
X655021Y463693D01*
X647499Y464609D02*
X635021Y464609D01*
X647499Y464609D02*
X647499Y449131D01*
X635021Y449131D01*
X635021Y464609D01*
X635021Y451558D02*
X647499Y451558D01*
X647499Y453985D02*
X635021Y453985D01*
X635021Y456412D02*
X647499Y456412D01*
X647499Y458839D02*
X635021Y458839D01*
X635021Y461266D02*
X647499Y461266D01*
X647499Y463693D02*
X635021Y463693D01*
X656481Y444659D02*
X656481Y432181D01*
X656481Y444659D02*
X671959Y444659D01*
X671959Y432181D01*
X656481Y432181D01*
X656481Y434608D02*
X671959Y434608D01*
X671959Y437035D02*
X656481Y437035D01*
X656481Y439462D02*
X671959Y439462D01*
X671959Y441889D02*
X656481Y441889D01*
X656481Y444316D02*
X671959Y444316D01*
X656481Y424659D02*
X656481Y412181D01*
X656481Y424659D02*
X671959Y424659D01*
X671959Y412181D01*
X656481Y412181D01*
X656481Y414608D02*
X671959Y414608D01*
X671959Y417035D02*
X656481Y417035D01*
X656481Y419462D02*
X671959Y419462D01*
X671959Y421889D02*
X656481Y421889D01*
X656481Y424316D02*
X671959Y424316D01*
X336119Y251289D02*
X323641Y251289D01*
X336119Y251289D02*
X336119Y235811D01*
X323641Y235811D01*
X323641Y251289D01*
X323641Y238238D02*
X336119Y238238D01*
X336119Y240665D02*
X323641Y240665D01*
X323641Y243092D02*
X336119Y243092D01*
X336119Y245519D02*
X323641Y245519D01*
X323641Y247946D02*
X336119Y247946D01*
X336119Y250373D02*
X323641Y250373D01*
X316119Y251289D02*
X303641Y251289D01*
X316119Y251289D02*
X316119Y235811D01*
X303641Y235811D01*
X303641Y251289D01*
X303641Y238238D02*
X316119Y238238D01*
X316119Y240665D02*
X303641Y240665D01*
X303641Y243092D02*
X316119Y243092D01*
X316119Y245519D02*
X303641Y245519D01*
X303641Y247946D02*
X316119Y247946D01*
X316119Y250373D02*
X303641Y250373D01*
X434771Y253521D02*
X434771Y265999D01*
X450249Y265999D01*
X450249Y253521D01*
X434771Y253521D01*
X434771Y255948D02*
X450249Y255948D01*
X450249Y258375D02*
X434771Y258375D01*
X434771Y260802D02*
X450249Y260802D01*
X450249Y263229D02*
X434771Y263229D01*
X434771Y265656D02*
X450249Y265656D01*
X434771Y245999D02*
X434771Y233521D01*
X434771Y245999D02*
X450249Y245999D01*
X450249Y233521D01*
X434771Y233521D01*
X434771Y235948D02*
X450249Y235948D01*
X450249Y238375D02*
X434771Y238375D01*
X434771Y240802D02*
X450249Y240802D01*
X450249Y243229D02*
X434771Y243229D01*
X434771Y245656D02*
X450249Y245656D01*
X725571Y200441D02*
X738049Y200441D01*
X725571Y200441D02*
X725571Y215919D01*
X738049Y215919D01*
X738049Y200441D01*
X738049Y202868D02*
X725571Y202868D01*
X725571Y205295D02*
X738049Y205295D01*
X738049Y207722D02*
X725571Y207722D01*
X725571Y210149D02*
X738049Y210149D01*
X738049Y212576D02*
X725571Y212576D01*
X725571Y215003D02*
X738049Y215003D01*
X745571Y200441D02*
X758049Y200441D01*
X745571Y200441D02*
X745571Y215919D01*
X758049Y215919D01*
X758049Y200441D01*
X758049Y202868D02*
X745571Y202868D01*
X745571Y205295D02*
X758049Y205295D01*
X758049Y207722D02*
X745571Y207722D01*
X745571Y210149D02*
X758049Y210149D01*
X758049Y212576D02*
X745571Y212576D01*
X745571Y215003D02*
X758049Y215003D01*
X489769Y483821D02*
X477291Y483821D01*
X477291Y499299D01*
X489769Y499299D01*
X489769Y483821D01*
X489769Y486248D02*
X477291Y486248D01*
X477291Y488675D02*
X489769Y488675D01*
X489769Y491102D02*
X477291Y491102D01*
X477291Y493529D02*
X489769Y493529D01*
X489769Y495956D02*
X477291Y495956D01*
X477291Y498383D02*
X489769Y498383D01*
X497291Y483821D02*
X509769Y483821D01*
X497291Y483821D02*
X497291Y499299D01*
X509769Y499299D01*
X509769Y483821D01*
X509769Y486248D02*
X497291Y486248D01*
X497291Y488675D02*
X509769Y488675D01*
X509769Y491102D02*
X497291Y491102D01*
X497291Y493529D02*
X509769Y493529D01*
X509769Y495956D02*
X497291Y495956D01*
X497291Y498383D02*
X509769Y498383D01*
X522221Y401359D02*
X534699Y401359D01*
X534699Y385881D01*
X522221Y385881D01*
X522221Y401359D01*
X522221Y388308D02*
X534699Y388308D01*
X534699Y390735D02*
X522221Y390735D01*
X522221Y393162D02*
X534699Y393162D01*
X534699Y395589D02*
X522221Y395589D01*
X522221Y398016D02*
X534699Y398016D01*
X534699Y400443D02*
X522221Y400443D01*
X514699Y401359D02*
X502221Y401359D01*
X514699Y401359D02*
X514699Y385881D01*
X502221Y385881D01*
X502221Y401359D01*
X502221Y388308D02*
X514699Y388308D01*
X514699Y390735D02*
X502221Y390735D01*
X502221Y393162D02*
X514699Y393162D01*
X514699Y395589D02*
X502221Y395589D01*
X502221Y398016D02*
X514699Y398016D01*
X514699Y400443D02*
X502221Y400443D01*
X648579Y207089D02*
X648579Y194611D01*
X633101Y194611D01*
X633101Y207089D01*
X648579Y207089D01*
X648579Y197038D02*
X633101Y197038D01*
X633101Y199465D02*
X648579Y199465D01*
X648579Y201892D02*
X633101Y201892D01*
X633101Y204319D02*
X648579Y204319D01*
X648579Y206746D02*
X633101Y206746D01*
X648579Y214611D02*
X648579Y227089D01*
X648579Y214611D02*
X633101Y214611D01*
X633101Y227089D01*
X648579Y227089D01*
X648579Y217038D02*
X633101Y217038D01*
X633101Y219465D02*
X648579Y219465D01*
X648579Y221892D02*
X633101Y221892D01*
X633101Y224319D02*
X648579Y224319D01*
X648579Y226746D02*
X633101Y226746D01*
X761911Y229261D02*
X761911Y241739D01*
X777389Y241739D01*
X777389Y229261D01*
X761911Y229261D01*
X761911Y231688D02*
X777389Y231688D01*
X777389Y234115D02*
X761911Y234115D01*
X761911Y236542D02*
X777389Y236542D01*
X777389Y238969D02*
X761911Y238969D01*
X761911Y241396D02*
X777389Y241396D01*
X761911Y221739D02*
X761911Y209261D01*
X761911Y221739D02*
X777389Y221739D01*
X777389Y209261D01*
X761911Y209261D01*
X761911Y211688D02*
X777389Y211688D01*
X777389Y214115D02*
X761911Y214115D01*
X761911Y216542D02*
X777389Y216542D01*
X777389Y218969D02*
X761911Y218969D01*
X761911Y221396D02*
X777389Y221396D01*
X101289Y307359D02*
X88811Y307359D01*
X101289Y307359D02*
X101289Y291881D01*
X88811Y291881D01*
X88811Y307359D01*
X88811Y294308D02*
X101289Y294308D01*
X101289Y296735D02*
X88811Y296735D01*
X88811Y299162D02*
X101289Y299162D01*
X101289Y301589D02*
X88811Y301589D01*
X88811Y304016D02*
X101289Y304016D01*
X101289Y306443D02*
X88811Y306443D01*
X81289Y307359D02*
X68811Y307359D01*
X81289Y307359D02*
X81289Y291881D01*
X68811Y291881D01*
X68811Y307359D01*
X68811Y294308D02*
X81289Y294308D01*
X81289Y296735D02*
X68811Y296735D01*
X68811Y299162D02*
X81289Y299162D01*
X81289Y301589D02*
X68811Y301589D01*
X68811Y304016D02*
X81289Y304016D01*
X81289Y306443D02*
X68811Y306443D01*
X339311Y529939D02*
X351789Y529939D01*
X351789Y514461D01*
X339311Y514461D01*
X339311Y529939D01*
X339311Y516888D02*
X351789Y516888D01*
X351789Y519315D02*
X339311Y519315D01*
X339311Y521742D02*
X351789Y521742D01*
X351789Y524169D02*
X339311Y524169D01*
X339311Y526596D02*
X351789Y526596D01*
X351789Y529023D02*
X339311Y529023D01*
X331789Y529939D02*
X319311Y529939D01*
X331789Y529939D02*
X331789Y514461D01*
X319311Y514461D01*
X319311Y529939D01*
X319311Y516888D02*
X331789Y516888D01*
X331789Y519315D02*
X319311Y519315D01*
X319311Y521742D02*
X331789Y521742D01*
X331789Y524169D02*
X319311Y524169D01*
X319311Y526596D02*
X331789Y526596D01*
X331789Y529023D02*
X319311Y529023D01*
X488819Y371149D02*
X488819Y358671D01*
X473341Y358671D01*
X473341Y371149D01*
X488819Y371149D01*
X488819Y361098D02*
X473341Y361098D01*
X473341Y363525D02*
X488819Y363525D01*
X488819Y365952D02*
X473341Y365952D01*
X473341Y368379D02*
X488819Y368379D01*
X488819Y370806D02*
X473341Y370806D01*
X488819Y378671D02*
X488819Y391149D01*
X488819Y378671D02*
X473341Y378671D01*
X473341Y391149D01*
X488819Y391149D01*
X488819Y381098D02*
X473341Y381098D01*
X473341Y383525D02*
X488819Y383525D01*
X488819Y385952D02*
X473341Y385952D01*
X473341Y388379D02*
X488819Y388379D01*
X488819Y390806D02*
X473341Y390806D01*
X711329Y319269D02*
X711329Y306791D01*
X695851Y306791D01*
X695851Y319269D01*
X711329Y319269D01*
X711329Y309218D02*
X695851Y309218D01*
X695851Y311645D02*
X711329Y311645D01*
X711329Y314072D02*
X695851Y314072D01*
X695851Y316499D02*
X711329Y316499D01*
X711329Y318926D02*
X695851Y318926D01*
X711329Y326791D02*
X711329Y339269D01*
X711329Y326791D02*
X695851Y326791D01*
X695851Y339269D01*
X711329Y339269D01*
X711329Y329218D02*
X695851Y329218D01*
X695851Y331645D02*
X711329Y331645D01*
X711329Y334072D02*
X695851Y334072D01*
X695851Y336499D02*
X711329Y336499D01*
X711329Y338926D02*
X695851Y338926D01*
D13*
X720890Y300500D02*
X725190Y300500D01*
X720890Y300500D02*
X720890Y304000D01*
X725190Y304000D01*
X725190Y300500D01*
X725190Y302906D02*
X720890Y302906D01*
X734090Y300500D02*
X738390Y300500D01*
X734090Y300500D02*
X734090Y304000D01*
X738390Y304000D01*
X738390Y300500D01*
X738390Y302906D02*
X734090Y302906D01*
D14*
X36300Y142400D03*
X36300Y162400D03*
X36300Y182400D03*
X36300Y202400D03*
X36300Y222400D03*
D15*
X36300Y122400D03*
D16*
X311332Y472548D02*
X311332Y479052D01*
X311332Y472548D02*
X302828Y472548D01*
X302828Y479052D01*
X311332Y479052D01*
X311332Y474951D02*
X302828Y474951D01*
X302828Y477354D02*
X311332Y477354D01*
X292332Y472552D02*
X292332Y466048D01*
X283828Y466048D01*
X283828Y472552D01*
X292332Y472552D01*
X292332Y468451D02*
X283828Y468451D01*
X283828Y470854D02*
X292332Y470854D01*
X292332Y479048D02*
X292332Y485552D01*
X292332Y479048D02*
X283828Y479048D01*
X283828Y485552D01*
X292332Y485552D01*
X292332Y481451D02*
X283828Y481451D01*
X283828Y483854D02*
X292332Y483854D01*
X311332Y451422D02*
X311332Y444918D01*
X302828Y444918D01*
X302828Y451422D01*
X311332Y451422D01*
X311332Y447321D02*
X302828Y447321D01*
X302828Y449724D02*
X311332Y449724D01*
X292332Y444922D02*
X292332Y438418D01*
X283828Y438418D01*
X283828Y444922D01*
X292332Y444922D01*
X292332Y440821D02*
X283828Y440821D01*
X283828Y443224D02*
X292332Y443224D01*
X292332Y451418D02*
X292332Y457922D01*
X292332Y451418D02*
X283828Y451418D01*
X283828Y457922D01*
X292332Y457922D01*
X292332Y453821D02*
X283828Y453821D01*
X283828Y456224D02*
X292332Y456224D01*
D13*
X638130Y269820D02*
X641630Y269820D01*
X641630Y265820D01*
X638130Y265820D01*
X638130Y269820D01*
X638130Y268226D02*
X641630Y268226D01*
X633630Y269820D02*
X630130Y269820D01*
X633630Y269820D02*
X633630Y265820D01*
X630130Y265820D01*
X630130Y269820D01*
X630130Y268226D02*
X633630Y268226D01*
D17*
X633637Y258313D02*
X638123Y258313D01*
X638123Y254327D01*
X633637Y254327D01*
X633637Y258313D01*
X633637Y256747D02*
X638123Y256747D01*
D13*
X660100Y383370D02*
X663600Y383370D01*
X660100Y383370D02*
X660100Y387370D01*
X663600Y387370D01*
X663600Y383370D01*
X663600Y385776D02*
X660100Y385776D01*
X668100Y383370D02*
X671600Y383370D01*
X668100Y383370D02*
X668100Y387370D01*
X671600Y387370D01*
X671600Y383370D01*
X671600Y385776D02*
X668100Y385776D01*
D17*
X668093Y394877D02*
X663607Y394877D01*
X663607Y398863D01*
X668093Y398863D01*
X668093Y394877D01*
X668093Y397297D02*
X663607Y397297D01*
D13*
X247530Y270510D02*
X247530Y267010D01*
X243530Y267010D01*
X243530Y270510D01*
X247530Y270510D01*
X247530Y269416D02*
X243530Y269416D01*
X247530Y275010D02*
X247530Y278510D01*
X247530Y275010D02*
X243530Y275010D01*
X243530Y278510D01*
X247530Y278510D01*
X247530Y277416D02*
X243530Y277416D01*
D17*
X236023Y275003D02*
X236023Y270517D01*
X232037Y270517D01*
X232037Y275003D01*
X236023Y275003D01*
X236023Y272937D02*
X232037Y272937D01*
D16*
X256828Y284368D02*
X256828Y290872D01*
X265332Y290872D01*
X265332Y284368D01*
X256828Y284368D01*
X256828Y286771D02*
X265332Y286771D01*
X265332Y289174D02*
X256828Y289174D01*
X275828Y290868D02*
X275828Y297372D01*
X284332Y297372D01*
X284332Y290868D01*
X275828Y290868D01*
X275828Y293271D02*
X284332Y293271D01*
X284332Y295674D02*
X275828Y295674D01*
X275828Y284372D02*
X275828Y277868D01*
X275828Y284372D02*
X284332Y284372D01*
X284332Y277868D01*
X275828Y277868D01*
X275828Y280271D02*
X284332Y280271D01*
X284332Y282674D02*
X275828Y282674D01*
X652672Y372298D02*
X652672Y378802D01*
X652672Y372298D02*
X644168Y372298D01*
X644168Y378802D01*
X652672Y378802D01*
X652672Y374701D02*
X644168Y374701D01*
X644168Y377104D02*
X652672Y377104D01*
X633672Y372302D02*
X633672Y365798D01*
X625168Y365798D01*
X625168Y372302D01*
X633672Y372302D01*
X633672Y368201D02*
X625168Y368201D01*
X625168Y370604D02*
X633672Y370604D01*
X633672Y378798D02*
X633672Y385302D01*
X633672Y378798D02*
X625168Y378798D01*
X625168Y385302D01*
X633672Y385302D01*
X633672Y381201D02*
X625168Y381201D01*
X625168Y383604D02*
X633672Y383604D01*
D12*
X534609Y418299D02*
X522131Y418299D01*
X534609Y418299D02*
X534609Y403821D01*
X522131Y403821D01*
X522131Y418299D01*
X522131Y406248D02*
X534609Y406248D01*
X534609Y408675D02*
X522131Y408675D01*
X522131Y411102D02*
X534609Y411102D01*
X534609Y413529D02*
X522131Y413529D01*
X522131Y415956D02*
X534609Y415956D01*
X515609Y418299D02*
X503131Y418299D01*
X515609Y418299D02*
X515609Y403821D01*
X503131Y403821D01*
X503131Y418299D01*
X503131Y406248D02*
X515609Y406248D01*
X515609Y408675D02*
X503131Y408675D01*
X503131Y411102D02*
X515609Y411102D01*
X515609Y413529D02*
X503131Y413529D01*
X503131Y415956D02*
X515609Y415956D01*
X744631Y273479D02*
X757109Y273479D01*
X757109Y259001D01*
X744631Y259001D01*
X744631Y273479D01*
X744631Y261428D02*
X757109Y261428D01*
X757109Y263855D02*
X744631Y263855D01*
X744631Y266282D02*
X757109Y266282D01*
X757109Y268709D02*
X744631Y268709D01*
X744631Y271136D02*
X757109Y271136D01*
X738109Y273479D02*
X725631Y273479D01*
X738109Y273479D02*
X738109Y259001D01*
X725631Y259001D01*
X725631Y273479D01*
X725631Y261428D02*
X738109Y261428D01*
X738109Y263855D02*
X725631Y263855D01*
X725631Y266282D02*
X738109Y266282D01*
X738109Y268709D02*
X725631Y268709D01*
X725631Y271136D02*
X738109Y271136D01*
X680989Y357289D02*
X668511Y357289D01*
X680989Y357289D02*
X680989Y342811D01*
X668511Y342811D01*
X668511Y357289D01*
X668511Y345238D02*
X680989Y345238D01*
X680989Y347665D02*
X668511Y347665D01*
X668511Y350092D02*
X680989Y350092D01*
X680989Y352519D02*
X668511Y352519D01*
X668511Y354946D02*
X680989Y354946D01*
X661989Y357289D02*
X649511Y357289D01*
X661989Y357289D02*
X661989Y342811D01*
X649511Y342811D01*
X649511Y357289D01*
X649511Y345238D02*
X661989Y345238D01*
X661989Y347665D02*
X649511Y347665D01*
X649511Y350092D02*
X661989Y350092D01*
X661989Y352519D02*
X649511Y352519D01*
X649511Y354946D02*
X661989Y354946D01*
X600411Y376081D02*
X600411Y388559D01*
X614889Y388559D01*
X614889Y376081D01*
X600411Y376081D01*
X600411Y378508D02*
X614889Y378508D01*
X614889Y380935D02*
X600411Y380935D01*
X600411Y383362D02*
X614889Y383362D01*
X614889Y385789D02*
X600411Y385789D01*
X600411Y388216D02*
X614889Y388216D01*
X600411Y369559D02*
X600411Y357081D01*
X600411Y369559D02*
X614889Y369559D01*
X614889Y357081D01*
X600411Y357081D01*
X600411Y359508D02*
X614889Y359508D01*
X614889Y361935D02*
X600411Y361935D01*
X600411Y364362D02*
X614889Y364362D01*
X614889Y366789D02*
X600411Y366789D01*
X600411Y369216D02*
X614889Y369216D01*
X612261Y424409D02*
X624739Y424409D01*
X624739Y409931D01*
X612261Y409931D01*
X612261Y424409D01*
X612261Y412358D02*
X624739Y412358D01*
X624739Y414785D02*
X612261Y414785D01*
X612261Y417212D02*
X624739Y417212D01*
X624739Y419639D02*
X612261Y419639D01*
X612261Y422066D02*
X624739Y422066D01*
X605739Y424409D02*
X593261Y424409D01*
X605739Y424409D02*
X605739Y409931D01*
X593261Y409931D01*
X593261Y424409D01*
X593261Y412358D02*
X605739Y412358D01*
X605739Y414785D02*
X593261Y414785D01*
X593261Y417212D02*
X605739Y417212D01*
X605739Y419639D02*
X593261Y419639D01*
X593261Y422066D02*
X605739Y422066D01*
X594029Y458189D02*
X581551Y458189D01*
X594029Y458189D02*
X594029Y443711D01*
X581551Y443711D01*
X581551Y458189D01*
X581551Y446138D02*
X594029Y446138D01*
X594029Y448565D02*
X581551Y448565D01*
X581551Y450992D02*
X594029Y450992D01*
X594029Y453419D02*
X581551Y453419D01*
X581551Y455846D02*
X594029Y455846D01*
X575029Y458189D02*
X562551Y458189D01*
X575029Y458189D02*
X575029Y443711D01*
X562551Y443711D01*
X562551Y458189D01*
X562551Y446138D02*
X575029Y446138D01*
X575029Y448565D02*
X562551Y448565D01*
X562551Y450992D02*
X575029Y450992D01*
X575029Y453419D02*
X562551Y453419D01*
X562551Y455846D02*
X575029Y455846D01*
X523739Y475899D02*
X511261Y475899D01*
X523739Y475899D02*
X523739Y461421D01*
X511261Y461421D01*
X511261Y475899D01*
X511261Y463848D02*
X523739Y463848D01*
X523739Y466275D02*
X511261Y466275D01*
X511261Y468702D02*
X523739Y468702D01*
X523739Y471129D02*
X511261Y471129D01*
X511261Y473556D02*
X523739Y473556D01*
X504739Y475899D02*
X492261Y475899D01*
X504739Y475899D02*
X504739Y461421D01*
X492261Y461421D01*
X492261Y475899D01*
X492261Y463848D02*
X504739Y463848D01*
X504739Y466275D02*
X492261Y466275D01*
X492261Y468702D02*
X504739Y468702D01*
X504739Y471129D02*
X492261Y471129D01*
X492261Y473556D02*
X504739Y473556D01*
X522251Y383139D02*
X534729Y383139D01*
X534729Y368661D01*
X522251Y368661D01*
X522251Y383139D01*
X522251Y371088D02*
X534729Y371088D01*
X534729Y373515D02*
X522251Y373515D01*
X522251Y375942D02*
X534729Y375942D01*
X534729Y378369D02*
X522251Y378369D01*
X522251Y380796D02*
X534729Y380796D01*
X515729Y383139D02*
X503251Y383139D01*
X515729Y383139D02*
X515729Y368661D01*
X503251Y368661D01*
X503251Y383139D01*
X503251Y371088D02*
X515729Y371088D01*
X515729Y373515D02*
X503251Y373515D01*
X503251Y375942D02*
X515729Y375942D01*
X515729Y378369D02*
X503251Y378369D01*
X503251Y380796D02*
X515729Y380796D01*
X541001Y362639D02*
X553479Y362639D01*
X553479Y348161D01*
X541001Y348161D01*
X541001Y362639D01*
X541001Y350588D02*
X553479Y350588D01*
X553479Y353015D02*
X541001Y353015D01*
X541001Y355442D02*
X553479Y355442D01*
X553479Y357869D02*
X541001Y357869D01*
X541001Y360296D02*
X553479Y360296D01*
X534479Y362639D02*
X522001Y362639D01*
X534479Y362639D02*
X534479Y348161D01*
X522001Y348161D01*
X522001Y362639D01*
X522001Y350588D02*
X534479Y350588D01*
X534479Y353015D02*
X522001Y353015D01*
X522001Y355442D02*
X534479Y355442D01*
X534479Y357869D02*
X522001Y357869D01*
X522001Y360296D02*
X534479Y360296D01*
X530749Y484861D02*
X518271Y484861D01*
X518271Y499339D01*
X530749Y499339D01*
X530749Y484861D01*
X530749Y487288D02*
X518271Y487288D01*
X518271Y489715D02*
X530749Y489715D01*
X530749Y492142D02*
X518271Y492142D01*
X518271Y494569D02*
X530749Y494569D01*
X530749Y496996D02*
X518271Y496996D01*
X537271Y484861D02*
X549749Y484861D01*
X537271Y484861D02*
X537271Y499339D01*
X549749Y499339D01*
X549749Y484861D01*
X549749Y487288D02*
X537271Y487288D01*
X537271Y489715D02*
X549749Y489715D01*
X549749Y492142D02*
X537271Y492142D01*
X537271Y494569D02*
X549749Y494569D01*
X549749Y496996D02*
X537271Y496996D01*
X580801Y500059D02*
X593279Y500059D01*
X593279Y485581D01*
X580801Y485581D01*
X580801Y500059D01*
X580801Y488008D02*
X593279Y488008D01*
X593279Y490435D02*
X580801Y490435D01*
X580801Y492862D02*
X593279Y492862D01*
X593279Y495289D02*
X580801Y495289D01*
X580801Y497716D02*
X593279Y497716D01*
X574279Y500059D02*
X561801Y500059D01*
X574279Y500059D02*
X574279Y485581D01*
X561801Y485581D01*
X561801Y500059D01*
X561801Y488008D02*
X574279Y488008D01*
X574279Y490435D02*
X561801Y490435D01*
X561801Y492862D02*
X574279Y492862D01*
X574279Y495289D02*
X561801Y495289D01*
X561801Y497716D02*
X574279Y497716D01*
X429089Y195921D02*
X416611Y195921D01*
X416611Y210399D01*
X429089Y210399D01*
X429089Y195921D01*
X429089Y198348D02*
X416611Y198348D01*
X416611Y200775D02*
X429089Y200775D01*
X429089Y203202D02*
X416611Y203202D01*
X416611Y205629D02*
X429089Y205629D01*
X429089Y208056D02*
X416611Y208056D01*
X435611Y195921D02*
X448089Y195921D01*
X435611Y195921D02*
X435611Y210399D01*
X448089Y210399D01*
X448089Y195921D01*
X448089Y198348D02*
X435611Y198348D01*
X435611Y200775D02*
X448089Y200775D01*
X448089Y203202D02*
X435611Y203202D01*
X435611Y205629D02*
X448089Y205629D01*
X448089Y208056D02*
X435611Y208056D01*
X421949Y218781D02*
X421949Y231259D01*
X421949Y218781D02*
X407471Y218781D01*
X407471Y231259D01*
X421949Y231259D01*
X421949Y221208D02*
X407471Y221208D01*
X407471Y223635D02*
X421949Y223635D01*
X421949Y226062D02*
X407471Y226062D01*
X407471Y228489D02*
X421949Y228489D01*
X421949Y230916D02*
X407471Y230916D01*
X421949Y237781D02*
X421949Y250259D01*
X421949Y237781D02*
X407471Y237781D01*
X407471Y250259D01*
X421949Y250259D01*
X421949Y240208D02*
X407471Y240208D01*
X407471Y242635D02*
X421949Y242635D01*
X421949Y245062D02*
X407471Y245062D01*
X407471Y247489D02*
X421949Y247489D01*
X421949Y249916D02*
X407471Y249916D01*
X572281Y251561D02*
X572281Y264039D01*
X586759Y264039D01*
X586759Y251561D01*
X572281Y251561D01*
X572281Y253988D02*
X586759Y253988D01*
X586759Y256415D02*
X572281Y256415D01*
X572281Y258842D02*
X586759Y258842D01*
X586759Y261269D02*
X572281Y261269D01*
X572281Y263696D02*
X586759Y263696D01*
X572281Y245039D02*
X572281Y232561D01*
X572281Y245039D02*
X586759Y245039D01*
X586759Y232561D01*
X572281Y232561D01*
X572281Y234988D02*
X586759Y234988D01*
X586759Y237415D02*
X572281Y237415D01*
X572281Y239842D02*
X586759Y239842D01*
X586759Y242269D02*
X572281Y242269D01*
X572281Y244696D02*
X586759Y244696D01*
X551661Y237639D02*
X551661Y225161D01*
X551661Y237639D02*
X566139Y237639D01*
X566139Y225161D01*
X551661Y225161D01*
X551661Y227588D02*
X566139Y227588D01*
X566139Y230015D02*
X551661Y230015D01*
X551661Y232442D02*
X566139Y232442D01*
X566139Y234869D02*
X551661Y234869D01*
X551661Y237296D02*
X566139Y237296D01*
X551661Y218639D02*
X551661Y206161D01*
X551661Y218639D02*
X566139Y218639D01*
X566139Y206161D01*
X551661Y206161D01*
X551661Y208588D02*
X566139Y208588D01*
X566139Y211015D02*
X551661Y211015D01*
X551661Y213442D02*
X566139Y213442D01*
X566139Y215869D02*
X551661Y215869D01*
X551661Y218296D02*
X566139Y218296D01*
X559199Y342159D02*
X546721Y342159D01*
X559199Y342159D02*
X559199Y327681D01*
X546721Y327681D01*
X546721Y342159D01*
X546721Y330108D02*
X559199Y330108D01*
X559199Y332535D02*
X546721Y332535D01*
X546721Y334962D02*
X559199Y334962D01*
X559199Y337389D02*
X546721Y337389D01*
X546721Y339816D02*
X559199Y339816D01*
X540199Y342159D02*
X527721Y342159D01*
X540199Y342159D02*
X540199Y327681D01*
X527721Y327681D01*
X527721Y342159D01*
X527721Y330108D02*
X540199Y330108D01*
X540199Y332535D02*
X527721Y332535D01*
X527721Y334962D02*
X540199Y334962D01*
X540199Y337389D02*
X527721Y337389D01*
X527721Y339816D02*
X540199Y339816D01*
X428219Y286369D02*
X428219Y273891D01*
X413741Y273891D01*
X413741Y286369D01*
X428219Y286369D01*
X428219Y276318D02*
X413741Y276318D01*
X413741Y278745D02*
X428219Y278745D01*
X428219Y281172D02*
X413741Y281172D01*
X413741Y283599D02*
X428219Y283599D01*
X428219Y286026D02*
X413741Y286026D01*
X428219Y292891D02*
X428219Y305369D01*
X428219Y292891D02*
X413741Y292891D01*
X413741Y305369D01*
X428219Y305369D01*
X428219Y295318D02*
X413741Y295318D01*
X413741Y297745D02*
X428219Y297745D01*
X428219Y300172D02*
X413741Y300172D01*
X413741Y302599D02*
X428219Y302599D01*
X428219Y305026D02*
X413741Y305026D01*
X434761Y305359D02*
X434761Y292881D01*
X434761Y305359D02*
X449239Y305359D01*
X449239Y292881D01*
X434761Y292881D01*
X434761Y295308D02*
X449239Y295308D01*
X449239Y297735D02*
X434761Y297735D01*
X434761Y300162D02*
X449239Y300162D01*
X449239Y302589D02*
X434761Y302589D01*
X434761Y305016D02*
X449239Y305016D01*
X434761Y286359D02*
X434761Y273881D01*
X434761Y286359D02*
X449239Y286359D01*
X449239Y273881D01*
X434761Y273881D01*
X434761Y276308D02*
X449239Y276308D01*
X449239Y278735D02*
X434761Y278735D01*
X434761Y281162D02*
X449239Y281162D01*
X449239Y283589D02*
X434761Y283589D01*
X434761Y286016D02*
X449239Y286016D01*
X387229Y305571D02*
X374751Y305571D01*
X374751Y320049D01*
X387229Y320049D01*
X387229Y305571D01*
X387229Y307998D02*
X374751Y307998D01*
X374751Y310425D02*
X387229Y310425D01*
X387229Y312852D02*
X374751Y312852D01*
X374751Y315279D02*
X387229Y315279D01*
X387229Y317706D02*
X374751Y317706D01*
X393751Y305571D02*
X406229Y305571D01*
X393751Y305571D02*
X393751Y320049D01*
X406229Y320049D01*
X406229Y305571D01*
X406229Y307998D02*
X393751Y307998D01*
X393751Y310425D02*
X406229Y310425D01*
X406229Y312852D02*
X393751Y312852D01*
X393751Y315279D02*
X406229Y315279D01*
X406229Y317706D02*
X393751Y317706D01*
X565291Y437979D02*
X577769Y437979D01*
X577769Y423501D01*
X565291Y423501D01*
X565291Y437979D01*
X565291Y425928D02*
X577769Y425928D01*
X577769Y428355D02*
X565291Y428355D01*
X565291Y430782D02*
X577769Y430782D01*
X577769Y433209D02*
X565291Y433209D01*
X565291Y435636D02*
X577769Y435636D01*
X558769Y437979D02*
X546291Y437979D01*
X558769Y437979D02*
X558769Y423501D01*
X546291Y423501D01*
X546291Y437979D01*
X546291Y425928D02*
X558769Y425928D01*
X558769Y428355D02*
X546291Y428355D01*
X546291Y430782D02*
X558769Y430782D01*
X558769Y433209D02*
X546291Y433209D01*
X546291Y435636D02*
X558769Y435636D01*
X533609Y440699D02*
X521131Y440699D01*
X533609Y440699D02*
X533609Y426221D01*
X521131Y426221D01*
X521131Y440699D01*
X521131Y428648D02*
X533609Y428648D01*
X533609Y431075D02*
X521131Y431075D01*
X521131Y433502D02*
X533609Y433502D01*
X533609Y435929D02*
X521131Y435929D01*
X521131Y438356D02*
X533609Y438356D01*
X514609Y440699D02*
X502131Y440699D01*
X514609Y440699D02*
X514609Y426221D01*
X502131Y426221D01*
X502131Y440699D01*
X502131Y428648D02*
X514609Y428648D01*
X514609Y431075D02*
X502131Y431075D01*
X502131Y433502D02*
X514609Y433502D01*
X514609Y435929D02*
X502131Y435929D01*
X502131Y438356D02*
X514609Y438356D01*
X482679Y475849D02*
X470201Y475849D01*
X482679Y475849D02*
X482679Y461371D01*
X470201Y461371D01*
X470201Y475849D01*
X470201Y463798D02*
X482679Y463798D01*
X482679Y466225D02*
X470201Y466225D01*
X470201Y468652D02*
X482679Y468652D01*
X482679Y471079D02*
X470201Y471079D01*
X470201Y473506D02*
X482679Y473506D01*
X463679Y475849D02*
X451201Y475849D01*
X463679Y475849D02*
X463679Y461371D01*
X451201Y461371D01*
X451201Y475849D01*
X451201Y463798D02*
X463679Y463798D01*
X463679Y466225D02*
X451201Y466225D01*
X451201Y468652D02*
X463679Y468652D01*
X463679Y471079D02*
X451201Y471079D01*
X451201Y473506D02*
X463679Y473506D01*
X469039Y497209D02*
X456561Y497209D01*
X469039Y497209D02*
X469039Y482731D01*
X456561Y482731D01*
X456561Y497209D01*
X456561Y485158D02*
X469039Y485158D01*
X469039Y487585D02*
X456561Y487585D01*
X456561Y490012D02*
X469039Y490012D01*
X469039Y492439D02*
X456561Y492439D01*
X456561Y494866D02*
X469039Y494866D01*
X450039Y497209D02*
X437561Y497209D01*
X450039Y497209D02*
X450039Y482731D01*
X437561Y482731D01*
X437561Y497209D01*
X437561Y485158D02*
X450039Y485158D01*
X450039Y487585D02*
X437561Y487585D01*
X437561Y490012D02*
X450039Y490012D01*
X450039Y492439D02*
X437561Y492439D01*
X437561Y494866D02*
X450039Y494866D01*
X310101Y430979D02*
X310101Y418501D01*
X310101Y430979D02*
X324579Y430979D01*
X324579Y418501D01*
X310101Y418501D01*
X310101Y420928D02*
X324579Y420928D01*
X324579Y423355D02*
X310101Y423355D01*
X310101Y425782D02*
X324579Y425782D01*
X324579Y428209D02*
X310101Y428209D01*
X310101Y430636D02*
X324579Y430636D01*
X310101Y411979D02*
X310101Y399501D01*
X310101Y411979D02*
X324579Y411979D01*
X324579Y399501D01*
X310101Y399501D01*
X310101Y401928D02*
X324579Y401928D01*
X324579Y404355D02*
X310101Y404355D01*
X310101Y406782D02*
X324579Y406782D01*
X324579Y409209D02*
X310101Y409209D01*
X310101Y411636D02*
X324579Y411636D01*
X345789Y413729D02*
X345789Y401251D01*
X331311Y401251D01*
X331311Y413729D01*
X345789Y413729D01*
X345789Y403678D02*
X331311Y403678D01*
X331311Y406105D02*
X345789Y406105D01*
X345789Y408532D02*
X331311Y408532D01*
X331311Y410959D02*
X345789Y410959D01*
X345789Y413386D02*
X331311Y413386D01*
X345789Y420251D02*
X345789Y432729D01*
X345789Y420251D02*
X331311Y420251D01*
X331311Y432729D01*
X345789Y432729D01*
X345789Y422678D02*
X331311Y422678D01*
X331311Y425105D02*
X345789Y425105D01*
X345789Y427532D02*
X331311Y427532D01*
X331311Y429959D02*
X345789Y429959D01*
X345789Y432386D02*
X331311Y432386D01*
X795911Y349239D02*
X795911Y336761D01*
X795911Y349239D02*
X810389Y349239D01*
X810389Y336761D01*
X795911Y336761D01*
X795911Y339188D02*
X810389Y339188D01*
X810389Y341615D02*
X795911Y341615D01*
X795911Y344042D02*
X810389Y344042D01*
X810389Y346469D02*
X795911Y346469D01*
X795911Y348896D02*
X810389Y348896D01*
X795911Y330239D02*
X795911Y317761D01*
X795911Y330239D02*
X810389Y330239D01*
X810389Y317761D01*
X795911Y317761D01*
X795911Y320188D02*
X810389Y320188D01*
X810389Y322615D02*
X795911Y322615D01*
X795911Y325042D02*
X810389Y325042D01*
X810389Y327469D02*
X795911Y327469D01*
X795911Y329896D02*
X810389Y329896D01*
D18*
X708448Y477824D02*
X691812Y477824D01*
X691812Y480176D01*
X708448Y480176D01*
X708448Y477824D01*
X708448Y472824D02*
X691812Y472824D01*
X691812Y475176D01*
X708448Y475176D01*
X708448Y472824D01*
X708448Y467824D02*
X691812Y467824D01*
X691812Y470176D01*
X708448Y470176D01*
X708448Y467824D01*
X708448Y462824D02*
X691812Y462824D01*
X691812Y465176D01*
X708448Y465176D01*
X708448Y462824D01*
X708448Y457824D02*
X691812Y457824D01*
X691812Y460176D01*
X708448Y460176D01*
X708448Y457824D01*
X708448Y452824D02*
X691812Y452824D01*
X691812Y455176D01*
X708448Y455176D01*
X708448Y452824D01*
X708448Y447824D02*
X691812Y447824D01*
X691812Y450176D01*
X708448Y450176D01*
X708448Y447824D01*
X708448Y442824D02*
X691812Y442824D01*
X691812Y445176D01*
X708448Y445176D01*
X708448Y442824D01*
X708448Y437824D02*
X691812Y437824D01*
X691812Y440176D01*
X708448Y440176D01*
X708448Y437824D01*
X708448Y432824D02*
X691812Y432824D01*
X691812Y435176D01*
X708448Y435176D01*
X708448Y432824D01*
X708448Y427824D02*
X691812Y427824D01*
X691812Y430176D01*
X708448Y430176D01*
X708448Y427824D01*
X708448Y422824D02*
X691812Y422824D01*
X691812Y425176D01*
X708448Y425176D01*
X708448Y422824D01*
X708448Y417824D02*
X691812Y417824D01*
X691812Y420176D01*
X708448Y420176D01*
X708448Y417824D01*
X708448Y412824D02*
X691812Y412824D01*
X691812Y415176D01*
X708448Y415176D01*
X708448Y412824D01*
X708448Y407824D02*
X691812Y407824D01*
X691812Y410176D01*
X708448Y410176D01*
X708448Y407824D01*
X708448Y402824D02*
X691812Y402824D01*
X691812Y405176D01*
X708448Y405176D01*
X708448Y402824D01*
X708448Y397824D02*
X691812Y397824D01*
X691812Y400176D01*
X708448Y400176D01*
X708448Y397824D01*
X708448Y392824D02*
X691812Y392824D01*
X691812Y395176D01*
X708448Y395176D01*
X708448Y392824D01*
X708448Y387824D02*
X691812Y387824D01*
X691812Y390176D01*
X708448Y390176D01*
X708448Y387824D01*
X708448Y382824D02*
X691812Y382824D01*
X691812Y385176D01*
X708448Y385176D01*
X708448Y382824D01*
X708448Y377824D02*
X691812Y377824D01*
X691812Y380176D01*
X708448Y380176D01*
X708448Y377824D01*
X708448Y372824D02*
X691812Y372824D01*
X691812Y375176D01*
X708448Y375176D01*
X708448Y372824D01*
X708448Y367824D02*
X691812Y367824D01*
X691812Y370176D01*
X708448Y370176D01*
X708448Y367824D01*
X708448Y362824D02*
X691812Y362824D01*
X691812Y365176D01*
X708448Y365176D01*
X708448Y362824D01*
X764812Y362824D02*
X781448Y362824D01*
X764812Y362824D02*
X764812Y365176D01*
X781448Y365176D01*
X781448Y362824D01*
X781448Y367824D02*
X764812Y367824D01*
X764812Y370176D01*
X781448Y370176D01*
X781448Y367824D01*
X781448Y372824D02*
X764812Y372824D01*
X764812Y375176D01*
X781448Y375176D01*
X781448Y372824D01*
X781448Y377824D02*
X764812Y377824D01*
X764812Y380176D01*
X781448Y380176D01*
X781448Y377824D01*
X781448Y382824D02*
X764812Y382824D01*
X764812Y385176D01*
X781448Y385176D01*
X781448Y382824D01*
X781448Y387824D02*
X764812Y387824D01*
X764812Y390176D01*
X781448Y390176D01*
X781448Y387824D01*
X781448Y392824D02*
X764812Y392824D01*
X764812Y395176D01*
X781448Y395176D01*
X781448Y392824D01*
X781448Y397824D02*
X764812Y397824D01*
X764812Y400176D01*
X781448Y400176D01*
X781448Y397824D01*
X781448Y402824D02*
X764812Y402824D01*
X764812Y405176D01*
X781448Y405176D01*
X781448Y402824D01*
X781448Y407824D02*
X764812Y407824D01*
X764812Y410176D01*
X781448Y410176D01*
X781448Y407824D01*
X781448Y412824D02*
X764812Y412824D01*
X764812Y415176D01*
X781448Y415176D01*
X781448Y412824D01*
X781448Y417824D02*
X764812Y417824D01*
X764812Y420176D01*
X781448Y420176D01*
X781448Y417824D01*
X781448Y422824D02*
X764812Y422824D01*
X764812Y425176D01*
X781448Y425176D01*
X781448Y422824D01*
X781448Y427824D02*
X764812Y427824D01*
X764812Y430176D01*
X781448Y430176D01*
X781448Y427824D01*
X781448Y432824D02*
X764812Y432824D01*
X764812Y435176D01*
X781448Y435176D01*
X781448Y432824D01*
X781448Y437824D02*
X764812Y437824D01*
X764812Y440176D01*
X781448Y440176D01*
X781448Y437824D01*
X781448Y442824D02*
X764812Y442824D01*
X764812Y445176D01*
X781448Y445176D01*
X781448Y442824D01*
X781448Y447824D02*
X764812Y447824D01*
X764812Y450176D01*
X781448Y450176D01*
X781448Y447824D01*
X781448Y452824D02*
X764812Y452824D01*
X764812Y455176D01*
X781448Y455176D01*
X781448Y452824D01*
X781448Y457824D02*
X764812Y457824D01*
X764812Y460176D01*
X781448Y460176D01*
X781448Y457824D01*
X781448Y462824D02*
X764812Y462824D01*
X764812Y465176D01*
X781448Y465176D01*
X781448Y462824D01*
X781448Y467824D02*
X764812Y467824D01*
X764812Y470176D01*
X781448Y470176D01*
X781448Y467824D01*
X781448Y472824D02*
X764812Y472824D01*
X764812Y475176D01*
X781448Y475176D01*
X781448Y472824D01*
X781448Y477824D02*
X764812Y477824D01*
X764812Y480176D01*
X781448Y480176D01*
X781448Y477824D01*
D19*
X479760Y235980D03*
X505160Y235980D03*
D20*
X721616Y318152D02*
X721616Y329798D01*
X721616Y318152D02*
X716424Y318152D01*
X716424Y329798D01*
X721616Y329798D01*
X721616Y320582D02*
X716424Y320582D01*
X716424Y323012D02*
X721616Y323012D01*
X721616Y325442D02*
X716424Y325442D01*
X716424Y327872D02*
X721616Y327872D01*
X731116Y329798D02*
X731116Y318152D01*
X725924Y318152D01*
X725924Y329798D01*
X731116Y329798D01*
X731116Y320582D02*
X725924Y320582D01*
X725924Y323012D02*
X731116Y323012D01*
X731116Y325442D02*
X725924Y325442D01*
X725924Y327872D02*
X731116Y327872D01*
X740616Y329798D02*
X740616Y318152D01*
X735424Y318152D01*
X735424Y329798D01*
X740616Y329798D01*
X740616Y320582D02*
X735424Y320582D01*
X735424Y323012D02*
X740616Y323012D01*
X740616Y325442D02*
X735424Y325442D01*
X735424Y327872D02*
X740616Y327872D01*
X740616Y341182D02*
X740616Y352828D01*
X740616Y341182D02*
X735424Y341182D01*
X735424Y352828D01*
X740616Y352828D01*
X740616Y343612D02*
X735424Y343612D01*
X735424Y346042D02*
X740616Y346042D01*
X740616Y348472D02*
X735424Y348472D01*
X735424Y350902D02*
X740616Y350902D01*
X721616Y352828D02*
X721616Y341182D01*
X716424Y341182D01*
X716424Y352828D01*
X721616Y352828D01*
X721616Y343612D02*
X716424Y343612D01*
X716424Y346042D02*
X721616Y346042D01*
X721616Y348472D02*
X716424Y348472D01*
X716424Y350902D02*
X721616Y350902D01*
D21*
X381779Y407869D02*
X369541Y407869D01*
X381779Y407869D02*
X381779Y404931D01*
X369541Y404931D01*
X369541Y407869D01*
X369541Y399869D02*
X381779Y399869D01*
X381779Y396931D01*
X369541Y396931D01*
X369541Y399869D01*
X369541Y391869D02*
X381779Y391869D01*
X381779Y388931D01*
X369541Y388931D01*
X369541Y391869D01*
X369541Y383869D02*
X381779Y383869D01*
X381779Y380931D01*
X369541Y380931D01*
X369541Y383869D01*
X369541Y375869D02*
X381779Y375869D01*
X381779Y372931D01*
X369541Y372931D01*
X369541Y375869D01*
X369541Y367869D02*
X381779Y367869D01*
X381779Y364931D01*
X369541Y364931D01*
X369541Y367869D01*
X369541Y359869D02*
X381779Y359869D01*
X381779Y356931D01*
X369541Y356931D01*
X369541Y359869D01*
X369541Y351869D02*
X381779Y351869D01*
X381779Y348931D01*
X369541Y348931D01*
X369541Y351869D01*
X387491Y343219D02*
X387491Y330981D01*
X387491Y343219D02*
X390429Y343219D01*
X390429Y330981D01*
X387491Y330981D01*
X387491Y335535D02*
X390429Y335535D01*
X390429Y340089D02*
X387491Y340089D01*
X395491Y343219D02*
X395491Y330981D01*
X395491Y343219D02*
X398429Y343219D01*
X398429Y330981D01*
X395491Y330981D01*
X395491Y335535D02*
X398429Y335535D01*
X398429Y340089D02*
X395491Y340089D01*
X403491Y343219D02*
X403491Y330981D01*
X403491Y343219D02*
X406429Y343219D01*
X406429Y330981D01*
X403491Y330981D01*
X403491Y335535D02*
X406429Y335535D01*
X406429Y340089D02*
X403491Y340089D01*
X411491Y343219D02*
X411491Y330981D01*
X411491Y343219D02*
X414429Y343219D01*
X414429Y330981D01*
X411491Y330981D01*
X411491Y335535D02*
X414429Y335535D01*
X414429Y340089D02*
X411491Y340089D01*
X419491Y343219D02*
X419491Y330981D01*
X419491Y343219D02*
X422429Y343219D01*
X422429Y330981D01*
X419491Y330981D01*
X419491Y335535D02*
X422429Y335535D01*
X422429Y340089D02*
X419491Y340089D01*
X427491Y343219D02*
X427491Y330981D01*
X427491Y343219D02*
X430429Y343219D01*
X430429Y330981D01*
X427491Y330981D01*
X427491Y335535D02*
X430429Y335535D01*
X430429Y340089D02*
X427491Y340089D01*
X435491Y343219D02*
X435491Y330981D01*
X435491Y343219D02*
X438429Y343219D01*
X438429Y330981D01*
X435491Y330981D01*
X435491Y335535D02*
X438429Y335535D01*
X438429Y340089D02*
X435491Y340089D01*
X443491Y343219D02*
X443491Y330981D01*
X443491Y343219D02*
X446429Y343219D01*
X446429Y330981D01*
X443491Y330981D01*
X443491Y335535D02*
X446429Y335535D01*
X446429Y340089D02*
X443491Y340089D01*
X452141Y348931D02*
X464379Y348931D01*
X452141Y348931D02*
X452141Y351869D01*
X464379Y351869D01*
X464379Y348931D01*
X464379Y356931D02*
X452141Y356931D01*
X452141Y359869D01*
X464379Y359869D01*
X464379Y356931D01*
X464379Y364931D02*
X452141Y364931D01*
X452141Y367869D01*
X464379Y367869D01*
X464379Y364931D01*
X464379Y372931D02*
X452141Y372931D01*
X452141Y375869D01*
X464379Y375869D01*
X464379Y372931D01*
X464379Y380931D02*
X452141Y380931D01*
X452141Y383869D01*
X464379Y383869D01*
X464379Y380931D01*
X464379Y388931D02*
X452141Y388931D01*
X452141Y391869D01*
X464379Y391869D01*
X464379Y388931D01*
X464379Y396931D02*
X452141Y396931D01*
X452141Y399869D01*
X464379Y399869D01*
X464379Y396931D01*
X464379Y404931D02*
X452141Y404931D01*
X452141Y407869D01*
X464379Y407869D01*
X464379Y404931D01*
X446429Y413581D02*
X446429Y425819D01*
X446429Y413581D02*
X443491Y413581D01*
X443491Y425819D01*
X446429Y425819D01*
X446429Y418135D02*
X443491Y418135D01*
X443491Y422689D02*
X446429Y422689D01*
X438429Y425819D02*
X438429Y413581D01*
X435491Y413581D01*
X435491Y425819D01*
X438429Y425819D01*
X438429Y418135D02*
X435491Y418135D01*
X435491Y422689D02*
X438429Y422689D01*
X430429Y425819D02*
X430429Y413581D01*
X427491Y413581D01*
X427491Y425819D01*
X430429Y425819D01*
X430429Y418135D02*
X427491Y418135D01*
X427491Y422689D02*
X430429Y422689D01*
X422429Y425819D02*
X422429Y413581D01*
X419491Y413581D01*
X419491Y425819D01*
X422429Y425819D01*
X422429Y418135D02*
X419491Y418135D01*
X419491Y422689D02*
X422429Y422689D01*
X414429Y425819D02*
X414429Y413581D01*
X411491Y413581D01*
X411491Y425819D01*
X414429Y425819D01*
X414429Y418135D02*
X411491Y418135D01*
X411491Y422689D02*
X414429Y422689D01*
X406429Y425819D02*
X406429Y413581D01*
X403491Y413581D01*
X403491Y425819D01*
X406429Y425819D01*
X406429Y418135D02*
X403491Y418135D01*
X403491Y422689D02*
X406429Y422689D01*
X398429Y425819D02*
X398429Y413581D01*
X395491Y413581D01*
X395491Y425819D01*
X398429Y425819D01*
X398429Y418135D02*
X395491Y418135D01*
X395491Y422689D02*
X398429Y422689D01*
X390429Y425819D02*
X390429Y413581D01*
X387491Y413581D01*
X387491Y425819D01*
X390429Y425819D01*
X390429Y418135D02*
X387491Y418135D01*
X387491Y422689D02*
X390429Y422689D01*
D22*
X354295Y498756D02*
X335029Y498756D01*
X335029Y503544D01*
X354295Y503544D01*
X354295Y498756D01*
X354295Y501205D02*
X335029Y501205D01*
X335029Y486056D02*
X354295Y486056D01*
X335029Y486056D02*
X335029Y490844D01*
X354295Y490844D01*
X354295Y486056D01*
X354295Y488505D02*
X335029Y488505D01*
X335029Y473356D02*
X354295Y473356D01*
X335029Y473356D02*
X335029Y478144D01*
X354295Y478144D01*
X354295Y473356D01*
X354295Y475805D02*
X335029Y475805D01*
X335029Y460656D02*
X354295Y460656D01*
X335029Y460656D02*
X335029Y465444D01*
X354295Y465444D01*
X354295Y460656D01*
X354295Y463105D02*
X335029Y463105D01*
X384305Y460656D02*
X403571Y460656D01*
X384305Y460656D02*
X384305Y465444D01*
X403571Y465444D01*
X403571Y460656D01*
X403571Y463105D02*
X384305Y463105D01*
X384305Y473356D02*
X403571Y473356D01*
X384305Y473356D02*
X384305Y478144D01*
X403571Y478144D01*
X403571Y473356D01*
X403571Y475805D02*
X384305Y475805D01*
X384305Y486056D02*
X403571Y486056D01*
X384305Y486056D02*
X384305Y490844D01*
X403571Y490844D01*
X403571Y486056D01*
X403571Y488505D02*
X384305Y488505D01*
X384305Y498756D02*
X403571Y498756D01*
X384305Y498756D02*
X384305Y503544D01*
X403571Y503544D01*
X403571Y498756D01*
X403571Y501205D02*
X384305Y501205D01*
D23*
X81918Y337118D02*
X81918Y317622D01*
X73422Y317622D01*
X73422Y337118D01*
X81918Y337118D01*
X81918Y320032D02*
X73422Y320032D01*
X73422Y322442D02*
X81918Y322442D01*
X81918Y324852D02*
X73422Y324852D01*
X73422Y327262D02*
X81918Y327262D01*
X81918Y329672D02*
X73422Y329672D01*
X73422Y332082D02*
X81918Y332082D01*
X81918Y334492D02*
X73422Y334492D01*
X73422Y336902D02*
X81918Y336902D01*
X94618Y337118D02*
X94618Y317622D01*
X86122Y317622D01*
X86122Y337118D01*
X94618Y337118D01*
X94618Y320032D02*
X86122Y320032D01*
X86122Y322442D02*
X94618Y322442D01*
X94618Y324852D02*
X86122Y324852D01*
X86122Y327262D02*
X94618Y327262D01*
X94618Y329672D02*
X86122Y329672D01*
X86122Y332082D02*
X94618Y332082D01*
X94618Y334492D02*
X86122Y334492D01*
X86122Y336902D02*
X94618Y336902D01*
X107318Y337118D02*
X107318Y317622D01*
X98822Y317622D01*
X98822Y337118D01*
X107318Y337118D01*
X107318Y320032D02*
X98822Y320032D01*
X98822Y322442D02*
X107318Y322442D01*
X107318Y324852D02*
X98822Y324852D01*
X98822Y327262D02*
X107318Y327262D01*
X107318Y329672D02*
X98822Y329672D01*
X98822Y332082D02*
X107318Y332082D01*
X107318Y334492D02*
X98822Y334492D01*
X98822Y336902D02*
X107318Y336902D01*
X120018Y337118D02*
X120018Y317622D01*
X111522Y317622D01*
X111522Y337118D01*
X120018Y337118D01*
X120018Y320032D02*
X111522Y320032D01*
X111522Y322442D02*
X120018Y322442D01*
X120018Y324852D02*
X111522Y324852D01*
X111522Y327262D02*
X120018Y327262D01*
X120018Y329672D02*
X111522Y329672D01*
X111522Y332082D02*
X120018Y332082D01*
X120018Y334492D02*
X111522Y334492D01*
X111522Y336902D02*
X120018Y336902D01*
X132718Y337118D02*
X132718Y317622D01*
X124222Y317622D01*
X124222Y337118D01*
X132718Y337118D01*
X132718Y320032D02*
X124222Y320032D01*
X124222Y322442D02*
X132718Y322442D01*
X132718Y324852D02*
X124222Y324852D01*
X124222Y327262D02*
X132718Y327262D01*
X132718Y329672D02*
X124222Y329672D01*
X124222Y332082D02*
X132718Y332082D01*
X132718Y334492D02*
X124222Y334492D01*
X124222Y336902D02*
X132718Y336902D01*
X145418Y337118D02*
X145418Y317622D01*
X136922Y317622D01*
X136922Y337118D01*
X145418Y337118D01*
X145418Y320032D02*
X136922Y320032D01*
X136922Y322442D02*
X145418Y322442D01*
X145418Y324852D02*
X136922Y324852D01*
X136922Y327262D02*
X145418Y327262D01*
X145418Y329672D02*
X136922Y329672D01*
X136922Y332082D02*
X145418Y332082D01*
X145418Y334492D02*
X136922Y334492D01*
X136922Y336902D02*
X145418Y336902D01*
X158118Y337118D02*
X158118Y317622D01*
X149622Y317622D01*
X149622Y337118D01*
X158118Y337118D01*
X158118Y320032D02*
X149622Y320032D01*
X149622Y322442D02*
X158118Y322442D01*
X158118Y324852D02*
X149622Y324852D01*
X149622Y327262D02*
X158118Y327262D01*
X158118Y329672D02*
X149622Y329672D01*
X149622Y332082D02*
X158118Y332082D01*
X158118Y334492D02*
X149622Y334492D01*
X149622Y336902D02*
X158118Y336902D01*
X170818Y337118D02*
X170818Y317622D01*
X162322Y317622D01*
X162322Y337118D01*
X170818Y337118D01*
X170818Y320032D02*
X162322Y320032D01*
X162322Y322442D02*
X170818Y322442D01*
X170818Y324852D02*
X162322Y324852D01*
X162322Y327262D02*
X170818Y327262D01*
X170818Y329672D02*
X162322Y329672D01*
X162322Y332082D02*
X170818Y332082D01*
X170818Y334492D02*
X162322Y334492D01*
X162322Y336902D02*
X170818Y336902D01*
X183518Y337118D02*
X183518Y317622D01*
X175022Y317622D01*
X175022Y337118D01*
X183518Y337118D01*
X183518Y320032D02*
X175022Y320032D01*
X175022Y322442D02*
X183518Y322442D01*
X183518Y324852D02*
X175022Y324852D01*
X175022Y327262D02*
X183518Y327262D01*
X183518Y329672D02*
X175022Y329672D01*
X175022Y332082D02*
X183518Y332082D01*
X183518Y334492D02*
X175022Y334492D01*
X175022Y336902D02*
X183518Y336902D01*
X196218Y337118D02*
X196218Y317622D01*
X187722Y317622D01*
X187722Y337118D01*
X196218Y337118D01*
X196218Y320032D02*
X187722Y320032D01*
X187722Y322442D02*
X196218Y322442D01*
X196218Y324852D02*
X187722Y324852D01*
X187722Y327262D02*
X196218Y327262D01*
X196218Y329672D02*
X187722Y329672D01*
X187722Y332082D02*
X196218Y332082D01*
X196218Y334492D02*
X187722Y334492D01*
X187722Y336902D02*
X196218Y336902D01*
X208918Y337118D02*
X208918Y317622D01*
X200422Y317622D01*
X200422Y337118D01*
X208918Y337118D01*
X208918Y320032D02*
X200422Y320032D01*
X200422Y322442D02*
X208918Y322442D01*
X208918Y324852D02*
X200422Y324852D01*
X200422Y327262D02*
X208918Y327262D01*
X208918Y329672D02*
X200422Y329672D01*
X200422Y332082D02*
X208918Y332082D01*
X208918Y334492D02*
X200422Y334492D01*
X200422Y336902D02*
X208918Y336902D01*
X221618Y337118D02*
X221618Y317622D01*
X213122Y317622D01*
X213122Y337118D01*
X221618Y337118D01*
X221618Y320032D02*
X213122Y320032D01*
X213122Y322442D02*
X221618Y322442D01*
X221618Y324852D02*
X213122Y324852D01*
X213122Y327262D02*
X221618Y327262D01*
X221618Y329672D02*
X213122Y329672D01*
X213122Y332082D02*
X221618Y332082D01*
X221618Y334492D02*
X213122Y334492D01*
X213122Y336902D02*
X221618Y336902D01*
X234318Y337118D02*
X234318Y317622D01*
X225822Y317622D01*
X225822Y337118D01*
X234318Y337118D01*
X234318Y320032D02*
X225822Y320032D01*
X225822Y322442D02*
X234318Y322442D01*
X234318Y324852D02*
X225822Y324852D01*
X225822Y327262D02*
X234318Y327262D01*
X234318Y329672D02*
X225822Y329672D01*
X225822Y332082D02*
X234318Y332082D01*
X234318Y334492D02*
X225822Y334492D01*
X225822Y336902D02*
X234318Y336902D01*
X247018Y337118D02*
X247018Y317622D01*
X238522Y317622D01*
X238522Y337118D01*
X247018Y337118D01*
X247018Y320032D02*
X238522Y320032D01*
X238522Y322442D02*
X247018Y322442D01*
X247018Y324852D02*
X238522Y324852D01*
X238522Y327262D02*
X247018Y327262D01*
X247018Y329672D02*
X238522Y329672D01*
X238522Y332082D02*
X247018Y332082D01*
X247018Y334492D02*
X238522Y334492D01*
X238522Y336902D02*
X247018Y336902D01*
X262518Y350972D02*
X262518Y359468D01*
X262518Y350972D02*
X243022Y350972D01*
X243022Y359468D01*
X262518Y359468D01*
X262518Y353382D02*
X243022Y353382D01*
X243022Y355792D02*
X262518Y355792D01*
X262518Y358202D02*
X243022Y358202D01*
X262518Y363672D02*
X262518Y372168D01*
X262518Y363672D02*
X243022Y363672D01*
X243022Y372168D01*
X262518Y372168D01*
X262518Y366082D02*
X243022Y366082D01*
X243022Y368492D02*
X262518Y368492D01*
X262518Y370902D02*
X243022Y370902D01*
X262518Y376372D02*
X262518Y384868D01*
X262518Y376372D02*
X243022Y376372D01*
X243022Y384868D01*
X262518Y384868D01*
X262518Y378782D02*
X243022Y378782D01*
X243022Y381192D02*
X262518Y381192D01*
X262518Y383602D02*
X243022Y383602D01*
X262518Y389072D02*
X262518Y397568D01*
X262518Y389072D02*
X243022Y389072D01*
X243022Y397568D01*
X262518Y397568D01*
X262518Y391482D02*
X243022Y391482D01*
X243022Y393892D02*
X262518Y393892D01*
X262518Y396302D02*
X243022Y396302D01*
X262518Y401772D02*
X262518Y410268D01*
X262518Y401772D02*
X243022Y401772D01*
X243022Y410268D01*
X262518Y410268D01*
X262518Y404182D02*
X243022Y404182D01*
X243022Y406592D02*
X262518Y406592D01*
X262518Y409002D02*
X243022Y409002D01*
X262518Y414472D02*
X262518Y422968D01*
X262518Y414472D02*
X243022Y414472D01*
X243022Y422968D01*
X262518Y422968D01*
X262518Y416882D02*
X243022Y416882D01*
X243022Y419292D02*
X262518Y419292D01*
X262518Y421702D02*
X243022Y421702D01*
X262518Y427172D02*
X262518Y435668D01*
X262518Y427172D02*
X243022Y427172D01*
X243022Y435668D01*
X262518Y435668D01*
X262518Y429582D02*
X243022Y429582D01*
X243022Y431992D02*
X262518Y431992D01*
X262518Y434402D02*
X243022Y434402D01*
X262518Y439872D02*
X262518Y448368D01*
X262518Y439872D02*
X243022Y439872D01*
X243022Y448368D01*
X262518Y448368D01*
X262518Y442282D02*
X243022Y442282D01*
X243022Y444692D02*
X262518Y444692D01*
X262518Y447102D02*
X243022Y447102D01*
X262518Y452572D02*
X262518Y461068D01*
X262518Y452572D02*
X243022Y452572D01*
X243022Y461068D01*
X262518Y461068D01*
X262518Y454982D02*
X243022Y454982D01*
X243022Y457392D02*
X262518Y457392D01*
X262518Y459802D02*
X243022Y459802D01*
X262518Y465272D02*
X262518Y473768D01*
X262518Y465272D02*
X243022Y465272D01*
X243022Y473768D01*
X262518Y473768D01*
X262518Y467682D02*
X243022Y467682D01*
X243022Y470092D02*
X262518Y470092D01*
X262518Y472502D02*
X243022Y472502D01*
X247018Y487622D02*
X247018Y507118D01*
X247018Y487622D02*
X238522Y487622D01*
X238522Y507118D01*
X247018Y507118D01*
X247018Y490032D02*
X238522Y490032D01*
X238522Y492442D02*
X247018Y492442D01*
X247018Y494852D02*
X238522Y494852D01*
X238522Y497262D02*
X247018Y497262D01*
X247018Y499672D02*
X238522Y499672D01*
X238522Y502082D02*
X247018Y502082D01*
X247018Y504492D02*
X238522Y504492D01*
X238522Y506902D02*
X247018Y506902D01*
X234318Y507118D02*
X234318Y487622D01*
X225822Y487622D01*
X225822Y507118D01*
X234318Y507118D01*
X234318Y490032D02*
X225822Y490032D01*
X225822Y492442D02*
X234318Y492442D01*
X234318Y494852D02*
X225822Y494852D01*
X225822Y497262D02*
X234318Y497262D01*
X234318Y499672D02*
X225822Y499672D01*
X225822Y502082D02*
X234318Y502082D01*
X234318Y504492D02*
X225822Y504492D01*
X225822Y506902D02*
X234318Y506902D01*
X221618Y507118D02*
X221618Y487622D01*
X213122Y487622D01*
X213122Y507118D01*
X221618Y507118D01*
X221618Y490032D02*
X213122Y490032D01*
X213122Y492442D02*
X221618Y492442D01*
X221618Y494852D02*
X213122Y494852D01*
X213122Y497262D02*
X221618Y497262D01*
X221618Y499672D02*
X213122Y499672D01*
X213122Y502082D02*
X221618Y502082D01*
X221618Y504492D02*
X213122Y504492D01*
X213122Y506902D02*
X221618Y506902D01*
X208918Y507118D02*
X208918Y487622D01*
X200422Y487622D01*
X200422Y507118D01*
X208918Y507118D01*
X208918Y490032D02*
X200422Y490032D01*
X200422Y492442D02*
X208918Y492442D01*
X208918Y494852D02*
X200422Y494852D01*
X200422Y497262D02*
X208918Y497262D01*
X208918Y499672D02*
X200422Y499672D01*
X200422Y502082D02*
X208918Y502082D01*
X208918Y504492D02*
X200422Y504492D01*
X200422Y506902D02*
X208918Y506902D01*
X196218Y507118D02*
X196218Y487622D01*
X187722Y487622D01*
X187722Y507118D01*
X196218Y507118D01*
X196218Y490032D02*
X187722Y490032D01*
X187722Y492442D02*
X196218Y492442D01*
X196218Y494852D02*
X187722Y494852D01*
X187722Y497262D02*
X196218Y497262D01*
X196218Y499672D02*
X187722Y499672D01*
X187722Y502082D02*
X196218Y502082D01*
X196218Y504492D02*
X187722Y504492D01*
X187722Y506902D02*
X196218Y506902D01*
X183518Y507118D02*
X183518Y487622D01*
X175022Y487622D01*
X175022Y507118D01*
X183518Y507118D01*
X183518Y490032D02*
X175022Y490032D01*
X175022Y492442D02*
X183518Y492442D01*
X183518Y494852D02*
X175022Y494852D01*
X175022Y497262D02*
X183518Y497262D01*
X183518Y499672D02*
X175022Y499672D01*
X175022Y502082D02*
X183518Y502082D01*
X183518Y504492D02*
X175022Y504492D01*
X175022Y506902D02*
X183518Y506902D01*
X170818Y507118D02*
X170818Y487622D01*
X162322Y487622D01*
X162322Y507118D01*
X170818Y507118D01*
X170818Y490032D02*
X162322Y490032D01*
X162322Y492442D02*
X170818Y492442D01*
X170818Y494852D02*
X162322Y494852D01*
X162322Y497262D02*
X170818Y497262D01*
X170818Y499672D02*
X162322Y499672D01*
X162322Y502082D02*
X170818Y502082D01*
X170818Y504492D02*
X162322Y504492D01*
X162322Y506902D02*
X170818Y506902D01*
X158118Y507118D02*
X158118Y487622D01*
X149622Y487622D01*
X149622Y507118D01*
X158118Y507118D01*
X158118Y490032D02*
X149622Y490032D01*
X149622Y492442D02*
X158118Y492442D01*
X158118Y494852D02*
X149622Y494852D01*
X149622Y497262D02*
X158118Y497262D01*
X158118Y499672D02*
X149622Y499672D01*
X149622Y502082D02*
X158118Y502082D01*
X158118Y504492D02*
X149622Y504492D01*
X149622Y506902D02*
X158118Y506902D01*
X145418Y507118D02*
X145418Y487622D01*
X136922Y487622D01*
X136922Y507118D01*
X145418Y507118D01*
X145418Y490032D02*
X136922Y490032D01*
X136922Y492442D02*
X145418Y492442D01*
X145418Y494852D02*
X136922Y494852D01*
X136922Y497262D02*
X145418Y497262D01*
X145418Y499672D02*
X136922Y499672D01*
X136922Y502082D02*
X145418Y502082D01*
X145418Y504492D02*
X136922Y504492D01*
X136922Y506902D02*
X145418Y506902D01*
X132718Y507118D02*
X132718Y487622D01*
X124222Y487622D01*
X124222Y507118D01*
X132718Y507118D01*
X132718Y490032D02*
X124222Y490032D01*
X124222Y492442D02*
X132718Y492442D01*
X132718Y494852D02*
X124222Y494852D01*
X124222Y497262D02*
X132718Y497262D01*
X132718Y499672D02*
X124222Y499672D01*
X124222Y502082D02*
X132718Y502082D01*
X132718Y504492D02*
X124222Y504492D01*
X124222Y506902D02*
X132718Y506902D01*
X120018Y507118D02*
X120018Y487622D01*
X111522Y487622D01*
X111522Y507118D01*
X120018Y507118D01*
X120018Y490032D02*
X111522Y490032D01*
X111522Y492442D02*
X120018Y492442D01*
X120018Y494852D02*
X111522Y494852D01*
X111522Y497262D02*
X120018Y497262D01*
X120018Y499672D02*
X111522Y499672D01*
X111522Y502082D02*
X120018Y502082D01*
X120018Y504492D02*
X111522Y504492D01*
X111522Y506902D02*
X120018Y506902D01*
X107318Y507118D02*
X107318Y487622D01*
X98822Y487622D01*
X98822Y507118D01*
X107318Y507118D01*
X107318Y490032D02*
X98822Y490032D01*
X98822Y492442D02*
X107318Y492442D01*
X107318Y494852D02*
X98822Y494852D01*
X98822Y497262D02*
X107318Y497262D01*
X107318Y499672D02*
X98822Y499672D01*
X98822Y502082D02*
X107318Y502082D01*
X107318Y504492D02*
X98822Y504492D01*
X98822Y506902D02*
X107318Y506902D01*
X94618Y507118D02*
X94618Y487622D01*
X86122Y487622D01*
X86122Y507118D01*
X94618Y507118D01*
X94618Y490032D02*
X86122Y490032D01*
X86122Y492442D02*
X94618Y492442D01*
X94618Y494852D02*
X86122Y494852D01*
X86122Y497262D02*
X94618Y497262D01*
X94618Y499672D02*
X86122Y499672D01*
X86122Y502082D02*
X94618Y502082D01*
X94618Y504492D02*
X86122Y504492D01*
X86122Y506902D02*
X94618Y506902D01*
X81918Y507118D02*
X81918Y487622D01*
X73422Y487622D01*
X73422Y507118D01*
X81918Y507118D01*
X81918Y490032D02*
X73422Y490032D01*
X73422Y492442D02*
X81918Y492442D01*
X81918Y494852D02*
X73422Y494852D01*
X73422Y497262D02*
X81918Y497262D01*
X81918Y499672D02*
X73422Y499672D01*
X73422Y502082D02*
X81918Y502082D01*
X81918Y504492D02*
X73422Y504492D01*
X73422Y506902D02*
X81918Y506902D01*
D24*
X139533Y389233D02*
X139533Y378807D01*
X129107Y378807D01*
X129107Y389233D01*
X139533Y389233D01*
X139533Y381283D02*
X129107Y381283D01*
X129107Y383759D02*
X139533Y383759D01*
X139533Y386235D02*
X129107Y386235D01*
X129107Y388711D02*
X139533Y388711D01*
X139533Y397157D02*
X139533Y407583D01*
X139533Y397157D02*
X129107Y397157D01*
X129107Y407583D01*
X139533Y407583D01*
X139533Y399633D02*
X129107Y399633D01*
X129107Y402109D02*
X139533Y402109D01*
X139533Y404585D02*
X129107Y404585D01*
X129107Y407061D02*
X139533Y407061D01*
X139533Y415507D02*
X139533Y425933D01*
X139533Y415507D02*
X129107Y415507D01*
X129107Y425933D01*
X139533Y425933D01*
X139533Y417983D02*
X129107Y417983D01*
X129107Y420459D02*
X139533Y420459D01*
X139533Y422935D02*
X129107Y422935D01*
X129107Y425411D02*
X139533Y425411D01*
X157883Y389233D02*
X157883Y378807D01*
X147457Y378807D01*
X147457Y389233D01*
X157883Y389233D01*
X157883Y381283D02*
X147457Y381283D01*
X147457Y383759D02*
X157883Y383759D01*
X157883Y386235D02*
X147457Y386235D01*
X147457Y388711D02*
X157883Y388711D01*
X157883Y397157D02*
X157883Y407583D01*
X157883Y397157D02*
X147457Y397157D01*
X147457Y407583D01*
X157883Y407583D01*
X157883Y399633D02*
X147457Y399633D01*
X147457Y402109D02*
X157883Y402109D01*
X157883Y404585D02*
X147457Y404585D01*
X147457Y407061D02*
X157883Y407061D01*
X157883Y415507D02*
X157883Y425933D01*
X157883Y415507D02*
X147457Y415507D01*
X147457Y425933D01*
X157883Y425933D01*
X157883Y417983D02*
X147457Y417983D01*
X147457Y420459D02*
X157883Y420459D01*
X157883Y422935D02*
X147457Y422935D01*
X147457Y425411D02*
X157883Y425411D01*
X176233Y389233D02*
X176233Y378807D01*
X165807Y378807D01*
X165807Y389233D01*
X176233Y389233D01*
X176233Y381283D02*
X165807Y381283D01*
X165807Y383759D02*
X176233Y383759D01*
X176233Y386235D02*
X165807Y386235D01*
X165807Y388711D02*
X176233Y388711D01*
X176233Y397157D02*
X176233Y407583D01*
X176233Y397157D02*
X165807Y397157D01*
X165807Y407583D01*
X176233Y407583D01*
X176233Y399633D02*
X165807Y399633D01*
X165807Y402109D02*
X176233Y402109D01*
X176233Y404585D02*
X165807Y404585D01*
X165807Y407061D02*
X176233Y407061D01*
X176233Y415507D02*
X176233Y425933D01*
X176233Y415507D02*
X165807Y415507D01*
X165807Y425933D01*
X176233Y425933D01*
X176233Y417983D02*
X165807Y417983D01*
X165807Y420459D02*
X176233Y420459D01*
X176233Y422935D02*
X165807Y422935D01*
X165807Y425411D02*
X176233Y425411D01*
D25*
X116554Y402210D03*
X116554Y384176D03*
X116554Y420498D03*
X152876Y439040D03*
X170910Y439040D03*
X134588Y439040D03*
X152876Y365888D03*
X170910Y365888D03*
X134588Y365888D03*
X188944Y402210D03*
X188944Y384176D03*
X188944Y420498D03*
D26*
X614901Y201539D02*
X629389Y201539D01*
X629389Y198861D01*
X614901Y198861D01*
X614901Y201539D01*
X614901Y201305D02*
X629389Y201305D01*
X629389Y206539D02*
X614901Y206539D01*
X629389Y206539D02*
X629389Y203861D01*
X614901Y203861D01*
X614901Y206539D01*
X614901Y206305D02*
X629389Y206305D01*
X629389Y211539D02*
X614901Y211539D01*
X629389Y211539D02*
X629389Y208861D01*
X614901Y208861D01*
X614901Y211539D01*
X614901Y211305D02*
X629389Y211305D01*
X629389Y216539D02*
X614901Y216539D01*
X629389Y216539D02*
X629389Y213861D01*
X614901Y213861D01*
X614901Y216539D01*
X614901Y216305D02*
X629389Y216305D01*
X629389Y221539D02*
X614901Y221539D01*
X629389Y221539D02*
X629389Y218861D01*
X614901Y218861D01*
X614901Y221539D01*
X614901Y221305D02*
X629389Y221305D01*
X587299Y221539D02*
X572811Y221539D01*
X587299Y221539D02*
X587299Y218861D01*
X572811Y218861D01*
X572811Y221539D01*
X572811Y221305D02*
X587299Y221305D01*
X587299Y216539D02*
X572811Y216539D01*
X587299Y216539D02*
X587299Y213861D01*
X572811Y213861D01*
X572811Y216539D01*
X572811Y216305D02*
X587299Y216305D01*
X587299Y211539D02*
X572811Y211539D01*
X587299Y211539D02*
X587299Y208861D01*
X572811Y208861D01*
X572811Y211539D01*
X572811Y211305D02*
X587299Y211305D01*
X587299Y206539D02*
X572811Y206539D01*
X587299Y206539D02*
X587299Y203861D01*
X572811Y203861D01*
X572811Y206539D01*
X572811Y206305D02*
X587299Y206305D01*
X587299Y201539D02*
X572811Y201539D01*
X587299Y201539D02*
X587299Y198861D01*
X572811Y198861D01*
X572811Y201539D01*
X572811Y201305D02*
X587299Y201305D01*
D27*
X357749Y254461D02*
X355571Y254461D01*
X355571Y263339D01*
X357749Y263339D01*
X357749Y254461D01*
X357749Y256888D02*
X355571Y256888D01*
X355571Y259315D02*
X357749Y259315D01*
X357749Y261742D02*
X355571Y261742D01*
X360571Y254461D02*
X362749Y254461D01*
X360571Y254461D02*
X360571Y263339D01*
X362749Y263339D01*
X362749Y254461D01*
X362749Y256888D02*
X360571Y256888D01*
X360571Y259315D02*
X362749Y259315D01*
X362749Y261742D02*
X360571Y261742D01*
X365571Y254461D02*
X367749Y254461D01*
X365571Y254461D02*
X365571Y263339D01*
X367749Y263339D01*
X367749Y254461D01*
X367749Y256888D02*
X365571Y256888D01*
X365571Y259315D02*
X367749Y259315D01*
X367749Y261742D02*
X365571Y261742D01*
X365571Y241861D02*
X367749Y241861D01*
X365571Y241861D02*
X365571Y250739D01*
X367749Y250739D01*
X367749Y241861D01*
X367749Y244288D02*
X365571Y244288D01*
X365571Y246715D02*
X367749Y246715D01*
X367749Y249142D02*
X365571Y249142D01*
X362749Y241861D02*
X360571Y241861D01*
X360571Y250739D01*
X362749Y250739D01*
X362749Y241861D01*
X362749Y244288D02*
X360571Y244288D01*
X360571Y246715D02*
X362749Y246715D01*
X362749Y249142D02*
X360571Y249142D01*
X357749Y241861D02*
X355571Y241861D01*
X355571Y251539D01*
X357749Y251539D01*
X357749Y241861D01*
X357749Y244288D02*
X355571Y244288D01*
X355571Y246715D02*
X357749Y246715D01*
X357749Y249142D02*
X355571Y249142D01*
D28*
X368350Y211400D03*
D29*
X385739Y223197D02*
X391561Y223197D01*
X391561Y219103D01*
X385739Y219103D01*
X385739Y223197D01*
X385739Y221487D02*
X391561Y221487D01*
X391561Y203697D02*
X385739Y203697D01*
X391561Y203697D02*
X391561Y199603D01*
X385739Y199603D01*
X385739Y203697D01*
X385739Y201987D02*
X391561Y201987D01*
X391561Y210197D02*
X385739Y210197D01*
X391561Y210197D02*
X391561Y206103D01*
X385739Y206103D01*
X385739Y210197D01*
X385739Y208487D02*
X391561Y208487D01*
X391561Y216697D02*
X385739Y216697D01*
X391561Y216697D02*
X391561Y212603D01*
X385739Y212603D01*
X385739Y216697D01*
X385739Y214987D02*
X391561Y214987D01*
D28*
X338650Y211400D03*
D29*
X321261Y199603D02*
X315439Y199603D01*
X315439Y203697D01*
X321261Y203697D01*
X321261Y199603D01*
X321261Y201987D02*
X315439Y201987D01*
X315439Y219103D02*
X321261Y219103D01*
X315439Y219103D02*
X315439Y223197D01*
X321261Y223197D01*
X321261Y219103D01*
X321261Y221487D02*
X315439Y221487D01*
X315439Y212603D02*
X321261Y212603D01*
X315439Y212603D02*
X315439Y216697D01*
X321261Y216697D01*
X321261Y212603D01*
X321261Y214987D02*
X315439Y214987D01*
X315439Y206103D02*
X321261Y206103D01*
X315439Y206103D02*
X315439Y210197D01*
X321261Y210197D01*
X321261Y206103D01*
X321261Y208487D02*
X315439Y208487D01*
D30*
X974300Y23500D03*
X948900Y23500D03*
X923500Y23500D03*
X898100Y23500D03*
X872700Y23500D03*
X847300Y23500D03*
X821900Y23500D03*
X796500Y23500D03*
X771100Y23500D03*
X745700Y23500D03*
X745700Y526500D03*
X771100Y526500D03*
X796500Y526500D03*
X821900Y526500D03*
X847300Y526500D03*
X872700Y526500D03*
X898100Y526500D03*
X923500Y526500D03*
X948900Y526500D03*
X974300Y526500D03*
X614300Y23500D03*
X588900Y23500D03*
X563500Y23500D03*
X538100Y23500D03*
X512700Y23500D03*
X487300Y23500D03*
X461900Y23500D03*
X436500Y23500D03*
X411100Y23500D03*
X385700Y23500D03*
X385700Y526500D03*
X411100Y526500D03*
X436500Y526500D03*
X461900Y526500D03*
X487300Y526500D03*
X512700Y526500D03*
X538100Y526500D03*
X563500Y526500D03*
X588900Y526500D03*
X614300Y526500D03*
X254300Y23500D03*
X228900Y23500D03*
X203500Y23500D03*
X178100Y23500D03*
X152700Y23500D03*
X127300Y23500D03*
X101900Y23500D03*
X76500Y23500D03*
X51100Y23500D03*
X25700Y23500D03*
X25700Y526500D03*
X51100Y526500D03*
X76500Y526500D03*
X101900Y526500D03*
X127300Y526500D03*
X152700Y526500D03*
X178100Y526500D03*
X203500Y526500D03*
X228900Y526500D03*
X254300Y526500D03*
D31*
X751508Y312662D02*
X751508Y287698D01*
X751508Y312662D02*
X801872Y312662D01*
X801872Y287698D01*
X751508Y287698D01*
X751508Y290044D02*
X801872Y290044D01*
X801872Y292390D02*
X751508Y292390D01*
X751508Y294736D02*
X801872Y294736D01*
X801872Y297082D02*
X751508Y297082D01*
X751508Y299428D02*
X801872Y299428D01*
X801872Y301774D02*
X751508Y301774D01*
X751508Y304120D02*
X801872Y304120D01*
X801872Y306466D02*
X751508Y306466D01*
X751508Y308812D02*
X801872Y308812D01*
X801872Y311158D02*
X751508Y311158D01*
X519258Y298422D02*
X519258Y273458D01*
X519258Y298422D02*
X569622Y298422D01*
X569622Y273458D01*
X519258Y273458D01*
X519258Y275804D02*
X569622Y275804D01*
X569622Y278150D02*
X519258Y278150D01*
X519258Y280496D02*
X569622Y280496D01*
X569622Y282842D02*
X519258Y282842D01*
X519258Y285188D02*
X569622Y285188D01*
X569622Y287534D02*
X519258Y287534D01*
X519258Y289880D02*
X569622Y289880D01*
X569622Y292226D02*
X519258Y292226D01*
X519258Y294572D02*
X569622Y294572D01*
X569622Y296918D02*
X519258Y296918D01*
D12*
X682309Y224559D02*
X682309Y212081D01*
X666831Y212081D01*
X666831Y224559D01*
X682309Y224559D01*
X682309Y214508D02*
X666831Y214508D01*
X666831Y216935D02*
X682309Y216935D01*
X682309Y219362D02*
X666831Y219362D01*
X666831Y221789D02*
X682309Y221789D01*
X682309Y224216D02*
X666831Y224216D01*
X682309Y232081D02*
X682309Y244559D01*
X682309Y232081D02*
X666831Y232081D01*
X666831Y244559D01*
X682309Y244559D01*
X682309Y234508D02*
X666831Y234508D01*
X666831Y236935D02*
X682309Y236935D01*
X682309Y239362D02*
X666831Y239362D01*
X666831Y241789D02*
X682309Y241789D01*
X682309Y244216D02*
X666831Y244216D01*
D16*
X738998Y224748D02*
X745502Y224748D01*
X738998Y224748D02*
X738998Y237252D01*
X745502Y237252D01*
X745502Y224748D01*
X745502Y227151D02*
X738998Y227151D01*
X738998Y229554D02*
X745502Y229554D01*
X745502Y231957D02*
X738998Y231957D01*
X738998Y234360D02*
X745502Y234360D01*
X745502Y236763D02*
X738998Y236763D01*
D32*
X736077Y237543D02*
X729143Y237543D01*
X729143Y239457D01*
X736077Y239457D01*
X736077Y237543D01*
D33*
X735120Y233500D02*
X730100Y233500D01*
X730100Y228500D02*
X735120Y228500D01*
X735120Y223500D02*
X730100Y223500D01*
X749380Y223500D02*
X754400Y223500D01*
X754400Y228500D02*
X749380Y228500D01*
X749380Y233500D02*
X754400Y233500D01*
X754400Y238500D02*
X749380Y238500D01*
D34*
X915247Y165453D02*
X915247Y155947D01*
X915247Y165453D02*
X952253Y165453D01*
X952253Y155947D01*
X915247Y155947D01*
X915247Y158348D02*
X952253Y158348D01*
X952253Y160749D02*
X915247Y160749D01*
X915247Y163150D02*
X952253Y163150D01*
X847747Y165453D02*
X847747Y155947D01*
X847747Y165453D02*
X884753Y165453D01*
X884753Y155947D01*
X847747Y155947D01*
X847747Y158348D02*
X884753Y158348D01*
X884753Y160749D02*
X847747Y160749D01*
X847747Y163150D02*
X884753Y163150D01*
X915247Y181347D02*
X915247Y190853D01*
X952253Y190853D01*
X952253Y181347D01*
X915247Y181347D01*
X915247Y183748D02*
X952253Y183748D01*
X952253Y186149D02*
X915247Y186149D01*
X915247Y188550D02*
X952253Y188550D01*
X847747Y190853D02*
X847747Y181347D01*
X847747Y190853D02*
X884753Y190853D01*
X884753Y181347D01*
X847747Y181347D01*
X847747Y183748D02*
X884753Y183748D01*
X884753Y186149D02*
X847747Y186149D01*
X847747Y188550D02*
X884753Y188550D01*
X915247Y206747D02*
X915247Y216253D01*
X952253Y216253D01*
X952253Y206747D01*
X915247Y206747D01*
X915247Y209148D02*
X952253Y209148D01*
X952253Y211549D02*
X915247Y211549D01*
X915247Y213950D02*
X952253Y213950D01*
X847747Y216253D02*
X847747Y206747D01*
X847747Y216253D02*
X884753Y216253D01*
X884753Y206747D01*
X847747Y206747D01*
X847747Y209148D02*
X884753Y209148D01*
X884753Y211549D02*
X847747Y211549D01*
X847747Y213950D02*
X884753Y213950D01*
X915247Y232147D02*
X915247Y241653D01*
X952253Y241653D01*
X952253Y232147D01*
X915247Y232147D01*
X915247Y234548D02*
X952253Y234548D01*
X952253Y236949D02*
X915247Y236949D01*
X915247Y239350D02*
X952253Y239350D01*
X847747Y241653D02*
X847747Y232147D01*
X847747Y241653D02*
X884753Y241653D01*
X884753Y232147D01*
X847747Y232147D01*
X847747Y234548D02*
X884753Y234548D01*
X884753Y236949D02*
X847747Y236949D01*
X847747Y239350D02*
X884753Y239350D01*
X915247Y257547D02*
X915247Y267053D01*
X952253Y267053D01*
X952253Y257547D01*
X915247Y257547D01*
X915247Y259948D02*
X952253Y259948D01*
X952253Y262349D02*
X915247Y262349D01*
X915247Y264750D02*
X952253Y264750D01*
X847747Y267053D02*
X847747Y257547D01*
X847747Y267053D02*
X884753Y267053D01*
X884753Y257547D01*
X847747Y257547D01*
X847747Y259948D02*
X884753Y259948D01*
X884753Y262349D02*
X847747Y262349D01*
X847747Y264750D02*
X884753Y264750D01*
X915247Y282947D02*
X915247Y292453D01*
X952253Y292453D01*
X952253Y282947D01*
X915247Y282947D01*
X915247Y285348D02*
X952253Y285348D01*
X952253Y287749D02*
X915247Y287749D01*
X915247Y290150D02*
X952253Y290150D01*
X847747Y292453D02*
X847747Y282947D01*
X847747Y292453D02*
X884753Y292453D01*
X884753Y282947D01*
X847747Y282947D01*
X847747Y285348D02*
X884753Y285348D01*
X884753Y287749D02*
X847747Y287749D01*
X847747Y290150D02*
X884753Y290150D01*
X915247Y308347D02*
X915247Y317853D01*
X952253Y317853D01*
X952253Y308347D01*
X915247Y308347D01*
X915247Y310748D02*
X952253Y310748D01*
X952253Y313149D02*
X915247Y313149D01*
X915247Y315550D02*
X952253Y315550D01*
X847747Y317853D02*
X847747Y308347D01*
X847747Y317853D02*
X884753Y317853D01*
X884753Y308347D01*
X847747Y308347D01*
X847747Y310748D02*
X884753Y310748D01*
X884753Y313149D02*
X847747Y313149D01*
X847747Y315550D02*
X884753Y315550D01*
X915247Y333747D02*
X915247Y343253D01*
X952253Y343253D01*
X952253Y333747D01*
X915247Y333747D01*
X915247Y336148D02*
X952253Y336148D01*
X952253Y338549D02*
X915247Y338549D01*
X915247Y340950D02*
X952253Y340950D01*
X847747Y343253D02*
X847747Y333747D01*
X847747Y343253D02*
X884753Y343253D01*
X884753Y333747D01*
X847747Y333747D01*
X847747Y336148D02*
X884753Y336148D01*
X884753Y338549D02*
X847747Y338549D01*
X847747Y340950D02*
X884753Y340950D01*
X915247Y359147D02*
X915247Y368653D01*
X952253Y368653D01*
X952253Y359147D01*
X915247Y359147D01*
X915247Y361548D02*
X952253Y361548D01*
X952253Y363949D02*
X915247Y363949D01*
X915247Y366350D02*
X952253Y366350D01*
X847747Y368653D02*
X847747Y359147D01*
X847747Y368653D02*
X884753Y368653D01*
X884753Y359147D01*
X847747Y359147D01*
X847747Y361548D02*
X884753Y361548D01*
X884753Y363949D02*
X847747Y363949D01*
X847747Y366350D02*
X884753Y366350D01*
X915247Y384547D02*
X915247Y394053D01*
X952253Y394053D01*
X952253Y384547D01*
X915247Y384547D01*
X915247Y386948D02*
X952253Y386948D01*
X952253Y389349D02*
X915247Y389349D01*
X915247Y391750D02*
X952253Y391750D01*
X847747Y394053D02*
X847747Y384547D01*
X847747Y394053D02*
X884753Y394053D01*
X884753Y384547D01*
X847747Y384547D01*
X847747Y386948D02*
X884753Y386948D01*
X884753Y389349D02*
X847747Y389349D01*
X847747Y391750D02*
X884753Y391750D01*
D12*
X141739Y307239D02*
X129261Y307239D01*
X141739Y307239D02*
X141739Y292761D01*
X129261Y292761D01*
X129261Y307239D01*
X129261Y295188D02*
X141739Y295188D01*
X141739Y297615D02*
X129261Y297615D01*
X129261Y300042D02*
X141739Y300042D01*
X141739Y302469D02*
X129261Y302469D01*
X129261Y304896D02*
X141739Y304896D01*
X122739Y307239D02*
X110261Y307239D01*
X122739Y307239D02*
X122739Y292761D01*
X110261Y292761D01*
X110261Y307239D01*
X110261Y295188D02*
X122739Y295188D01*
X122739Y297615D02*
X110261Y297615D01*
X110261Y300042D02*
X122739Y300042D01*
X122739Y302469D02*
X110261Y302469D01*
X110261Y304896D02*
X122739Y304896D01*
X335511Y282011D02*
X347989Y282011D01*
X335511Y282011D02*
X335511Y296489D01*
X347989Y296489D01*
X347989Y282011D01*
X347989Y284438D02*
X335511Y284438D01*
X335511Y286865D02*
X347989Y286865D01*
X347989Y289292D02*
X335511Y289292D01*
X335511Y291719D02*
X347989Y291719D01*
X347989Y294146D02*
X335511Y294146D01*
X354511Y282011D02*
X366989Y282011D01*
X354511Y282011D02*
X354511Y296489D01*
X366989Y296489D01*
X366989Y282011D01*
X366989Y284438D02*
X354511Y284438D01*
X354511Y286865D02*
X366989Y286865D01*
X366989Y289292D02*
X354511Y289292D01*
X354511Y291719D02*
X366989Y291719D01*
X366989Y294146D02*
X354511Y294146D01*
D35*
X663938Y324891D02*
X669806Y324891D01*
X663938Y324891D02*
X663938Y337109D01*
X669806Y337109D01*
X669806Y324891D01*
X669806Y327280D02*
X663938Y327280D01*
X663938Y329669D02*
X669806Y329669D01*
X669806Y332058D02*
X663938Y332058D01*
X663938Y334447D02*
X669806Y334447D01*
X669806Y336836D02*
X663938Y336836D01*
X672066Y324891D02*
X677934Y324891D01*
X672066Y324891D02*
X672066Y337109D01*
X677934Y337109D01*
X677934Y324891D01*
X677934Y327280D02*
X672066Y327280D01*
X672066Y329669D02*
X677934Y329669D01*
X677934Y332058D02*
X672066Y332058D01*
X672066Y334447D02*
X677934Y334447D01*
X677934Y336836D02*
X672066Y336836D01*
X680194Y324891D02*
X686062Y324891D01*
X680194Y324891D02*
X680194Y337109D01*
X686062Y337109D01*
X686062Y324891D01*
X686062Y327280D02*
X680194Y327280D01*
X680194Y329669D02*
X686062Y329669D01*
X686062Y332058D02*
X680194Y332058D01*
X680194Y334447D02*
X686062Y334447D01*
X686062Y336836D02*
X680194Y336836D01*
D36*
X370823Y324752D02*
X363494Y332081D01*
X370823Y324752D02*
X357748Y311677D01*
X350419Y319006D01*
X363494Y332081D01*
X360209Y314138D02*
X355287Y314138D01*
X352826Y316599D02*
X362670Y316599D01*
X365131Y319060D02*
X350473Y319060D01*
X352934Y321521D02*
X367592Y321521D01*
X370053Y323982D02*
X355395Y323982D01*
X357856Y326443D02*
X369132Y326443D01*
X366671Y328904D02*
X360317Y328904D01*
X362778Y331365D02*
X364210Y331365D01*
X353581Y341994D02*
X346252Y349323D01*
X353581Y341994D02*
X340506Y328919D01*
X333177Y336248D01*
X346252Y349323D01*
X342967Y331380D02*
X338045Y331380D01*
X335584Y333841D02*
X345428Y333841D01*
X347889Y336302D02*
X333231Y336302D01*
X335692Y338763D02*
X350350Y338763D01*
X352811Y341224D02*
X338153Y341224D01*
X340614Y343685D02*
X351890Y343685D01*
X349429Y346146D02*
X343075Y346146D01*
X345536Y348607D02*
X346968Y348607D01*
D12*
X345239Y318739D02*
X332761Y318739D01*
X345239Y318739D02*
X345239Y303261D01*
X332761Y303261D01*
X332761Y318739D01*
X332761Y305688D02*
X345239Y305688D01*
X345239Y308115D02*
X332761Y308115D01*
X332761Y310542D02*
X345239Y310542D01*
X345239Y312969D02*
X332761Y312969D01*
X332761Y315396D02*
X345239Y315396D01*
X345239Y317823D02*
X332761Y317823D01*
X325239Y318739D02*
X312761Y318739D01*
X325239Y318739D02*
X325239Y303261D01*
X312761Y303261D01*
X312761Y318739D01*
X312761Y305688D02*
X325239Y305688D01*
X325239Y308115D02*
X312761Y308115D01*
X312761Y310542D02*
X325239Y310542D01*
X325239Y312969D02*
X312761Y312969D01*
X312761Y315396D02*
X325239Y315396D01*
X325239Y317823D02*
X312761Y317823D01*
X316761Y338739D02*
X329239Y338739D01*
X329239Y323261D01*
X316761Y323261D01*
X316761Y338739D01*
X316761Y325688D02*
X329239Y325688D01*
X329239Y328115D02*
X316761Y328115D01*
X316761Y330542D02*
X329239Y330542D01*
X329239Y332969D02*
X316761Y332969D01*
X316761Y335396D02*
X329239Y335396D01*
X329239Y337823D02*
X316761Y337823D01*
X309239Y338739D02*
X296761Y338739D01*
X309239Y338739D02*
X309239Y323261D01*
X296761Y323261D01*
X296761Y338739D01*
X296761Y325688D02*
X309239Y325688D01*
X309239Y328115D02*
X296761Y328115D01*
X296761Y330542D02*
X309239Y330542D01*
X309239Y332969D02*
X296761Y332969D01*
X296761Y335396D02*
X309239Y335396D01*
X309239Y337823D02*
X296761Y337823D01*
X307761Y391239D02*
X320239Y391239D01*
X320239Y376761D01*
X307761Y376761D01*
X307761Y391239D01*
X307761Y379188D02*
X320239Y379188D01*
X320239Y381615D02*
X307761Y381615D01*
X307761Y384042D02*
X320239Y384042D01*
X320239Y386469D02*
X307761Y386469D01*
X307761Y388896D02*
X320239Y388896D01*
X301239Y391239D02*
X288761Y391239D01*
X301239Y391239D02*
X301239Y376761D01*
X288761Y376761D01*
X288761Y391239D01*
X288761Y379188D02*
X301239Y379188D01*
X301239Y381615D02*
X288761Y381615D01*
X288761Y384042D02*
X301239Y384042D01*
X301239Y386469D02*
X288761Y386469D01*
X288761Y388896D02*
X301239Y388896D01*
X283907Y265894D02*
X275084Y257071D01*
X283907Y265894D02*
X294144Y255657D01*
X285321Y246834D01*
X275084Y257071D01*
X282894Y249261D02*
X287748Y249261D01*
X290175Y251688D02*
X280467Y251688D01*
X278040Y254115D02*
X292602Y254115D01*
X293259Y256542D02*
X275613Y256542D01*
X276982Y258969D02*
X290832Y258969D01*
X288405Y261396D02*
X279409Y261396D01*
X281836Y263823D02*
X285978Y263823D01*
X270472Y252459D02*
X261649Y243636D01*
X270472Y252459D02*
X280709Y242222D01*
X271886Y233399D01*
X261649Y243636D01*
X269459Y235826D02*
X274313Y235826D01*
X276740Y238253D02*
X267032Y238253D01*
X264605Y240680D02*
X279167Y240680D01*
X279824Y243107D02*
X262178Y243107D01*
X263547Y245534D02*
X277397Y245534D01*
X274970Y247961D02*
X265974Y247961D01*
X268401Y250388D02*
X272543Y250388D01*
X284261Y235498D02*
X275438Y226675D01*
X284261Y235498D02*
X294498Y225261D01*
X285675Y216438D01*
X275438Y226675D01*
X283248Y218865D02*
X288102Y218865D01*
X290529Y221292D02*
X280821Y221292D01*
X278394Y223719D02*
X292956Y223719D01*
X293613Y226146D02*
X275967Y226146D01*
X277336Y228573D02*
X291186Y228573D01*
X288759Y231000D02*
X279763Y231000D01*
X282190Y233427D02*
X286332Y233427D01*
X270825Y222062D02*
X262002Y213239D01*
X270825Y222062D02*
X281062Y211825D01*
X272239Y203002D01*
X262002Y213239D01*
X269812Y205429D02*
X274666Y205429D01*
X277093Y207856D02*
X267385Y207856D01*
X264958Y210283D02*
X279520Y210283D01*
X280177Y212710D02*
X262531Y212710D01*
X263900Y215137D02*
X277750Y215137D01*
X275323Y217564D02*
X266327Y217564D01*
X268754Y219991D02*
X272896Y219991D01*
M02*
