M48
;GenerationSoftware,Autodesk,EAGLE,9.6.1*%
;CreationDate,2021-04-01T03:58:06Z*%
FMAT,2
ICI,OFF
METRIC,TZ,000.000
T7C0.350
T6C0.500
T5C0.600
T4C0.800
T3C0.826
T2C1.190
T1C1.470
%
G90
M71
T1
X74955Y12000
X25045Y12000
T2
X75845Y6540
T3
X17810Y52650
X15270Y52650
X12730Y52650
X10190Y52650
X7650Y52650
X5110Y52650
X2570Y52650
X2570Y2350
X5110Y2350
X7650Y2350
X10190Y2350
X12730Y2350
X15270Y2350
X17810Y2350
X20350Y2350
X22890Y2350
X25430Y2350
X61430Y52650
X58890Y52650
X56350Y52650
X53810Y52650
X51270Y52650
X48730Y52650
X46190Y52650
X43650Y52650
X41110Y52650
X38570Y52650
X38570Y2350
X41110Y2350
X43650Y2350
X46190Y2350
X48730Y2350
X51270Y2350
X53810Y2350
X56350Y2350
X58890Y2350
X61430Y2350
X97430Y52650
X25430Y52650
X92350Y52650
X89810Y52650
X87270Y52650
X84730Y52650
X82190Y52650
X79650Y52650
X77110Y52650
X74570Y52650
X74570Y2350
X77110Y2350
X79650Y2350
X82190Y2350
X84730Y2350
X87270Y2350
X89810Y2350
X92350Y2350
X94890Y2350
X97430Y2350
X94890Y52650
X22890Y52650
X20350Y52650
T4
X3630Y12240
X3630Y22240
X3630Y20240
X3630Y18240
X3630Y16240
X3630Y14240
T5
X13459Y36589
X17091Y36589
X15288Y36589
X13459Y43904
X17091Y43904
X15288Y43904
X11655Y42050
X11655Y38418
X11655Y40221
X18894Y40221
X18894Y38418
X18894Y42050
T6
X50516Y23598
X47976Y23598
T7
X5875Y19500
X5875Y21300
X6775Y20400
X7625Y17275
X7625Y15225
X5900Y13225
X7625Y13225
X7675Y19500
X7650Y21300
X33150Y35275
X31425Y34750
X35825Y39575
X35825Y42900
X27725Y41425
X27125Y40025
X26050Y33575
X29825Y31275
X26575Y30875
X25550Y29900
X24675Y25050
X25675Y26075
X39825Y26425
X42825Y26025
X48400Y21825
X50400Y21825
X49400Y20775
X50400Y19750
X51400Y20775
X46375Y21825
X45350Y22850
X44700Y21875
X40500Y15475
X43000Y17725
X36575Y9700
X38625Y9700
X40675Y9700
X31175Y9450
X32550Y8875
X30100Y8575
X25300Y6075
X27500Y5950
X29625Y6025
X31950Y5875
X34050Y5850
X36100Y5875
X38275Y5950
X40300Y5975
X43950Y5800
X45675Y5700
X48775Y5575
X50800Y5600
X53550Y5350
X58075Y4800
X64125Y4775
X66000Y4825
X67900Y4825
X69925Y4900
X15900Y18500
X17025Y19575
X18225Y20700
X19500Y21950
X20575Y20825
X19325Y19575
X18125Y18225
X13600Y15150
X15650Y15200
X13650Y13100
X15575Y13125
X13550Y20975
X13500Y19575
X15000Y22125
X16100Y23350
X17250Y24550
X12700Y28000
X13400Y26175
X13250Y23950
X9025Y20475
X13625Y17175
X9000Y15200
X9025Y17200
X9225Y13225
X8700Y11025
X9850Y9500
X14300Y11425
X16575Y11350
X18200Y11425
X20525Y11325
X22575Y11375
X27200Y12000
X28425Y13250
X31625Y13900
X33350Y13975
X36425Y14025
X38950Y14025
X42925Y15925
X45000Y14000
X47425Y13975
X49425Y14050
X51600Y13825
X53525Y13875
X55525Y13925
X59425Y14025
X60125Y20550
X61475Y23425
X62775Y24075
X61500Y25325
X60850Y26825
X61100Y29950
X67525Y25525
X69075Y25300
X74775Y24800
X77350Y24900
X76725Y19975
X80675Y20150
X83500Y20225
X80925Y31025
X81925Y33300
X76825Y32475
X74025Y31050
X74225Y42150
X75525Y42100
X75400Y46025
X64350Y50800
X66250Y50675
X68100Y50800
X70000Y50700
X71825Y50850
X65300Y53300
X67200Y53325
X69075Y53375
X70800Y53350
X72400Y53300
X26150Y49400
X28125Y49400
X30125Y49475
X29125Y50650
X30225Y51775
X31400Y50600
X31625Y49025
X36425Y52800
X37325Y51625
X41700Y51300
X43350Y50900
X41300Y49800
X36150Y50075
X39525Y43575
X41100Y43500
X44525Y44575
X45200Y43500
X46525Y45225
X48450Y45200
X47425Y44250
X47425Y42525
X55525Y41600
X59125Y43675
X60275Y43250
X63300Y44275
X64650Y44300
X19275Y12550
X20350Y13675
X21575Y12525
X22700Y13625
X21275Y14850
X22800Y16125
X26800Y13900
X24000Y17275
X16825Y17175
X9125Y23025
X8450Y24675
X7250Y25950
X7250Y27950
X5975Y31350
X6025Y29425
X5325Y27725
X5150Y25925
X6175Y24675
X7350Y23425
X14675Y27325
X14600Y25225
X15700Y26300
X15400Y29675
X16625Y28650
X16750Y30575
X18075Y29550
X18725Y26350
X19950Y27525
X21125Y28600
X19250Y30700
X22450Y29850
X2575Y9300
X4625Y9925
X7225Y9425
X5325Y7975
X2875Y7300
X28525Y2200
X31300Y2150
X34500Y2175
X64475Y2200
X67625Y2250
X71175Y2250
X78325Y7125
X80275Y7150
X82350Y7150
X71600Y5475
X73575Y6000
X77450Y11725
X79950Y11350
X81925Y11350
X84100Y11350
X86600Y11350
X91525Y14500
X89050Y19475
X95525Y47850
X95525Y45750
X6350Y51350
X11425Y51400
X16550Y51450
X21600Y51300
X41975Y37825
X66575Y37450
X64375Y36550
X68900Y34575
X49475Y35475
X51300Y35475
X81175Y37650
X56275Y38500
X55150Y38625
X71425Y10650
X26775Y27050
X29925Y27825
X25375Y23375
X21900Y20000
X24325Y22325
X20825Y18825
X19750Y17725
X18550Y16650
X17325Y15425
X89950Y20400
X18525Y14275
X19525Y15350
X20625Y16450
X21825Y17625
X23100Y18825
X25475Y21075
X32175Y27425
X40200Y27925
X48000Y32450
X49325Y32850
X14450Y45900
X16250Y45900
X18050Y45875
X19875Y44725
X21300Y43275
X23325Y42300
X27200Y43000
X22700Y44375
X28850Y42900
X27625Y45975
X23550Y45600
X20550Y46300
X51800Y44975
X53250Y45050
X62375Y27925
X64550Y24925
X48000Y28125
X50025Y28125
X55650Y25200
X53450Y25225
X50250Y26325
X48900Y27100
X47700Y26225
X48950Y25450
X46525Y28550
X47000Y27250
X21800Y38975
X22075Y36125
X10225Y35450
X9325Y39875
X9075Y44025
X8275Y36725
X19375Y35475
X42925Y22850
X9750Y6500
X14925Y6350
X20125Y6100
X83525Y3875
X88825Y3975
X94425Y4075
X98375Y7800
X96150Y5725
X98500Y4025
X27475Y53275
X36250Y34150
X37875Y32750
X46750Y30750
X29175Y24150
X44575Y32350
X52400Y30700
X52225Y26225
X54525Y26350
X56200Y26425
X51125Y27375
X57400Y33500
X56525Y34400
X55375Y39925
X84375Y32975
X68875Y21650
X69875Y22750
X68900Y22750
X68975Y9625
X69000Y13400
X69750Y14150
X61950Y33625
X57675Y35700
X54075Y41532
X61000Y45225
X88200Y10025
X89950Y15000
X31900Y19100
X37800Y24107
X47150Y11900
X68600Y18925
X69650Y17900
X49200Y11900
X51250Y11900
X53300Y11900
X67575Y17900
X67550Y19950
X80350Y15125
X80350Y16650
X78825Y16625
X78825Y15125
X50200Y12600
X50225Y11175
X48150Y12575
X48175Y11200
X52275Y11175
X52275Y12600
X79575Y15875
X40850Y38125
X80500Y28275
X46150Y41650
X43650Y46800
X36675Y31175
X29150Y29375
X41950Y35850
X60825Y33525
X32975Y38625
X34700Y37350
X34650Y35625
X39075Y35375
X58475Y42100
X55450Y44575
X40775Y18275
X34400Y23900
X38400Y26100
X34000Y26100
X57325Y38675
X71850Y41600
X73500Y25200
X72300Y23875
X41825Y32325
X37500Y41800
X71650Y40325
X74400Y40650
X75075Y39875
X75786Y40500
X81450Y41000
X80093Y42457
X79443Y43322
X78850Y44200
X72291Y44451
X73400Y44300
X73200Y45400
X79800Y47750
X80650Y48600
X81475Y47775
X82300Y48600
X90200Y26250
X70400Y9875
X67157Y9707
X46400Y31600
X45725Y34175
X39200Y39150
X90350Y28750
X69075Y10700
X66250Y10525
X47750Y31100
X47225Y34025
X39250Y40125
X90250Y36350
X13100Y45475
X89950Y38900
X10975Y45450
X41300Y44800
X42200Y46500
X42525Y40700
X68300Y41500
X31800Y44100
X31100Y46000
X83375Y36400
X64400Y40450
X63843Y42700
X43550Y39950
X68350Y40400
X84100Y38900
X67900Y38750
X67325Y31875
X70500Y34650
X68400Y44250
X72650Y42300
X80975Y18625
X65075Y26600
X72200Y29300
X58150Y29350
X39250Y45200
X36400Y47100
X62075Y38900
X68900Y31050
X83000Y18625
X39000Y36475
X82250Y30600
X49275Y31850
X45575Y32525
X83625Y33750
X44000Y31475
X82900Y32025
X50300Y31075
X42750Y32275
X81250Y29325
X51125Y33825
X43025Y35200
X68250Y37750
X65350Y39475
X60300Y18825
X60975Y14575
X27500Y35250
X22075Y23450
X26250Y19400
X34700Y14850
X50700Y14850
X56150Y35275
X58775Y33800
X58525Y27700
X62325Y18825
X63000Y14575
X21550Y25900
X30925Y26375
X37925Y28075
X57500Y41425
X50100Y45000
X90300Y33850
X25200Y18350
X90350Y31300
X91100Y39950
X80450Y44807
X21650Y45250
X75450Y44150
X82000Y45200
X76600Y48875
X93440Y49825
X62550Y51050
X98025Y5875
X26980Y3900
X27450Y51350
X62025Y4900
X74300Y45191
X74100Y46400
X74200Y47600
X75200Y48600
X74200Y48600
X80750Y41750
X72280Y39500
X72986Y40675
X73693Y39825
X5900Y17275
X5900Y15250
X29775Y17575
X30850Y18625
X30875Y16525
X31925Y17575
X33000Y16525
X39450Y16525
X38375Y17600
X37300Y16525
X36225Y17600
X35125Y16550
X34050Y17600
X54800Y16050
X53700Y17150
X52625Y16050
X51550Y17125
X49475Y17125
X48400Y16025
X46200Y18200
X47300Y17100
X45125Y17100
X46200Y16025
X74175Y18175
X73100Y19250
X72025Y18175
X85275Y17400
X94100Y17400
X92025Y17400
X94025Y11775
X92975Y10700
X90875Y10700
X91900Y9625
X89825Y9625
X88250Y14325
X86300Y14350
X87650Y27500
X85550Y27475
X87575Y25050
X85475Y25000
X85750Y22400
X85850Y19875
X92350Y19875
X92325Y22425
X92325Y25000
X92300Y27550
X92325Y30000
X87675Y30050
X87475Y37650
X85400Y37650
X86625Y32675
X85600Y30050
X94425Y35150
X94400Y32600
X94400Y30000
X94400Y27550
X94400Y25000
X94400Y22425
X94425Y19875
X82625Y24900
X82000Y20850
X83050Y21900
X80950Y21900
X82000Y22950
X80950Y24000
X94475Y46800
X93425Y45750
X93425Y47850
X92375Y46800
X91325Y45750
X91325Y47850
X90275Y46800
X89225Y45750
X89225Y47850
X87125Y45750
X88175Y46800
X87125Y47850
X85025Y45750
X86075Y46800
X85025Y47850
X28575Y32475
X90350Y23650
X17225Y13175
M30